<svg width="24" height="24" viewBox="0 0 24 24" fill="none" xmlns="http://www.w3.org/2000/svg"><path d="M1.70343 2.97316C3.3452 2.15606 5.65451 1.67522 7.42384 2.25517C8.50982 2.60923 9.41162 3.37378 9.9339 4.38323C10.7949 6.08721 10.4267 8.36566 9.83121 10.1102C9.77655 10.2703 9.66972 10.6348 9.5279 10.7131C9.34935 10.5809 9.23763 10.4313 9.08307 10.2948C8.7122 9.96721 8.20884 9.36996 7.83955 9.06935C7.03281 9.01032 5.96447 9.10085 5.23652 9.01388C5.76019 9.50366 6.30394 10.0706 6.81723 10.5804L9.85468 13.5958L10.8325 14.5686C11.0123 14.7474 11.3486 15.0997 11.5463 15.2237C11.9543 14.7143 12.4222 14.1972 12.8264 13.6936C13.8566 12.41 15.6026 9.97843 16.0391 8.37753C15.1127 8.83013 14.1913 9.29249 13.2749 9.76446C13.0818 9.86362 12.1485 10.3615 11.9949 10.4056C11.8506 10.4358 11.5795 10.4888 11.4619 10.4109C12.9543 7.47006 15.2156 4.46964 18.4885 3.38915C19.8397 2.95826 21.4349 2.82193 22.7635 3.39651C23.1309 3.5554 23.4183 4.01995 23.5517 4.38372C25.2061 8.89864 21.9855 13.5178 18.7258 16.3929C18.5525 16.5458 18.3883 16.6876 18.2417 16.861C18.3701 16.2003 18.5872 15.408 18.7542 14.7448L19.637 11.2521C16.3396 15.1832 12.2363 18.3715 7.60052 20.6048C6.81427 20.9901 6.01079 21.3399 5.19261 21.6529C4.92362 21.7577 4.52729 21.924 4.25746 22C4.8347 21.5842 5.6563 20.868 6.20809 20.3821C7.38178 19.3485 8.72513 18.1752 9.81143 17.0537C7.52586 14.8375 5.24597 12.5271 2.98397 10.281L0.950252 8.26448C0.773712 8.08964 0.13343 7.47918 0.0145518 7.32038C-0.0015536 6.82154 -0.00861729 6.05454 0.0164428 5.55876C0.358373 5.55617 0.706595 5.55088 1.04768 5.55266C1.54885 5.55527 1.70032 5.4979 2.0726 5.86229C2.5427 6.32239 3.00388 6.81579 3.48883 7.25602L3.48791 5.64979C3.48807 5.43302 3.49834 4.92995 3.46672 4.73524C3.33484 4.578 3.17754 4.4227 3.02833 4.27978C2.58222 3.85249 2.15484 3.39371 1.70343 2.97316Z" fill="white"/></svg>