<svg width="24" height="24" viewBox="0 0 24 24" fill="none" xmlns="http://www.w3.org/2000/svg"><g clip-path="url(#clip0_5988_46)"><path d="M6.91723 15.3508C7.10648 15.724 8.23952 17.5007 8.48359 17.6819C8.53286 17.7185 8.53786 17.7146 8.5943 17.7052C8.81984 17.524 9.15205 16.7347 9.28797 16.4483C9.34563 16.412 9.45023 16.3594 9.51356 16.3249C10.0753 16.9934 10.564 17.7492 11.1033 18.4364C11.343 18.7418 11.7133 19.3558 12.0474 19.5175C12.2148 19.3699 12.7156 18.661 12.8694 18.4507L13.9114 17.0481C14.0235 16.8945 14.4949 16.0922 14.7106 16.4511C14.8593 16.6984 15.2131 17.6494 15.4897 17.7347C15.5955 17.7036 16.1697 16.763 16.3014 16.5803L16.3016 16.5801C16.3702 16.4492 16.9575 15.5773 17.0444 15.5011C17.2856 15.5892 17.214 16.9011 17.157 17.1387C17.0756 18.0823 16.4884 19.4103 15.8663 20.1118C14.9563 21.1382 13.8825 22.0599 12.9811 23.0998C12.7306 23.3887 12.3385 23.6879 12.1333 24C11.6734 23.8523 10.7069 22.7491 10.3161 22.358C9.65955 21.701 8.93913 21.0079 8.30918 20.329C7.32908 19.2725 6.7371 17.6997 6.76037 16.2589C6.7639 15.9967 6.86293 15.6102 6.91723 15.3508Z" fill="white"/><path fill-rule="evenodd" clip-rule="evenodd" d="M11.6848 0.204344C11.81 0.0855463 11.9855 -0.0995993 12.154 0.0653895C12.4043 0.310505 12.6218 0.61188 12.8393 0.887974L14.109 2.49131C14.4582 2.93164 15.0808 3.80468 15.5087 4.08329C16.0516 3.52696 16.5983 2.97422 17.1486 2.4253C17.2991 2.27541 17.7672 1.79039 17.9235 1.70467L17.9626 1.73726C18.0869 2.06524 18.0279 6.0161 18.0401 6.69862C19.8316 5.84436 19.818 4.88408 20.6331 3.35846C20.7558 3.74663 21.3222 4.79653 21.5348 5.20186C21.9626 6.02438 22.3756 6.85471 22.7738 7.69211C23.7955 9.85453 24.5445 11.5087 23.4888 13.883C23.3008 14.2971 23.0957 14.7031 22.8739 15.0998C22.5011 15.7527 21.9165 16.6443 21.4928 17.2665C20.8659 18.1875 19.6399 20.0502 18.8023 20.734L18.7624 20.7759C18.5513 20.9884 18.1857 21.2511 18.1299 21.3954L18.0727 21.4288L18.0326 21.4173C17.9945 21.2795 18.1715 20.9179 18.2293 20.7521C18.7482 19.1289 19.0131 17.3206 18.994 15.6117C18.9871 14.9947 18.8308 14.3166 18.8701 13.734C18.8827 13.5482 19.2724 13.1967 19.4162 13.0329C20.1529 12.1936 20.5463 11.3826 20.5568 10.2559C19.9314 10.3078 19.0227 10.3949 18.4877 10.7119C18.3242 10.8081 18.1802 10.9344 18.0631 11.0842C17.8316 11.3773 17.4968 11.9744 17.2908 12.3182C16.8646 13.0254 16.4442 13.7364 16.0299 14.4508C15.9518 14.5883 15.5948 15.2501 15.5269 15.2953C15.0802 15.2732 15.0159 14.2236 14.4693 13.8725C14.001 14.5433 13.4433 15.2239 12.9652 15.8936C12.7312 16.2214 12.3207 16.7139 12.1529 17.0716C12.0342 17.0298 11.9844 17.0166 11.8609 16.9945C11.3076 16.2862 10.7879 15.5636 10.2501 14.8444C10.0144 14.5291 9.74316 14.1506 9.49142 13.8542C9.25516 14.1042 8.696 15.2914 8.69498 15.2972L8.56109 15.2434C8.55294 15.2486 8.44903 15.3135 8.44516 15.3064C7.82095 14.1359 7.07563 13.0029 6.4245 11.8517C5.89599 10.9173 5.52734 10.5 4.41929 10.3617C4.15384 10.3285 3.6984 10.3186 3.45407 10.2379L3.44217 10.2339C3.43778 11.3503 3.83274 12.1908 4.56216 13.0228C4.95099 13.4663 5.20323 13.5019 5.11109 14.1443C4.87682 15.777 4.9839 17.4285 5.32059 19.0378C5.40009 19.4179 5.55274 19.8616 5.60048 20.2318L5.68132 20.4593C5.7885 20.7608 5.95134 21.2248 5.95557 21.3178L5.92988 21.3559C5.77754 21.333 5.44425 20.977 5.3185 20.8545C4.50383 20.1097 3.88675 19.2934 3.26024 18.3893C2.82656 17.7514 2.39816 17.1099 1.97503 16.4649C0.802787 14.6891 -0.313011 12.9159 0.0805225 10.6808C0.177156 10.1396 0.364644 9.60135 0.578482 9.09616C1.31259 7.36195 2.21547 5.70768 3.04844 4.02086C3.10235 3.91164 3.27196 3.49 3.33021 3.44885C3.5133 3.48773 3.65025 4.01749 3.73292 4.20942C4.293 5.50972 4.74417 6.10435 5.97186 6.73267C6.02412 6.40616 6.00614 5.6681 6.00612 5.30697L6.00591 2.7812C6.00623 2.59426 5.96224 1.72979 6.10116 1.64539C6.19901 1.68744 6.21269 1.80101 6.28434 1.86023C7.05904 2.50007 7.69055 3.32285 8.46417 3.96305C8.51663 3.9979 8.61598 4.02739 8.66385 3.97188C9.71093 2.75843 10.668 1.4475 11.6848 0.204344ZM7.04716 8.68854C7.17209 9.14627 8.36832 11.5357 8.66636 11.8647C8.82731 11.6884 9.76314 11.0965 10.0153 10.933C10.2031 10.7949 10.8606 10.4282 10.9222 10.2986C10.8393 10.0787 7.43959 8.79189 7.04716 8.68854ZM16.8808 8.70641C16.701 8.7514 16.1392 8.94623 15.9866 9.02847C15.3615 9.36538 13.4381 9.90179 13.0074 10.3259C13.311 10.4841 13.7445 10.7891 14.0395 10.9888C14.4741 11.2703 14.9408 11.5852 15.3792 11.8525C15.5809 11.5574 16.9699 8.87379 16.9309 8.73311C16.929 8.72596 16.9261 8.71906 16.9236 8.71209L16.8808 8.70641Z" fill="white"/></g><defs><clipPath id="clip0_5988_46"><rect width="24" height="24" fill="white"/></clipPath></defs></svg>