<svg width="24" height="24" viewBox="0 0 24 24" fill="none" xmlns="http://www.w3.org/2000/svg"><path d="M19.4468 17.7395C19.8605 17.7126 20.1849 17.7276 20.5886 17.8258C21.4048 18.0168 22.1077 18.5164 22.5398 19.2128C22.9888 19.9453 23.1123 20.8669 22.8969 21.6882C22.8692 21.635 22.8429 21.5684 22.8173 21.5124C22.6222 21.0972 22.267 20.7722 21.8273 20.607C21.3568 20.4379 20.8363 20.4549 20.3786 20.6544C19.9625 20.834 19.6389 21.1684 19.481 21.5818C19.272 22.1282 19.3632 22.5461 19.6056 23.0545C19.9259 23.4767 20.157 23.6359 20.6006 23.9421C20.5849 23.945 20.569 23.9476 20.553 23.9501C18.6421 24.2514 16.7488 23.1704 16.5768 21.1965C16.4153 19.342 17.542 18.0225 19.4468 17.7395Z" fill="white"/><path d="M3.8802 17.7395C5.66479 17.5989 7.17789 18.7269 7.40022 20.4561C7.6803 22.6341 5.73282 24.3851 3.51863 23.9248C3.49712 23.9204 3.49701 23.9 3.48889 23.8798C3.52651 23.8171 3.88629 23.586 3.99558 23.4941C4.48281 23.0154 4.68557 22.4759 4.55817 21.809C4.47593 21.3891 4.22175 21.0191 3.85359 20.7824C2.92229 20.1735 1.56346 20.5781 1.18193 21.4994C1.15956 21.5536 1.12992 21.5563 1.07795 21.5654C1.05477 21.5341 1.03846 21.4994 1.03435 21.4611C0.945763 20.6313 1.00073 19.7443 1.53389 19.0567C2.20156 18.1957 2.82695 17.896 3.8802 17.7395Z" fill="white"/><path fill-rule="evenodd" clip-rule="evenodd" d="M18.9209 0.950182C19.1687 1.00658 20.1957 2.30016 20.3708 2.56213C20.4936 2.62885 21.0923 3.76501 21.1887 3.9678C22.9227 7.61942 22.1082 12.0922 19.1564 14.9269C17.1603 16.8437 14.67 17.8266 11.8782 17.7979C9.18088 17.7714 6.60593 16.7055 4.72454 14.8363C3.22547 13.3526 2.17022 11.2393 1.94913 9.1751C1.90128 8.7283 1.90743 7.9161 1.91693 7.43753C1.94906 5.8199 2.58796 4.08019 3.4833 2.72451C3.65272 2.468 3.93648 2.07983 4.1606 1.86827C4.28722 1.64595 4.83456 1.03388 5.08835 0.952777L5.1154 0.979373C5.06436 1.14543 4.92508 1.30657 4.81778 1.45204C4.58943 1.79206 4.41315 2.26329 4.2724 2.64343C2.98347 6.12477 4.3052 9.97782 7.53997 11.9979C9.37526 13.1622 11.6201 13.5575 13.7621 13.0935C15.8278 12.663 17.7511 11.3219 18.8956 9.61058C20.1254 7.77186 20.4483 5.64087 19.9692 3.51935C19.9325 3.35714 19.6998 2.67361 19.6912 2.59456C19.4693 2.06814 19.2808 1.5568 18.9052 1.10911C18.8766 1.07493 18.8721 1.01443 18.8773 0.972237L18.9209 0.950182Z" fill="white"/><path d="M11.4207 0.0286385C14.4591 -0.274192 17.1776 1.85905 17.4967 4.79658C17.8159 7.73403 15.6152 10.3669 12.5781 10.6813C9.53249 10.9966 6.80063 8.86141 6.48052 5.91575C6.16044 2.97008 8.37377 0.332354 11.4207 0.0286385Z" fill="white"/></svg>