<svg width="24" height="24" viewBox="0 0 24 24" fill="none" xmlns="http://www.w3.org/2000/svg"><path d="M8.0017 1.0095C8.97491 0.967191 9.70279 1.05191 10.5823 1.55697C13.9089 3.4673 14.2441 8.66612 11.4879 11.1983C10.8626 11.7728 10.5057 12.3689 10.7534 13.2311C10.8471 13.5612 11.0367 13.8568 11.2983 14.0811C11.6071 14.3467 12.0289 14.506 12.3971 14.679C13.061 14.9918 13.7419 15.2755 14.396 15.6081C14.6504 15.7446 15.0247 16.0457 15.1412 16.3175C15.3978 16.9164 15.5486 17.6721 15.7083 18.3049L16.4915 21.4129C16.6202 21.9244 16.745 22.4809 16.8868 22.9832C15.9872 23.0143 14.963 22.9927 14.0577 22.9928L0 22.9914C0.1381 22.5333 0.275958 21.9037 0.396034 21.4265L1.18203 18.3051C1.35502 17.6185 1.52306 16.5456 1.96912 16.0076C2.39933 15.5226 3.137 15.3264 3.69722 15.0363C4.72225 14.5054 6.02502 14.2871 6.19387 12.936C6.34553 11.7224 5.26735 11.227 4.64245 10.3354C4.08193 9.52263 3.72714 8.58802 3.60817 7.61065C3.23871 4.68899 4.79952 1.39171 8.0017 1.0095Z" fill="white"/><path d="M17.8766 1.88899C18.4743 1.85562 18.9602 1.90512 19.4822 2.21532C21.5485 3.44331 21.8417 6.69877 20.5325 8.55637C20.0886 9.18639 19.3431 9.56301 19.5985 10.486C19.925 11.6234 21.4184 11.5272 22.2923 12.0215C22.9867 12.4144 23.034 13.3333 23.1908 14.0535L23.6925 16.3485C23.7896 16.7972 23.884 17.3002 24 17.7396L19.5284 17.7425C18.8172 17.7403 18.0437 17.7652 17.339 17.7259C16.9363 15.5712 16.3977 14.452 14.2627 13.6393C13.9782 13.531 13.7134 13.3451 13.4026 13.2741C13.4264 13.1179 13.454 12.8911 13.5036 12.7456C13.937 11.4715 15.908 11.8354 16.5983 10.9091C16.7469 10.7088 16.8325 10.4694 16.8441 10.2211C16.8825 9.48499 16.4087 9.21777 15.9932 8.71889C14.338 6.73169 14.9576 2.34149 17.8766 1.88899Z" fill="white"/></svg>