<svg width="24" height="24" viewBox="0 0 24 24" fill="none" xmlns="http://www.w3.org/2000/svg"><g clip-path="url(#clip0_5988_166)"><path d="M2.71134 11.73C3.57763 10.8908 5.31827 10.823 6.32724 11.3875C6.48718 11.4769 6.7128 11.5855 6.88885 11.6235C7.14733 11.5251 7.48946 11.4067 7.7586 11.3424C8.48315 11.0942 9.46138 11.0744 10.1952 11.3026C10.1741 11.3073 10.1511 11.3113 10.1265 11.3148C10.0774 11.3218 10.0218 11.3266 9.96136 11.3297C10.052 11.3251 10.132 11.3167 10.1952 11.3026C11.0412 11.5495 11.6965 12.1649 12.1139 12.9259C12.5256 13.6766 12.6505 14.5704 12.4073 15.3966C12.3539 15.5782 12.303 15.781 12.2155 15.9485C12.0949 16.1797 11.4991 16.903 11.6245 17.1302C11.7334 17.3271 11.9319 17.498 12.0639 17.6837C12.4763 18.264 12.6478 19.0342 12.4716 19.7292C12.2573 20.5741 11.5141 21.3131 10.7837 21.7445C8.44213 23.1275 2.76227 23.6101 0.0100442 23.4795C0.0362373 22.9251 -0.0279653 22.3047 0.015651 21.7632C0.0887813 20.8564 0.0485392 19.9422 0.128487 19.0441C0.352688 16.5262 0.829208 13.5816 2.71134 11.73Z" fill="white"/><path d="M21.7734 9.88595C22.2397 9.87674 22.6518 9.91051 23.063 10.1416C22.6963 10.4787 21.2491 11.9688 21.0452 12.3352C21.5639 12.2905 22.081 12.2282 22.5955 12.1485C23.0275 12.0852 23.5702 11.9847 23.9998 11.9973C24.0043 12.4434 23.9382 12.9045 23.7346 13.3065C23.0401 14.6791 21.501 15.3873 20.0865 15.7693C19.5561 15.9125 18.9281 16.0343 18.4222 16.2121C18.4408 16.2027 17.294 16.6404 17.3058 16.6385C16.9353 16.6978 15.5802 17.6855 15.4224 17.7022L15.3815 17.6639C15.3962 17.3363 15.394 17.0158 15.4366 16.6881C15.8618 13.4177 18.1714 10.0426 21.7734 9.88595Z" fill="white"/><path d="M18.436 0.521012C19.3269 0.437938 20.1555 0.592709 20.8798 1.13765C22.7367 2.53506 22.2582 5.11553 20.9724 6.73595C20.1196 7.81064 19.0846 8.57162 17.6894 8.74848C17.2279 8.79356 15.6534 8.6692 15.4733 8.18653C15.4906 7.98706 15.782 7.75482 15.9377 7.61873C17.4973 6.25571 18.5842 4.23964 17.1376 2.36741C16.9796 2.16293 16.2569 1.51447 16.497 1.28275C16.9697 0.826633 17.7999 0.601802 18.436 0.521012Z" fill="white"/><path d="M3.74042 0.5362C3.92282 0.541297 4.04285 0.618948 4.17074 0.747197C5.05925 1.63811 5.89035 2.21671 7.06617 2.68005C8.14097 3.09185 9.26979 3.34563 10.4174 3.43337C11.7143 3.53336 13.0611 3.42588 14.3571 3.41164C14.3896 3.41128 14.399 3.4615 14.4082 3.48782C14.3403 3.81135 13.6808 4.46953 13.3943 4.69795C12.4093 5.48341 11.09 5.64911 9.86908 5.63774C9.51633 5.63445 8.84492 5.54158 8.4758 5.50315C8.22322 5.4754 8.03348 5.44093 7.7836 5.39076C8.05242 5.78321 8.10589 5.91402 8.46739 6.2504C8.89556 6.64878 10.1436 6.96336 10.4615 7.26146C10.4604 7.41147 10.1094 7.53844 9.98005 7.60027C7.57627 8.74357 5.05798 8.3355 3.69626 5.90669C2.83272 4.36646 2.4167 1.93918 3.74042 0.5362Z" fill="white"/></g><defs><clipPath id="clip0_5988_166"><rect width="24" height="24" fill="white"/></clipPath></defs></svg>