<svg width="24" height="24" viewBox="0 0 24 24" fill="none" xmlns="http://www.w3.org/2000/svg"><path fill-rule="evenodd" clip-rule="evenodd" d="M11.5479 11.5635C13.4871 11.3019 15.2663 12.6916 15.5161 14.6632C15.7658 16.6348 14.391 18.4374 12.4498 18.6833C10.5195 18.9278 8.75795 17.5402 8.50963 15.5797C8.26132 13.6192 9.6197 11.8237 11.5479 11.5635ZM11.9421 13.8568C11.2505 13.8978 10.7232 14.5019 10.7655 15.2045C10.8079 15.9072 11.4039 16.4411 12.0952 16.396C12.7836 16.3512 13.3066 15.7487 13.2645 15.0489C13.2223 14.3492 12.6308 13.816 11.9421 13.8568Z" fill="white"/><path fill-rule="evenodd" clip-rule="evenodd" d="M9.70154 6.2425C10.2569 6.19719 11.2861 6.2292 11.8723 6.22884H13.3568C13.6983 6.22906 14.1339 6.2126 14.4619 6.2789C14.9617 6.37895 15.4316 6.59652 15.8338 6.9141C17.5071 8.21542 18.1228 10.4877 18.9967 12.3088C19.0922 12.5077 19.7252 13.1124 19.9242 13.336C21.6332 15.2572 23.6237 18.4053 21.7324 20.8552C20.0345 22.9481 16.8589 23.5914 14.3263 23.9239C13.592 24.008 12.9033 23.9915 12.1683 23.9986C9.14879 24.0277 5.87773 23.5993 3.3144 21.8493C-0.320687 19.3676 2.24472 15.0914 4.59652 12.7628C4.75048 12.6104 4.92265 12.4301 5.02986 12.2351C6.03403 10.0726 6.96168 6.71027 9.70154 6.2425ZM11.8979 8.10842C11.3644 8.69563 11.3947 9.21519 11.1022 9.92969C9.51859 10.3487 8.38196 11.0044 7.52394 12.4672C7.31746 12.8192 7.19448 13.1206 7.07759 13.52C6.96848 13.8156 6.9948 14.0855 6.71654 14.277C6.42612 14.4767 5.02429 14.6629 5.1077 15.1606C5.17957 15.5893 6.51361 15.7602 6.80781 16.0114C6.92635 16.1126 7.07704 16.8703 7.17888 17.0395C7.64073 18.2497 8.5174 19.2178 9.65164 19.8093C10.1649 20.084 10.6296 20.1366 11.1174 20.3908C11.1206 20.3929 11.124 20.3949 11.1272 20.397C11.3041 20.8686 11.5391 22.0866 12.0869 22.1091C12.6496 21.634 12.6133 20.7752 12.9024 20.3409C14.7709 19.8282 16.0845 18.9184 16.8583 17.0338C16.9922 16.7078 17.0045 16.2057 17.2463 15.9672C17.5469 15.7794 19.6237 15.4317 18.6052 14.7607C18.2466 14.5244 17.5512 14.4364 17.1582 14.1877C17.0127 13.839 16.9697 13.485 16.8225 13.1228C16.295 11.8112 15.2676 10.7724 13.9742 10.2431C13.5975 10.0896 12.9528 10.0589 12.7866 9.66877C12.5888 9.20465 12.5464 8.14836 11.8979 8.10842Z" fill="white"/><path d="M11.1912 0.0249312C12.9326 -0.0853568 14.6111 0.15575 16.1518 1.04003C16.3584 1.15859 17.3567 1.61193 17.1123 1.92574C16.9302 2.15955 16.5862 2.49004 16.3713 2.70765L14.9733 4.12995C14.5583 4.54743 14.5263 4.52532 13.9298 4.51636C13.5931 4.51132 13.2256 4.51178 12.8866 4.51007L10.8879 4.51376C10.5497 4.5158 9.52835 4.57407 9.2859 4.37679C8.90398 4.06574 8.49454 3.58209 8.13173 3.22062C7.75457 2.84487 7.36351 2.45916 6.99761 2.07116C6.90074 1.9657 6.74887 1.77402 6.88459 1.64336C7.04518 1.48882 7.27383 1.3596 7.46487 1.24656C8.58069 0.57555 9.82739 0.160397 11.1176 0.0301323C11.1482 0.0264713 11.1621 0.0265337 11.1912 0.0249312Z" fill="white"/></svg>