<svg width="24" height="24" viewBox="0 0 24 24" fill="none" xmlns="http://www.w3.org/2000/svg"><path d="M16.6331 19.1834C16.7182 19.2067 16.8113 19.1948 16.9007 19.1897C16.9099 19.2564 16.9258 19.3736 16.9472 19.434C17.338 20.5399 17.8684 21.6521 17.8689 22.8431C17.8693 23.5857 17.6814 23.9535 16.8773 23.9964C16.0262 24.04 15.6174 23.6931 15.6372 22.8513C15.6582 21.9586 15.9481 21.1201 16.256 20.2888C16.3932 19.9184 16.5462 19.5685 16.6331 19.1834Z" fill="white"/><path fill-rule="evenodd" clip-rule="evenodd" d="M12.4087 1C12.4557 1.00212 12.6083 1.00692 12.633 1.03422C12.8305 1.2536 13.0048 1.61403 13.1843 1.84325C13.4471 2.17873 13.724 2.51118 14.0226 2.8083C15.1849 3.95428 16.702 4.69581 18.3398 4.91835C19.2037 5.02858 20.1274 5.01172 20.9962 5.02161L20.9997 7.27499C20.9995 7.74881 21.0054 8.21942 20.9737 8.68853C20.8439 10.6009 19.888 12.1928 19.4151 14.0021C19.2816 14.5127 19.3544 15.1568 19.2942 15.6878C19.2061 16.4655 18.9938 18.0045 18.0536 18.2262C17.1319 18.4225 16.8578 16.2027 16.6674 16.0578C16.5651 16.0995 16.2359 16.5187 16.1506 16.6231C15.3589 17.586 14.7107 18.6529 14.2253 19.7924C13.9906 20.3328 13.0211 22.9647 12.5977 23.1275C12.4988 22.9663 12.5345 19.2555 12.5345 18.6979L12.5316 10.8797C11.9609 10.8169 11.1961 10.8438 10.618 10.836C9.43935 10.8201 8.24284 10.8533 7.06534 10.8423C7.23228 11.9183 8.62394 13.1128 9.26589 13.9679C10.3458 15.4064 11.0818 17.3211 10.8034 19.1162C10.6503 18.8124 10.2288 18.3825 10.0019 18.0871C9.67893 17.6735 9.39272 17.2276 9.07146 16.8137C8.52954 16.1154 7.91461 15.4677 7.30378 14.8268C7.16907 14.6855 7.0348 14.5341 6.87751 14.4178C6.01868 15.309 6.7497 16.5036 7.15687 17.3868C7.3668 17.8423 7.51276 18.3883 7.46164 18.8845C7.19501 21.4714 4.06306 21.2057 4.06515 18.6802C3.99712 17.7988 4.75606 16.9346 4.87222 16.1424C4.98843 15.3497 4.55489 13.9695 4.39492 13.1536C4.2693 12.5306 4.17469 11.9019 4.11164 11.2698C4.00755 10.2255 4.11025 9.12296 4.07031 8.07315C4.03233 7.07609 3.95802 6.03539 4.03064 5.03752C4.16024 5.01992 4.29162 5.01692 4.42219 5.01537C5.24122 5.00571 6.11704 5.02938 6.92731 4.89198C8.83352 4.5753 10.5443 3.56309 11.7117 2.06126C11.9828 1.7164 12.1696 1.33102 12.4087 1ZM12.568 5.0504C12.5041 5.51284 12.533 6.54797 12.5332 7.06825L12.5397 10.7861C12.9103 10.762 13.4229 10.7848 13.8116 10.7857L16.3089 10.7877C16.622 10.7877 17.3323 10.8038 17.6243 10.7642C17.7763 10.5952 17.8337 10.5008 17.9247 10.2855C18.3225 9.33972 18.391 8.51629 18.3987 7.51273C16.4934 7.2362 14.8524 6.75087 13.3035 5.5907C13.2016 5.51438 12.6237 5.06765 12.568 5.0504Z" fill="white"/></svg>