<svg width="24" height="24" viewBox="0 0 24 24" fill="none" xmlns="http://www.w3.org/2000/svg"><g clip-path="url(#clip0_5988_21)"><path d="M6.96971 1.74624C7.43033 1.66654 7.83982 1.64016 8.29362 1.72359C7.5134 2.40516 6.51991 4.3213 6.47211 5.39492C6.35119 8.1092 9.20067 11.0189 11.9166 11.387C12.7991 11.5066 14.7792 10.318 15.3599 9.74354C16.4988 8.72454 17.3968 7.25761 17.521 5.74086C17.587 4.93311 17.1089 3.78297 16.6967 3.09209C16.6269 2.97525 16.3943 2.61325 16.3107 2.46666L16.2851 2.41829C16.1639 2.25132 15.7248 1.79886 15.7242 1.70507C15.8739 1.63605 16.5062 1.86614 16.6791 1.924C18.6904 2.60853 20.2554 4.07364 20.7736 6.10858C20.8335 6.34408 20.8163 6.81176 21.0386 6.96014C21.1381 6.93239 21.1905 6.84279 21.2396 6.74839C21.7561 5.75636 21.911 4.59656 22.0283 3.50469C22.0622 3.18804 22.1385 2.86313 22.1745 2.53571C23.5202 4.09851 23.9766 5.90842 23.9969 7.90145C23.9994 8.15075 24.0079 8.62084 23.9786 8.86127C23.7575 10.6877 22.5397 12.5302 21.1084 13.702C20.182 14.4605 19.026 15.1695 17.7691 15.0925C17.701 15.0883 17.6469 15.0808 17.5932 15.0383C17.5107 14.7427 18.609 13.1857 17.5459 12.6868C16.4837 12.1593 15.4727 13.1777 14.9798 14.0194C14.1212 15.4861 14.3291 17.4614 15.9962 18.3105C17.4486 19.0502 19.1616 18.9218 20.7528 18.812C21.0378 18.7923 21.8805 18.5961 22.0936 18.6649C22.1118 18.7516 22.0536 18.8201 22.0054 18.8937C20.0154 21.9246 15.8038 21.738 12.649 20.9334C12.1812 20.814 11.7254 20.6719 11.2551 20.5617C11.6601 21.5343 12.8634 22.3903 13.8259 22.8195C14.0268 22.9091 14.4831 23.0163 14.6083 23.1695L14.6079 23.2201C14.4758 23.2841 14.1713 23.3701 14.0115 23.4277C11.8435 24.2075 9.12476 24.1611 6.93976 23.4664C5.13712 22.8934 2.99437 21.6824 2.10117 20.0053C1.8222 19.4816 1.80424 18.9798 2.00075 18.4262C2.40013 17.2989 3.18181 16.3287 4.04606 15.497C4.13 15.4162 4.42805 15.0979 4.49615 15.082C4.66511 15.0429 5.26066 15.6702 5.37943 15.775C6.6309 16.8796 8.25556 17.7 9.97419 17.7354C10.1208 17.7384 10.5698 17.7434 10.6918 17.6761L10.703 17.6306C10.6002 17.5015 10.2783 17.4142 10.1199 17.3295C9.75505 17.1344 9.3861 16.9137 9.04227 16.6869C7.81872 15.8714 6.76249 14.8429 5.92724 13.6541C5.55371 13.1304 5.22594 12.6141 4.88319 12.0699C4.74589 11.8519 3.73846 9.78154 3.60363 9.80279C2.03464 10.0505 1.32856 11.148 0.791436 12.4655C0.668594 11.7963 0.458629 11.4538 0.286862 10.8482C-0.0463155 9.67335 -0.152835 8.05873 0.316132 6.90829C0.485247 6.49353 0.832744 5.93276 1.11453 5.55918C2.52795 3.68529 4.56773 2.16189 6.96971 1.74624Z" fill="white"/><path d="M11.8684 0C11.961 0.00352455 12.0987 -0.00421622 12.1526 0.0779884C12.8765 1.18309 13.5383 2.32852 14.2555 3.4389C14.3966 3.65733 14.5209 3.86793 14.652 4.09635C14.7887 4.33446 14.6841 4.49407 14.571 4.72091C14.3241 5.14503 14.0556 5.56287 13.7946 5.98005L12.6738 7.78424C12.6087 7.88805 12.163 8.67922 12.1469 8.69287L12.0967 8.66695C12.0291 8.66456 11.9355 8.68586 11.8666 8.69832C11.861 8.69003 11.3421 7.8335 11.3001 7.76747C10.6634 6.76412 10.0348 5.75134 9.41175 4.73986C9.34109 4.62516 9.2746 4.45748 9.2332 4.32945C9.2975 4.075 11.6189 0.32082 11.8684 0Z" fill="white"/></g><defs><clipPath id="clip0_5988_21"><rect width="24" height="24" fill="white"/></clipPath></defs></svg>