<svg width="24" height="24" viewBox="0 0 24 24" fill="none" xmlns="http://www.w3.org/2000/svg"><g clip-path="url(#clip0_5988_66)"><path fill-rule="evenodd" clip-rule="evenodd" d="M8.74138 1.43213C9.83905 0.119689 11.8349 -0.321894 13.4437 0.237175C14.2147 0.498844 14.8902 0.986746 15.3832 1.63783C15.5409 1.84813 15.7384 2.17769 15.9173 2.34183C16.7243 1.92921 17.1497 1.69701 18.0881 1.73355C18.5201 1.75037 18.7157 1.75332 19.1447 1.89475C19.9815 2.17567 20.6741 2.77742 21.0721 3.56912C21.1788 3.78192 21.2762 4.07404 21.3775 4.26199C21.9982 4.35054 22.4967 4.26677 23.0484 4.63897C24.7383 5.77883 24.0571 8.58022 21.9536 8.64364C21.2376 8.69974 20.7673 8.3527 20.1815 8.02549C20.1086 7.98484 19.4785 8.34892 19.3645 8.40078C18.7994 8.65774 17.6401 8.73549 17.0576 8.56346C16.7338 10.1152 16.5634 10.4499 15.8 11.824C14.978 11.5424 13.7267 10.7023 13.0911 10.0859C13.024 10.0202 13.498 8.70836 13.5221 8.43101C12.4616 8.67769 11.5406 8.75138 10.4722 8.42954C10.7887 10.0957 11.5651 11.1331 12.9546 12.0757C14.4568 13.0949 16.2082 13.8404 17.2737 15.385C17.776 16.1132 18.1714 16.8857 18.4096 17.7398C18.5947 18.4036 18.6127 19.1777 19.0199 19.749C19.3366 20.2033 20.2654 20.4595 20.4737 20.6744C20.4927 20.7862 20.4027 20.9284 20.3336 21.0174C19.5095 22.0811 18.4198 22.7004 17.0758 22.583C16.8711 22.5671 16.5298 22.5023 16.3373 22.4363C14.8405 21.9231 13.0524 22.665 12.1844 23.9703C12.1524 23.9755 11.9095 24.0134 11.8938 23.995C11.1394 23.0843 10.1528 22.3121 8.92652 22.2762C8.61443 22.2669 8.3035 22.3227 7.99267 22.3723C7.67453 22.4232 7.34524 22.5713 7.0252 22.5895L7.01163 22.5904C5.98718 22.6355 5.33955 22.4675 4.51146 21.8539C4.27727 21.6858 3.46175 20.9241 3.53252 20.6526C3.88805 20.5718 4.48074 20.6125 4.86275 20.5852C5.36447 20.5493 5.86087 20.4908 6.36165 20.4614C7.79227 20.2656 9.17842 20.0513 10.5285 19.5053C11.5542 19.0904 12.4902 18.6126 13.183 17.7287C13.8202 16.9156 13.8972 15.7612 12.9644 15.1402C12.722 14.9789 12.2972 14.6559 11.9585 14.7028C11.1501 14.9389 10.254 15.6905 10.3355 16.6221C10.3588 16.8892 10.673 17.4453 10.6118 17.6397C9.95238 18.2312 7.94414 18.5579 7.05087 18.7303C6.54382 18.8282 5.88839 18.8194 5.39209 18.9316C5.46563 17.335 6.46364 15.4264 7.62676 14.3369C7.9714 14.0142 8.36326 13.7486 8.75077 13.4824C8.9002 13.3798 9.29167 13.1744 9.36256 13.0291C9.34715 12.9516 9.25237 12.8504 9.19161 12.7965C7.87622 11.6287 7.25791 10.3227 6.9582 8.56996C6.11832 8.74916 5.04114 8.62304 4.28207 8.22363C3.55971 7.84353 3.85261 8.05925 3.17621 8.41716C2.50845 8.77047 1.60286 8.70794 0.96889 8.29269C0.491438 7.9827 0.1588 7.49173 0.0465103 6.93149C-0.187779 5.79712 0.482256 4.61477 1.6243 4.35435C1.88742 4.29436 2.32372 4.31621 2.60596 4.30796C2.86768 3.69344 3.00663 3.3452 3.40665 2.86112C4.31397 1.76324 6.08272 1.42852 7.36355 1.97955C8.50866 2.4722 7.88866 2.45169 8.74138 1.43213Z" fill="white"/></g><defs><clipPath id="clip0_5988_66"><rect width="24" height="24" fill="white"/></clipPath></defs></svg>