<svg width="24" height="24" viewBox="0 0 24 24" fill="none" xmlns="http://www.w3.org/2000/svg"><path fill-rule="evenodd" clip-rule="evenodd" d="M19.8208 6.61137C19.9039 6.86318 20.0326 7.09722 20.2001 7.30187L24 11.9461L20.2506 16.2295C20.0502 16.4585 19.9004 16.728 19.811 17.0199L18.1333 22.5L12.4575 21.3942C12.1905 21.3422 11.9161 21.3422 11.649 21.3942L5.9733 22.5L4.27561 17.6606C4.199 17.4422 4.08802 17.2377 3.94687 17.055L0 11.9461L3.56454 7.21614C3.67655 7.06751 3.76903 6.90486 3.83947 6.73216L5.9733 1.5L11.649 2.60578C11.9161 2.65781 12.1905 2.65781 12.4575 2.60578L18.1333 1.5L19.8208 6.61137ZM16.1739 5.00171C15.6607 4.68791 14.2353 5.00987 13.5783 4.89917C14.1909 7.04401 13.6915 9.35363 12.0671 10.9203C11.9062 8.5585 10.7523 5.8019 8.39205 4.89855C8.42623 5.69991 8.30792 6.52161 8.4426 7.31991C8.5987 8.24871 9.20366 8.62047 9.46997 9.41417C8.13084 9.4761 6.958 8.88304 5.80048 8.34018C5.03678 10.6878 3.08751 11.1185 4.96834 13.5748C5.61726 14.4229 5.48218 13.6611 5.92704 13.3178C7.25346 12.2946 9.64872 11.4802 11.196 12.3201C9.09364 13.6755 7.90751 15.7408 7.74375 18.2348C9.57206 18.0103 10.1946 16.982 10.9659 15.5306C11.0516 15.3691 11.0245 14.8663 11.4132 15.2249C11.804 15.5855 12.1911 18.0367 12.0636 18.6669C12.9451 18.4963 15.553 18.9416 16.1739 18.5613C16.2943 18.4871 17.2811 16.7579 17.252 16.6264C16.4797 16.1663 15.8588 16.1379 15.0854 15.5509C14.0131 14.7374 13.2712 13.4098 12.7131 12.2139C14.4701 13.0985 18.0203 13.616 19.6288 12.3195C19.9211 12.0839 19.864 12.1163 19.6186 11.8995C18.6723 11.0636 16.7281 10.3562 15.5246 10.9209C15.1314 10.441 17.5344 8.36966 18.1125 8.23497C17.6278 7.73358 16.5611 5.23885 16.1739 5.00171Z" fill="white"/></svg>