<svg width="24" height="24" viewBox="0 0 24 24" fill="none" xmlns="http://www.w3.org/2000/svg"><g clip-path="url(#clip0_5988_31)"><path fill-rule="evenodd" clip-rule="evenodd" d="M17.9031 4.64447C17.9583 4.64594 18.1269 4.65227 18.152 4.68656C18.7436 5.4961 19.4419 6.60943 19.9808 7.42688L22.5892 11.3862C23.014 12.0302 23.4674 12.665 23.8683 13.3224C23.9374 13.4357 24.0011 13.5791 24 13.7131C23.9987 13.8864 23.1578 15.1912 23.0047 15.4433L19.1987 21.7355C18.9349 22.1752 18.6739 22.617 18.3987 23.0503C18.317 23.1789 18.2534 23.4107 18.1715 23.4918L18.1275 23.4726C17.9241 23.4397 18.0145 23.524 17.892 23.493C17.4125 22.607 16.788 21.6316 16.2589 20.7559L13.3659 15.9706C13.1482 15.6111 12.1103 14.0154 12.0551 13.74C12.0541 13.735 12.0533 13.7299 12.0522 13.7248C12.0503 13.7153 12.0478 13.7059 12.0461 13.6963C12.0229 13.5637 12.1656 13.3605 12.2342 13.2469C12.5882 12.6604 12.9907 12.0924 13.369 11.52L17.11 5.8487C17.3346 5.50788 17.669 4.95572 17.9031 4.64447ZM14.1416 13.6981C14.2613 14.1033 17.8722 19.9891 17.9237 20.0187C17.9864 19.9933 17.9669 19.9998 18.004 19.9184C18.0448 19.6341 18.0329 19.2618 18.0323 18.9683L18.0294 17.6107C18.0282 16.3489 18.0596 14.9674 18.0262 13.7163C17.2454 13.7276 16.4311 13.6892 15.6398 13.705C15.3492 13.7108 14.3781 13.7285 14.1416 13.6981Z" fill="white"/><path fill-rule="evenodd" clip-rule="evenodd" d="M5.88172 0.5C5.93167 0.50212 6.09547 0.507098 6.11744 0.536829C6.59662 1.18596 7.15244 2.08016 7.5865 2.73787L10.4013 7.01428C10.8604 7.7108 11.347 8.39634 11.7863 9.10422C11.861 9.22471 11.9561 9.37069 11.9606 9.5146C11.9682 9.75955 10.8793 11.4472 10.6643 11.8047L7.08759 17.7036C6.82267 18.1469 6.4022 18.8321 6.15749 19.3067C6.14143 19.3376 6.04106 19.321 5.99392 19.318C5.93818 19.3644 5.93507 19.371 5.86536 19.3844C5.70116 19.006 5.4967 18.7145 5.28864 18.3687C4.95477 17.8107 4.61781 17.2543 4.2778 16.6997L1.27403 11.733L0.492205 10.4456C0.334091 10.185 0.110919 9.8422 0 9.57065C0.0022291 9.4461 0.0334013 9.34423 0.102761 9.23838C0.532564 8.58242 0.966969 7.92205 1.39881 7.26803L4.0037 3.3249C4.42819 2.67241 4.85687 2.02237 5.28969 1.37499C5.43053 1.16136 5.73416 0.655328 5.88172 0.5ZM3.35337 9.56074C3.00961 9.56221 2.42705 9.59077 2.10996 9.56337C2.17374 9.90973 4.48669 13.5357 4.78238 14.0862C4.92862 14.3586 5.42662 15.1329 5.59755 15.4414C5.63935 15.5169 5.77872 15.6848 5.84502 15.75L5.89828 15.7628L5.92198 15.7464C5.98018 15.1765 5.94284 14.1511 5.94316 13.5395C5.94905 12.2192 5.94666 10.8988 5.93603 9.57854C5.07533 9.5584 4.21429 9.55245 3.35337 9.56074Z" fill="white"/></g><defs><clipPath id="clip0_5988_31"><rect width="24" height="24" fill="white"/></clipPath></defs></svg>