<svg width="24" height="24" viewBox="0 0 24 24" fill="none" xmlns="http://www.w3.org/2000/svg"><path d="M2.58111 1.5139C3.49475 1.44091 4.79298 1.66535 5.66474 1.95449C8.81595 2.9996 10.581 5.48326 11.9953 8.27021C13.1512 6.08071 14.4141 4.01117 16.6676 2.69429C17.9369 1.95242 19.8049 1.41692 21.3373 1.51998C21.4115 1.52499 21.4965 1.63206 21.5227 1.69696C22.01 2.90332 21.8103 4.47339 21.4399 5.69175C22.1524 5.85489 23.1634 6.43123 23.6009 7.03142C23.9991 7.57777 24.0645 8.17445 23.9486 8.82903C23.5083 11.3147 20.7578 12.9727 18.6755 14.0851C17.8851 14.5073 16.9762 14.8869 16.2629 15.3789C15.5 15.9351 14.8279 16.6284 14.6436 17.5753C14.4625 18.5064 15.2209 19.6575 16.1574 19.877C16.6193 19.9853 16.9574 19.5274 16.9935 19.093C17.0521 18.3898 16.6747 17.9252 16.2501 17.4111C16.3343 17.3788 16.4227 17.3326 16.5056 17.295C17.8607 16.6799 18.9065 17.4146 19.4768 18.6283C20.0326 20.0415 19.735 21.6824 18.1675 22.274C17.2096 22.6355 15.9897 22.5419 15.0612 22.1455C13.7611 21.5905 12.8368 20.4286 12.3261 19.1614C12.1827 18.8104 12.1103 18.4747 11.9741 18.1328C11.7081 19.8023 10.3625 21.6347 8.7191 22.2326C7.26492 22.7618 5.05582 22.5812 4.43599 20.9405C3.96025 19.6355 4.50414 17.7275 5.90184 17.1874C6.55625 16.9344 7.12607 17.1336 7.71982 17.4053C7.31527 18.0009 6.85715 18.4522 7.03216 19.2571C7.07454 19.452 7.19616 19.696 7.38133 19.795C8.04123 20.1475 8.80353 19.3438 9.10441 18.8416C9.37239 18.3973 9.44762 17.8663 9.3132 17.3673C9.23187 17.0666 9.10869 16.8535 8.93982 16.5955C8.1941 15.4559 7.1143 15.0009 5.95821 14.4181C5.43356 14.1522 4.91493 13.875 4.40269 13.5867C2.71037 12.618 0.653899 11.1462 0.126603 9.19809C-0.0502326 8.54477 -0.0795555 7.79229 0.286894 7.1955C0.749744 6.44176 1.69911 5.91554 2.5443 5.7019C2.24106 4.52348 2.02783 3.31581 2.3308 2.11074C2.37198 1.94705 2.4653 1.63513 2.58111 1.5139ZM6.90638 9.0706C6.34527 9.08591 5.78391 9.09241 5.22257 9.0901C4.96935 9.09115 4.53761 9.10782 4.30185 9.08517C4.45529 9.96745 4.93146 10.4192 5.67863 10.9205C7.83634 12.3678 10.8808 13.4632 11.9926 15.9964C12.1879 15.6319 12.3451 15.326 12.5935 14.9913C13.8687 13.2731 15.954 12.3704 17.7468 11.2791C18.3692 10.9002 19.001 10.4766 19.4222 9.88106C19.6309 9.51263 19.5962 9.47593 19.7077 9.09975C18.834 9.08654 17.9602 9.07993 17.0864 9.08014C17.6529 8.34451 18.3877 6.81348 18.6539 5.91119C18.7466 5.59707 18.8022 5.21145 18.8476 4.88347C18.5123 4.95597 18.1806 5.03337 17.8635 5.18794C15.7089 6.23794 14.0737 8.43494 12.7704 10.3505C12.5132 10.7284 12.2675 11.1937 11.9983 11.5297C11.9161 11.4915 11.4768 10.7406 11.3869 10.6047C10.07 8.61473 8.41255 6.37063 6.23169 5.23541C5.88752 5.05626 5.52926 4.97726 5.16697 4.87671C5.21321 6.03675 5.83367 7.26699 6.40407 8.27285C6.52476 8.48569 6.75777 8.88796 6.90638 9.0706Z" fill="white"/></svg>