<svg width="24" height="24" viewBox="0 0 24 24" fill="none" xmlns="http://www.w3.org/2000/svg"><path fill-rule="evenodd" clip-rule="evenodd" d="M10.7528 0.293245C11.296 -0.0354594 12.1929 -0.0717912 12.7971 0.104582C13.4222 0.28589 13.9481 0.717051 14.2543 1.29945C14.5761 1.89932 14.6627 2.69869 14.4641 3.35113C14.1992 4.22143 13.6295 4.67121 12.88 5.07938C12.8419 5.38374 12.8561 5.86732 12.856 6.1888L12.8547 10.6459C12.8549 11.1797 12.8022 12.1288 12.9572 12.6111C13.033 12.4214 13.0901 12.1479 13.1633 11.9358L13.8546 9.99005C14.3713 8.53859 14.7158 7.46595 15.9547 6.43136C16.3145 6.13085 16.5891 5.94889 17.0102 5.73041C17.1509 5.63683 17.7863 5.43106 17.8644 5.32634C18.2238 4.84437 18.2887 4.44579 18.7764 4.01782C19.7826 3.13494 21.4907 3.23741 22.3639 4.25036C23.3062 5.34392 23.1908 7.07872 22.0891 8.00877C21.5152 8.49678 20.9346 8.65634 20.1929 8.58458C19.1705 8.49618 18.7362 7.98184 18.1144 7.23866C17.8552 7.33601 17.6787 7.41422 17.4435 7.56689C16.9749 7.87665 16.5765 8.28425 16.2752 8.76259C15.8875 9.38051 15.5451 10.5393 15.272 11.2585C15.1322 11.6267 14.8175 12.4908 14.7425 12.8396C16.039 12.3211 17.1536 11.9759 18.5699 11.9866C19.8114 11.9959 21.0794 12.2046 21.734 13.438C22.4211 14.733 22.2047 16.4263 21.3178 17.57C21.2335 17.6788 21.122 17.8755 21.0137 17.9586L20.9761 18.0131C20.5639 18.5897 19.4012 19.5746 18.7118 19.6843C18.4328 19.7288 18.2241 19.7257 17.9601 19.6198C17.8285 19.2587 17.7983 18.985 17.971 18.6205L18.0004 18.5014C18.0751 18.226 18.1857 17.9656 18.2115 17.669C18.3675 15.8695 15.7603 16.4231 14.6244 16.3294C14.8529 17.084 15.0938 17.8306 15.341 18.5793C15.5037 19.0722 15.7104 19.5862 15.7999 20.0978C15.8542 20.408 15.8663 20.7723 15.7999 21.0812C15.729 21.4111 15.5683 21.7381 15.3539 21.9963C15.0205 22.3975 13.7446 23.303 13.2596 23.6174C12.694 23.9841 12.117 24.0842 11.4552 23.9306C10.8371 23.7871 8.81983 22.3001 8.47971 21.749C8.26751 21.3983 8.15711 20.9937 8.16124 20.5819C8.17281 19.9801 8.40334 19.4432 8.57393 18.8829C8.8253 18.0572 9.18755 17.1695 9.37648 16.3342C8.41709 16.3754 6.68298 16.0826 5.95768 16.8816C5.39214 17.5046 6.28566 18.6968 6.11548 19.3795C6.08502 19.5017 6.01705 19.5805 5.94246 19.6783C4.50349 19.8711 3.04849 18.2149 2.37266 17.078C1.83908 16.1803 1.74872 15.1149 2.01058 14.1055C2.6846 11.5076 5.8661 11.7816 7.85676 12.3378C8.04032 12.3894 9.13757 12.8156 9.21766 12.7667C9.23882 12.5712 8.98873 11.9399 8.90475 11.7246C8.19277 9.89867 7.94368 7.99237 5.8791 7.24117C5.53506 7.66355 5.23753 8.08302 4.74368 8.3299C3.52846 8.9399 1.8887 8.49497 1.28723 7.21819C0.257977 5.0333 2.15531 2.81049 4.43056 3.55671C4.99677 3.74241 5.58346 4.21001 5.79989 4.77163C6.07836 5.49415 6.56446 5.50066 7.16305 5.82234C7.54844 6.02695 7.94169 6.3164 8.26308 6.60728C9.89755 8.08658 10.1269 10.4446 11.0476 12.3522L11.0774 12.3323C11.1591 12.1078 11.1204 5.84345 11.0916 5.07562C11.0203 5.01409 10.7935 4.86658 10.7051 4.81008C10.2956 4.54825 10.0263 4.2879 9.7795 3.85861C9.43496 3.25928 9.41293 2.4542 9.5746 1.79168C9.7261 1.17081 10.2194 0.616032 10.7528 0.293245Z" fill="white"/></svg>