<svg width="24" height="24" viewBox="0 0 24 24" fill="none" xmlns="http://www.w3.org/2000/svg"><g clip-path="url(#clip0_5988_81)"><path fill-rule="evenodd" clip-rule="evenodd" d="M19.8126 0.500595C20.4508 0.486548 21.1638 0.721441 21.6034 1.17005C22.1865 1.76511 22.3389 2.32855 22.3519 3.12266C22.3579 3.36822 22.3473 3.61401 22.3206 3.85818C22.5756 3.69436 23.6904 2.9323 23.9127 2.89018C24.0369 2.94278 23.9936 3.31365 23.9889 3.44203C23.959 4.24916 23.7865 5.06509 23.4809 5.81037C22.9109 7.19944 21.3803 8.34901 19.956 8.74339C20.3001 8.88912 20.72 8.99002 21.0814 9.11051C21.9812 9.40872 22.7885 9.93786 23.4239 10.6459C23.568 10.8085 24.0627 11.318 23.9217 11.5281C23.5227 12.122 22.7551 12.5903 22.0989 12.8359C21.8487 12.9286 21.5926 13.0051 21.3325 13.0648C21.16 13.1058 20.8475 13.161 20.7009 13.2324C20.6708 13.3609 20.8859 13.8287 20.9458 13.9827C21.6256 15.7314 21.6413 18.4772 20.5859 20.1062C19.1277 20.2019 17.7886 20.0726 16.5234 19.272C16.1047 19.0071 15.8568 18.7943 15.4727 18.4972C14.9612 20.5345 14.2087 22.2381 12.3623 23.3872C11.9635 23.6354 11.7057 23.4295 11.3594 23.1973C10.5542 22.6578 9.9252 21.9027 9.44792 21.061C9.21914 20.6499 9.03006 20.2177 8.88312 19.7702C8.81177 19.5583 8.5761 18.6219 8.48821 18.538C8.23986 18.631 7.64435 19.2465 7.2793 19.4004C6.97468 19.5286 6.70843 19.7007 6.3555 19.8207C5.62084 20.0706 4.11862 20.2794 3.37642 20.044C3.24778 19.8565 3.10874 19.5093 3.02597 19.2954C2.35807 17.5691 2.43796 15.6067 3.08358 13.887C3.1555 13.6954 3.28373 13.3962 3.32361 13.2015C2.28298 13.0481 0.845692 12.5197 0.155218 11.6617C0.0988669 11.5916 0.0289742 11.4486 0.0577454 11.3667C0.238472 10.8526 1.19892 10.0144 1.5931 9.74925C1.88735 9.55026 2.20159 9.38294 2.53047 9.25C2.77692 9.14998 3.02215 9.0687 3.2754 8.98975C3.43523 8.93995 3.81004 8.89377 3.91325 8.77431C3.86931 8.68996 3.49632 8.53296 3.39103 8.48861C1.63965 7.75071 0.382387 6.3675 0.115561 4.43275C0.080401 4.17778 -0.0727166 3.07434 0.0418825 2.90596C0.219724 2.86802 1.39846 3.68946 1.64194 3.84324C1.61268 3.122 1.56318 2.55624 1.87926 1.88958C2.64914 0.265826 4.5185 0.20868 5.91217 0.996901L5.82514 1.25631C5.42739 1.4601 4.88633 2.12334 4.78779 2.5281C4.24522 4.7574 6.52538 4.03902 7.62703 3.46917C7.8582 3.3496 8.39178 3.3115 8.65039 3.29034C9.66959 3.22022 10.4858 3.75413 11.3594 4.18975C11.6106 4.31503 11.907 4.5138 12.1901 4.3974C12.8586 4.12249 13.4739 3.70423 14.155 3.45823C14.5709 3.31025 15.0354 3.27528 15.4704 3.29329C16.3813 3.3166 17.0459 3.87232 17.8826 4.02544C17.9583 4.0348 18.0343 4.04204 18.1105 4.04711C18.84 4.0913 19.2653 3.82881 19.3096 3.05407L19.2833 2.87251C19.1438 2.01454 18.8689 1.87821 18.2109 1.22854C18.138 1.15667 18.0479 1.05044 18.1401 0.977755C18.5292 0.671317 19.3593 0.510592 19.8126 0.500595ZM13.7457 8.89318C13.7492 9.30413 13.7337 10.2736 13.7768 10.6491C13.879 11.5395 14.4856 12.713 14.7839 13.5592C14.87 13.8035 15.0967 14.1812 14.8832 14.3502C14.5875 14.5844 12.2662 16.1967 12.0434 16.242C11.5809 16.1667 9.54525 14.6606 9.04717 14.2747C8.84832 14.1198 10.069 11.6015 10.1094 11.1965C10.3145 10.3659 10.146 9.65105 10.2701 8.9117C9.3874 8.9288 8.47848 8.91332 7.5928 8.91569C7.16142 8.91684 6.42941 8.94948 6.03824 8.91885C5.99355 9.47278 6.07982 10.2952 6.45756 10.729C6.85575 11.1891 7.50964 11.3424 8.08851 11.3829C8.19107 11.3901 8.48322 11.3942 8.52077 11.4633C8.59252 11.5954 8.24071 12.2477 8.17659 12.3633C7.86682 13.0847 7.0718 14.1242 7.31854 14.9286C7.41882 15.2556 8.00694 15.5958 8.29577 15.7882L9.42892 16.5456L10.9165 17.5464C11.1166 17.6811 11.8384 18.1991 12.045 18.1999C12.2843 18.0945 12.6804 17.8133 12.9083 17.6598L14.2648 16.7457L15.6263 15.8326C16.4894 15.2534 17.0331 15.012 16.5643 13.8733C16.3912 13.453 15.4442 11.7873 15.443 11.4805C15.5212 11.3518 15.9353 11.3907 16.1038 11.3707C16.6675 11.3037 17.2377 11.1192 17.5903 10.6409C17.8945 10.2283 17.994 9.43762 17.983 8.92874C17.0644 8.91549 16.1458 8.91131 15.2272 8.91632C14.9558 8.91684 13.9393 8.93819 13.7457 8.89318Z" fill="white"/></g><defs><clipPath id="clip0_5988_81"><rect width="24" height="24" fill="white"/></clipPath></defs></svg>