<svg width="24" height="24" viewBox="0 0 24 24" fill="none" xmlns="http://www.w3.org/2000/svg"><g clip-path="url(#clip0_5988_86)"><path d="M16.601 0C16.7327 0.0488387 18.7549 2.19736 19.1463 2.52725C19.48 2.14502 19.9864 1.6664 20.3472 1.29121C20.6434 0.983286 21.1772 0.418936 21.4844 0.166769C21.7883 0.417857 22.21 0.868953 22.4997 1.16377C22.8004 1.46978 23.2292 1.88286 23.5 2.20368C22.7251 3.0118 21.9227 3.79403 21.1491 4.60689C21.7957 5.17675 22.5835 6.07696 23.2321 6.70472L19.0721 6.72331C18.6315 7.10318 17.8598 7.93468 17.4321 8.3689L14.2211 11.6299C13.8173 12.0399 13.0505 12.9031 12.6368 13.1952C11.4735 14.0166 9.9519 12.7333 10.5518 11.3561C10.7897 10.8096 12.8551 9.06892 12.8508 8.82155C12.7289 8.71921 12.287 8.68885 12.1209 8.67802C8.70121 8.45581 6.81207 12.4356 9.09303 15.0377C9.73863 15.7718 10.6466 16.2129 11.6146 16.263C13.1706 16.3471 14.5423 15.5241 15.2298 14.0815C15.4014 13.8145 15.4901 13.0369 15.6778 12.8328C16.4233 12.0231 17.3286 11.0773 18.1328 10.34L18.1506 10.3936C18.6926 12.0714 18.5601 13.8987 17.7821 15.4779C16.982 17.0873 15.5863 18.3091 13.9008 18.8755C12.2332 19.4177 10.4227 19.2748 8.8578 18.4771C7.28921 17.6712 6.09884 16.2672 5.54706 14.5724C5.00722 12.8534 5.15326 10.9877 5.95377 9.37685C6.74526 7.79405 8.12756 6.59866 9.79248 6.05718C11.6786 5.44694 13.3986 5.70049 15.1291 6.60676C15.53 6.15362 16.0151 5.71536 16.4308 5.25511C16.2264 5.09108 15.7905 4.85084 15.5564 4.73588C13.3599 3.65677 11.1633 3.6136 8.89322 4.39219C8.33513 4.5868 7.61677 4.97756 7.13526 5.30731C5.25822 6.58229 3.95905 8.56432 3.52531 10.8147C3.08973 13.0656 3.56241 15.3997 4.83731 17.2934C6.09213 19.1712 8.02426 20.4721 10.2161 20.915C12.4194 21.3535 14.7038 20.8822 16.5639 19.6054C18.4465 18.3243 19.749 16.3347 20.1834 14.0763C20.4565 12.6218 20.3536 11.1203 19.885 9.71823C19.753 9.32133 19.6135 8.95045 19.3817 8.60305C20.1222 8.58833 21.6757 8.54564 22.4502 8.64139C22.6428 8.66519 22.8726 9.74473 22.9378 10.0453C23.4271 12.2965 23.2336 14.6454 22.3826 16.7828C21.233 19.6544 18.9996 21.9397 16.1803 23.1289C13.4254 24.2826 10.3344 24.2906 7.57372 23.1513C4.75787 21.9862 2.51794 19.7258 1.35298 16.8739C0.217809 14.053 0.215601 10.8931 1.34681 8.0706C2.4875 5.23692 4.69572 2.98332 7.48061 1.81074C9.75611 0.854744 12.2759 0.674702 14.6609 1.29765C15.3719 1.48594 15.8967 1.69605 16.5754 1.98075C16.5757 1.45947 16.5501 0.477955 16.601 0Z" fill="white"/></g><defs><clipPath id="clip0_5988_86"><rect width="24" height="24" fill="white"/></clipPath></defs></svg>