<svg width="24" height="24" viewBox="0 0 24 24" fill="none" xmlns="http://www.w3.org/2000/svg"><path d="M11.1035 9.75375C11.2196 9.78487 13.3832 11.2578 13.6221 11.4698C13.6276 11.4747 13.6786 11.5334 13.6796 11.5383C13.7519 12.0023 13.7143 12.8516 13.7107 13.3013C15.1664 13.3148 16.6604 13.2813 18.1106 13.3172C17.842 13.6852 17.5134 14.6736 17.2469 15.0041L17.2354 15.0181C17.1793 15.0879 17.0814 15.1268 16.9961 15.146C16.0091 15.3673 14.9782 15.6657 14.2548 16.4321C13.8069 16.9066 13.6973 17.4786 13.7333 18.1254C13.8472 20.1726 14.8618 22.5724 16.3629 23.9832C14.9197 23.9975 13.4763 24.0021 12.033 23.9965C10.5325 24.0041 9.03206 23.9992 7.5317 23.982C8.26973 23.4836 9.33557 21.7416 9.66339 21.1443C11.0061 18.6974 9.44111 17.2746 7.59666 15.9399C7.51591 15.8815 6.86619 13.7605 6.71826 13.2911C8.18061 13.8674 9.63819 14.4563 11.0908 15.0579C11.1138 13.3063 11.0581 11.4977 11.1035 9.75375Z" fill="white"/><path d="M12.0082 0C12.0247 0.0117442 12.6503 1.23058 12.72 1.35884C12.9941 1.85946 13.2813 2.35258 13.5812 2.83752C14.646 4.53332 15.6504 5.81173 17.1959 7.05214C17.223 5.89655 17.157 4.61634 17.2187 3.47647C17.3789 3.74103 18.0569 4.45001 18.2943 4.73156C19.7858 6.50053 21.4441 7.89093 22.1776 10.1805C22.7178 11.8444 22.5748 13.6604 21.7813 15.215C21.1524 16.4696 20.0767 17.7219 18.8495 18.3957C18.6208 18.5213 18.3293 18.6162 18.0826 18.6976C18.4677 18.0808 18.8249 17.2319 19.0894 16.5528C19.8701 14.5482 20.192 11.7059 19.0099 9.8047C18.6795 10.0329 17.3506 11.4743 17.2051 11.5021C17.0423 11.4392 12.6928 6.95208 12.1936 6.44307L11.969 6.22947C11.4348 6.79373 7.77432 11.4298 7.6021 11.4922C7.45767 11.4448 6.11682 10.0326 5.8718 9.7896C5.36112 10.4311 4.84234 11.9742 4.69413 12.7918C4.29442 14.9966 4.68194 16.8103 5.88735 18.6662C5.12877 18.511 4.5115 18.0433 3.95759 17.539C0.955098 14.8055 0.698576 10.7239 3.21656 7.5655C3.6644 7.00374 4.13395 6.47738 4.60957 5.93373L6.72827 3.49875L6.73178 5.70003C6.73206 6.12454 6.72016 6.63799 6.74808 7.05388C6.8515 6.95693 6.9619 6.86435 7.07056 6.77335C8.56156 5.52464 9.75764 3.8683 10.7617 2.20824C11.033 1.75543 11.2925 1.29526 11.5396 0.828213C11.6675 0.591509 11.8568 0.207767 12.0082 0Z" fill="white"/></svg>