<svg width="24" height="24" viewBox="0 0 24 24" fill="none" xmlns="http://www.w3.org/2000/svg"><g clip-path="url(#clip0_5988_156)"><path d="M11.4898 0.0248749C12.7356 -0.0952168 14.6945 0.236267 15.8736 0.659222C16.093 0.737923 16.4604 0.861103 16.6359 0.994383C16.3975 0.961456 16.3065 0.942283 16.0588 0.950234C14.227 1.00117 12.4918 1.78102 11.2391 3.11622C10.0158 4.44801 9.36828 6.20794 9.43722 8.01367C9.49502 9.83906 10.2858 11.5646 11.6315 12.8018C12.9462 14.0026 14.6793 14.642 16.4602 14.5834C20.1646 14.4249 23.1427 11.4045 23.0557 7.63166C23.054 7.56112 23.0458 7.50205 23.0933 7.45083C23.3156 7.82929 23.6996 9.24272 23.7852 9.71862C24.3863 13.0662 23.7234 16.1054 21.8264 18.8914C19.8216 21.8136 16.4528 23.6788 12.9358 23.9617C6.38013 24.489 0.494437 19.5035 0.0328855 12.9368C-0.201835 9.59743 0.822277 6.53528 3.03001 4.01776C4.81479 2.01162 7.22655 0.666885 9.87354 0.201961C10.4507 0.0983065 10.9044 0.0637121 11.4898 0.0248749ZM7.75916 19.4904C9.39258 19.3244 10.5825 17.8688 10.418 16.2378C10.2534 14.6068 8.79676 13.4172 7.16296 13.5797C5.52662 13.7423 4.33282 15.1995 4.49756 16.833C4.66233 18.4665 6.12319 19.6567 7.75916 19.4904ZM2.96554 9.76906C4.0732 8.92381 5.50585 8.5989 6.85442 8.42066C6.85887 7.21636 6.85394 6.46767 7.16903 5.27805C7.26883 4.90127 7.39239 4.53117 7.53904 4.17C7.57921 4.07032 7.7287 3.76381 7.7249 3.68438L7.67571 3.67166C5.37384 4.92113 3.84078 6.68622 3.03282 9.21825C3.00199 9.31486 2.88636 9.68292 2.91242 9.75699L2.96554 9.76906ZM15.5753 17.1684C15.46 18.3506 15.1946 19.3157 14.6423 20.3795C14.54 20.5767 14.3818 20.8328 14.2579 21.0291C14.2662 21.0521 14.2735 21.0723 14.2797 21.0897C16.7095 20.4857 18.7968 18.9375 20.0776 16.7892C20.1532 16.6649 20.2887 16.4561 20.3247 16.3241L20.3066 16.291L20.2606 16.2855C18.9785 16.8568 17.821 17.1635 16.4034 17.1783C16.1839 17.1805 15.778 17.2067 15.5753 17.1684ZM12.1683 16.2815C12.1368 18.5096 11.2381 20.0321 9.15633 20.9431C9.80578 21.1166 10.2254 21.226 10.9006 21.3063C11.1324 21.3307 11.3977 21.3637 11.6279 21.3423C13.0811 20.172 13.6445 18.6824 13.8549 16.8924C13.2095 16.671 12.8156 16.5461 12.1683 16.2815ZM3.24113 14.4326C4.14626 12.6217 5.75279 11.7828 7.74952 11.8511C7.49606 11.3383 7.29808 10.7392 7.15565 10.1844C7.02675 10.1878 6.86912 10.1876 6.74318 10.2015C5.11725 10.463 3.6816 11.0296 2.627 12.3681C2.65585 13.1796 2.78616 14.0834 3.06528 14.8474C3.11677 14.7156 3.17399 14.5546 3.24113 14.4326Z" fill="white"/></g><defs><clipPath id="clip0_5988_156"><rect width="24" height="24" fill="white"/></clipPath></defs></svg>