<svg width="24" height="24" viewBox="0 0 24 24" fill="none" xmlns="http://www.w3.org/2000/svg"><g clip-path="url(#clip0_5988_106)"><path d="M7.29593 0.0404194L7.35898 0.0491403C7.42129 0.167149 7.38578 1.52 7.3711 1.72236C7.2883 1.78432 7.1832 1.85325 7.09575 1.91043C5.38546 3.02808 4.59676 4.91936 4.61053 6.81807C5.54266 6.55874 6.45609 6.24298 7.39503 5.99036C7.37448 6.26625 7.38851 6.6589 7.38938 6.94199C7.39117 7.46871 7.38967 7.99543 7.38477 8.52216C7.84103 8.49864 8.72289 8.52856 9.20824 8.53356C9.25982 6.17687 10.1308 4.12685 11.5527 2.17978C11.6459 2.05214 11.8749 1.71966 12.0258 1.69369C12.0392 1.70336 12.0757 1.72939 12.0858 1.74136C13.6855 3.6456 14.7668 6.12539 14.7879 8.52921C15.1542 8.49904 16.187 8.53043 16.5972 8.53495C16.6113 8.02255 16.6168 7.50998 16.6139 6.99739C16.6147 6.69863 16.6286 6.27614 16.5979 5.99269C17.4458 6.19317 18.5266 6.57415 19.4013 6.82594C19.3147 4.67933 18.6204 2.9705 16.6277 1.74007C16.5847 1.2144 16.6202 0.543278 16.6133 0C17.0965 0.221419 17.631 0.554574 18.0729 0.841774C21.2429 2.90221 24.6567 6.15561 23.8912 10.0619C23.8249 10.4004 23.4143 11.7549 23.1034 11.9522C22.9756 11.9707 21.467 11.2548 21.249 11.1581C20.6588 11.8264 20.1811 12.4587 20.4157 13.3655C20.6591 14.3058 21.3358 14.8914 22.1932 15.3916C22.1972 15.4887 22.1999 15.5859 22.2009 15.683C22.2078 16.7041 22.2372 17.7605 22.1679 18.7749C22.1623 18.8572 20.9356 19.3276 20.7644 19.4095C18.9938 20.2573 17.4178 21.4378 16.019 22.7414C15.7098 23.0195 15.04 23.7285 14.7931 23.9134L14.7513 23.8993C14.6193 23.6682 14.5644 23.3059 14.5394 23.0498C14.4448 22.0858 14.6876 21.2081 15.198 20.3664C15.3292 20.1501 15.4945 19.8882 15.6706 19.698C16.0246 19.6525 17.1085 19.6765 17.5311 19.677C17.5135 17.3686 17.2884 18.1662 19.3537 17.0994C19.0406 16.7886 18.6663 16.4617 18.3417 16.1574C18.1488 15.9766 17.7388 15.5869 17.5274 15.4534C15.6929 16.8184 13.8193 18.3013 12.0068 19.7014C11.4679 19.3206 10.9605 18.8994 10.4345 18.5051C9.10276 17.5073 7.79394 16.4351 6.45394 15.4513C6.23252 15.6123 5.91814 15.9141 5.71398 16.1023C5.35135 16.4347 4.99139 16.7694 4.63409 17.1066C5.20171 17.3774 5.91373 17.6716 6.44954 17.9621C6.4852 18.3184 6.46706 19.2967 6.45319 19.6679C6.99771 19.6871 7.74074 19.6351 8.26008 19.7122C8.45748 19.7414 8.78621 20.3361 8.88809 20.5214C9.54995 21.7255 9.65636 22.73 9.22691 24C7.74685 22.2202 4.15222 19.4674 1.80595 18.8578C1.74788 17.7858 1.82612 16.6106 1.80848 15.5304C1.80514 15.3267 2.19715 15.1291 2.37711 15.0085C2.76319 14.745 3.08223 14.4071 3.31194 14.0183C3.66651 13.4147 3.76533 12.691 3.42339 12.0657C3.29082 11.8232 2.98165 11.3348 2.72623 11.2092C2.55949 11.197 1.13789 11.8894 0.861324 12.009C0.85408 11.9973 0.846812 11.9856 0.839533 11.9739C-0.0381069 10.4905 -0.237 8.74533 0.287038 7.1261C1.21057 4.23812 4.51105 1.44444 7.29593 0.0404194ZM10.5087 14.0891C10.6321 14.005 10.9597 13.8058 10.9902 13.6887C10.7682 13.4831 7.58096 11.26 7.39509 11.196C7.37865 12.2658 7.5831 14.506 9.21671 14.5223C9.66134 14.5267 10.1561 14.334 10.5087 14.0891ZM12.9485 13.7218C13.1505 13.8625 13.3617 14.0151 13.5658 14.1509C14.5309 14.6687 15.4615 14.7445 16.0822 13.737C16.429 13.1741 16.6683 11.9255 16.6052 11.288C16.5695 11.2348 16.5876 11.2434 16.5366 11.2318C15.9498 11.5872 15.2114 12.1333 14.6299 12.5342C14.1657 12.8543 13.3505 13.3866 12.9485 13.7218Z" fill="white"/></g><defs><clipPath id="clip0_5988_106"><rect width="24" height="24" fill="white"/></clipPath></defs></svg>