<svg width="24" height="24" viewBox="0 0 24 24" fill="none" xmlns="http://www.w3.org/2000/svg"><g clip-path="url(#clip0_5988_111)"><path d="M18.5267 0L18.5463 0.00760935C18.6787 0.0580388 18.9066 0.61065 19.0529 0.782895C19.1786 0.930152 19.3584 1.19646 19.508 1.31246C21.0657 2.52604 23.285 3.24877 23.6159 5.4891C23.8491 7.06675 22.5275 8.21538 21.013 7.624C20.3423 7.36211 20.0848 6.83005 19.5457 7.63421C19.1179 8.27233 19.1154 9.0195 19.1891 9.75785C19.2161 10.0019 19.3138 10.2737 19.3596 10.5263C19.7883 10.591 20.2023 10.5206 20.6044 10.5151C21.369 10.5046 23.6073 10.4695 23.936 11.2543C24.4124 12.3906 22.1002 13.6144 21.3064 14.0952C20.8529 14.3699 20.3307 14.5634 19.9195 14.9013C19.7711 15.1469 19.6436 15.6723 19.5579 15.9316C19.225 16.9382 18.6384 17.7758 17.9609 18.5752C17.7526 18.821 17.0874 19.3712 17.0088 19.606C17.0473 19.816 17.4644 20.3201 17.6176 20.4852C18.247 20.2332 18.9787 20.0514 19.6605 20.1829C20.3008 20.3064 20.5633 20.8044 20.4057 21.4314C20.1901 22.2896 19.3499 23.0081 18.6377 23.4646C18.0534 23.8408 17.6143 23.9521 16.9478 23.9956C15.5124 24.0896 14.9658 22.6461 14.1114 21.7623C14.0198 21.6677 13.7652 21.3306 13.6163 21.3261C13.016 21.3088 12.4055 21.4996 11.8015 21.5227C10.86 21.5511 9.94031 21.4598 9.03453 21.2435C7.15502 20.6849 6.0908 20.1487 4.65981 18.7381C4.18982 18.6198 3.15649 18.6535 2.64151 18.6533L0.00258187 18.6541C0.0357956 17.7628 -0.0159872 16.8421 0.00532683 15.948C0.0193274 15.3607 -0.0170977 14.7589 0.0244355 14.173C0.478632 14.2423 0.970008 14.497 1.30032 14.8151C1.61816 15.1211 1.72476 15.4748 1.87032 15.8723C2.05543 15.7301 2.86504 15.3457 3.14801 15.1781C3.16256 14.9664 3.13759 14.6423 3.12902 14.4228C3.11514 14.0631 3.11039 13.7032 3.11481 13.3432C3.13262 12.5021 3.2788 11.6687 3.54826 10.8717C3.65969 10.5377 3.79421 10.222 3.9067 9.87745C3.75068 9.47748 3.60894 9.24274 3.38845 8.80103C3.07918 8.18144 1.87576 5.71165 2.72741 5.23657C3.35891 4.88428 4.79006 5.58978 5.37245 5.92761C5.67894 6.10541 6.18837 6.44756 6.58052 6.57894C6.82473 6.34377 7.54819 5.8321 7.83628 5.64278C9.81274 4.34587 12.0682 3.51612 14.3578 2.96794C14.6387 2.93785 15.876 2.49212 16.0423 2.75247C16.4868 3.40303 17.0013 4.69702 17.7283 5.07807C19.0014 5.74537 18.9736 4.78867 18.5112 3.98064C17.9579 3.01385 17.4184 1.75506 17.9663 0.712997C18.0912 0.475365 18.3414 0.210691 18.5267 0ZM16.5817 14.6137C16.6497 14.4977 16.6653 14.4638 16.709 14.3367C15.9799 14.4756 15.3218 14.638 14.6032 14.8285C14.2813 14.9138 13.9276 14.9973 13.6022 15.0673C13.5355 15.0817 13.3757 15.0929 13.3315 15.0479C12.9523 14.6616 12.7855 13.8865 12.4174 13.4873C12.3856 13.4528 12.2915 13.463 12.2427 13.466C11.9062 13.487 9.99454 14.3204 9.84039 14.1745C9.54583 13.8958 9.1906 12.9167 8.83318 12.534C8.59995 12.6442 7.31146 13.3563 7.14707 13.2812C6.76456 13.1065 5.62659 10.9385 5.38005 10.8552C5.01824 11.6136 5.17153 12.5594 5.42415 13.3228C5.82052 14.5207 6.91099 15.4435 8.04234 15.951C9.82984 16.7528 12.1785 17.229 14.068 16.528C15.0273 16.1721 16.0427 15.4861 16.5817 14.6137ZM15.3499 8.93732C14.4437 9.09659 13.8857 9.45829 13.1721 10.0189C12.5461 10.5106 12.2814 10.6984 13.1159 11.2208C13.4137 11.4072 13.7728 11.5569 14.1243 11.6162C15.0611 11.8311 16.7532 11.6726 16.7531 10.3734C16.7531 10.0665 16.6774 9.73282 16.5075 9.47535C16.3326 9.20502 16.0549 9.01779 15.7387 8.95689C15.609 8.93088 15.4814 8.93465 15.3499 8.93732ZM6.67604 9.03045C6.95843 9.51444 7.26782 9.75629 7.81468 9.89829C7.93942 9.92991 8.06544 9.95643 8.19236 9.97778C8.62202 10.0272 8.89877 10.0021 9.32674 9.97078C9.22278 9.2759 9.07671 8.30131 8.48623 7.81101C8.27936 7.63919 8.0419 7.64396 7.78774 7.66429C7.00709 7.78731 6.62953 8.25007 6.67604 9.03045Z" fill="white"/></g><defs><clipPath id="clip0_5988_111"><rect width="24" height="24" fill="white"/></clipPath></defs></svg>