<svg width="24" height="24" viewBox="0 0 24 24" fill="none" xmlns="http://www.w3.org/2000/svg"><g clip-path="url(#clip0_5988_116)"><path d="M6.61627 15.4611C7.10154 15.3586 7.41167 15.8684 7.73624 16.1747C8.48946 16.8856 9.12511 17.7678 9.98472 18.3616C10.42 18.6605 10.9143 18.8616 11.4339 18.9509C14.0151 19.4092 15.2593 16.978 16.923 15.5375C17.1821 15.3131 18.0424 15.6413 18.3607 15.7332L19.8891 16.1739C20.5727 16.3658 21.2547 16.5629 21.9351 16.7651C22.1699 16.8357 22.8775 16.9944 22.9993 17.1754C22.9793 17.3893 21.1725 18.9463 20.9482 19.1598C19.8586 20.1974 18.692 21.1813 17.6127 22.2285C17.1523 22.6221 16.0314 23.802 15.5719 23.9856C14.4781 23.5195 13.4196 22.9154 12.3173 22.4755C12.0743 22.3806 11.7559 22.4229 11.5245 22.5404C10.5496 23.0363 9.45114 23.4784 8.49427 24C8.35815 23.9524 8.24573 23.9001 8.13733 23.802C5.89275 21.7693 3.66533 19.7143 1.43543 17.6647C1.34946 17.5857 1.03807 17.285 1.00477 17.1947L1.04517 17.1105C1.26878 16.9658 2.25157 16.7107 2.56789 16.6202L5.36011 15.8186C5.72952 15.7122 6.26695 15.5799 6.61627 15.4611Z" fill="white"/><path d="M13.8348 0.0349613C13.91 0.155133 14.208 0.458053 14.3211 0.587434C14.5922 0.898341 14.8433 1.22641 15.0729 1.56949C16.6119 3.91676 16.7874 5.85205 17.1529 8.54521C17.4994 8.83666 17.8675 9.31923 18.2281 9.62064C18.3831 9.75022 18.7093 10.099 18.7745 10.2816C18.7306 10.529 17.7683 11.553 17.5617 11.7901L15.2655 14.4227C14.5258 15.3309 13.5956 16.2618 12.8742 17.1593C12.833 16.7563 12.875 16.1757 12.8802 15.7575C12.8946 14.6201 13.0124 13.4656 13.0629 12.3344L13.4937 3.84198C13.5242 3.28767 13.5894 0.329128 13.7557 0L13.8348 0.0349613Z" fill="white"/><path d="M10.2038 0.0012561C10.2593 0.0283248 10.2605 0.0301548 10.2977 0.0810181C10.3516 0.515424 10.3518 0.931656 10.3883 1.36203C10.5095 2.79185 10.5201 4.22777 10.6013 5.65703L11.017 13.8369C11.0392 14.3146 11.2552 16.8578 11.1224 17.0965C11.0298 17.0755 10.8186 16.7715 10.7338 16.6793C10.0775 15.9652 9.4451 15.2314 8.81414 14.4949C8.46884 14.1088 5.28013 10.5142 5.25848 10.3858C5.18351 9.93943 6.58645 9.01348 6.81807 8.5113C6.96664 8.18911 6.96993 7.75588 7.01882 7.40677L7.21562 6.0146C7.47156 4.16795 8.35787 2.1755 9.55031 0.737956C9.75987 0.485372 10.0122 0.277009 10.2038 0.0012561Z" fill="white"/><path d="M19.7244 4.28998C19.8233 4.3153 19.8365 4.36859 19.9114 4.42732C20.6247 4.98745 21.3535 5.48801 21.9668 6.16533C23.0418 7.35461 23.7256 8.84828 23.9252 10.4425C24.0041 11.1127 23.9917 12.1338 23.996 12.8231C24.0013 13.6778 24.0077 14.5848 23.9689 15.4366C23.3495 15.301 22.7289 15.1006 22.1178 14.9232C21.9659 14.8696 21.7918 14.8163 21.6363 14.7734C20.6371 14.4978 19.6196 14.1251 18.6115 13.8922C18.6792 13.4426 18.9652 13.0955 19.2108 12.7211C19.5165 12.2464 19.8265 11.7745 20.1409 11.3055C20.4174 10.892 20.7378 10.4593 20.9401 10.0094C20.8023 9.13308 19.621 4.67469 19.7244 4.28998Z" fill="white"/><path d="M4.29762 4.37519C4.40754 4.64073 3.09758 9.34918 3.07831 9.95748C3.07008 10.2187 3.52875 10.8124 3.68474 11.0448L4.71599 12.615C4.88005 12.8646 5.42117 13.6053 5.39947 13.8489C5.33202 13.8944 1.09278 15.1977 0.871905 15.2308C0.688889 15.2875 0.178892 15.4796 0.0326577 15.375C-0.0131309 15.1597 0.00161529 14.1341 0.00475217 13.8415C0.0142158 12.9586 -0.0236822 12.043 0.0436949 11.1635C0.060678 10.9419 0.0582894 10.7025 0.0922172 10.4846C0.2188 8.70518 1.28844 6.72585 2.63391 5.57853C2.82556 5.41508 4.13847 4.33832 4.28658 4.3486L4.29762 4.37519Z" fill="white"/></g><defs><clipPath id="clip0_5988_116"><rect width="24" height="24" fill="white"/></clipPath></defs></svg>