<svg width="24" height="24" viewBox="0 0 24 24" fill="none" xmlns="http://www.w3.org/2000/svg"><path d="M19.7372 5.46916C24.0971 5.62544 24.2377 6.24048 22.7503 9.6257C21.5364 12.3858 19.2005 14.178 16.6014 15.6173C16.3408 15.7609 15.753 15.6576 15.5051 15.4509C13.6139 13.8629 12.3463 11.8489 11.6537 9.50723C11.5643 9.20475 11.7304 8.63257 11.9757 8.45612C14.3908 6.73705 17.0129 5.51201 19.7372 5.46916ZM14.6183 11.7935C16.9618 10.3214 19.1724 8.93001 21.6846 7.34956C18.3699 6.96642 15.9063 8.00241 13.4759 9.58033C13.8746 10.3567 14.2298 11.0423 14.6157 11.7935H14.6183Z" fill="white"/><path d="M8.69939 13.2554C7.71803 13.5579 6.73666 13.8604 5.7553 14.1629C6.57055 12.1136 8.12949 10.9011 9.5632 9.92062C11.1298 12.348 12.6555 14.7149 14.3039 17.2708C12.6887 17.8833 10.8334 18.5891 8.97796 19.2924C8.87573 19.1386 8.77095 18.9848 8.66872 18.8311C9.36897 18.0648 10.0667 17.2985 10.9944 16.2827C7.23246 17.8506 3.77212 19.2949 0.311788 20.7367C0.207007 20.5703 0.104781 20.4065 0 20.2401C2.92109 17.9665 5.83963 15.6954 8.76073 13.4218C8.74028 13.3638 8.71984 13.3084 8.70195 13.2504L8.69939 13.2554Z" fill="white"/><path d="M24 18.5639C23.0467 20.5577 19.4944 22.9322 17.5496 22.5238C16.9337 22.3953 16.3663 21.1425 16.1516 20.3107C15.9497 19.5243 15.9114 18.1883 16.3765 17.8354C18.1169 16.5197 22.4308 17.0767 24 18.5639Z" fill="white"/><path d="M4.30625 22.9448C7.48035 21.2207 10.9356 20.3964 14.5237 19.5923C14.7 20.3485 14.8534 21.019 15.0323 21.7954C11.4135 22.5465 7.91992 23.1968 4.30369 22.9448H4.30625Z" fill="white"/><path d="M1.53849 13.5024C3.66479 10.7751 5.79108 8.04778 8.01193 5.19945C8.73517 5.86238 9.25141 6.33374 9.97466 6.99415C7.29379 9.37112 4.6896 11.6775 2.08796 13.9839C1.90395 13.8226 1.71994 13.6638 1.53849 13.5024Z" fill="white"/><path d="M13.458 1.00006C13.7723 2.6284 12.7194 5.28011 11.4544 5.81449C11.0864 5.97077 10.3503 5.61536 9.94399 5.29524C8.46683 4.13322 8.4745 3.71732 9.86987 2.52253C10.8794 1.66047 11.9885 0.992502 13.458 1.00006Z" fill="white"/></svg>