<svg width="24" height="24" viewBox="0 0 24 24" fill="none" xmlns="http://www.w3.org/2000/svg"><path d="M20.6181 16.3747C20.823 16.4135 20.858 16.4926 20.933 16.6716C23.5604 22.942 18.2063 23.9551 13.1772 23.9923C8.14807 24.0293 -0.00916553 24.2052 3.04552 16.7161C3.08636 16.5563 3.21269 16.2181 3.43374 16.4662C3.77011 16.8438 4.07308 17.2768 4.37701 17.6828L5.86533 19.6507C6.20082 20.0974 6.72719 20.8179 7.09476 21.2079C7.42651 20.9799 9.11952 19.7057 9.28175 19.6427C9.65222 19.4996 11.4583 21.9778 11.9175 22.1682C11.994 22.2001 12.0534 22.2118 12.1284 22.1616C12.2987 22.0479 12.4664 21.8406 12.6065 21.6902C12.9779 21.2911 13.346 20.8894 13.7105 20.4846C13.8877 20.2874 14.4571 19.5117 14.7501 19.667C15.4835 20.0555 16.2095 20.861 16.9509 21.2132C17.1417 20.9016 17.5788 20.3685 17.813 20.0615L19.3689 18.0103C19.6226 17.6781 20.3796 16.6115 20.6181 16.3747Z" fill="white"/><path fill-rule="evenodd" clip-rule="evenodd" d="M12.0289 6.85456C14.0223 6.85351 15.8462 7.55551 17.1133 9.10509C18.3312 10.5947 18.4949 12.7037 17.4759 14.3337C17.3528 14.5306 16.9885 14.9711 17.1678 15.1534C17.4782 15.5257 18.3397 15.8836 18.4829 16.3667C18.4599 16.5786 17.4242 17.8327 17.2475 18.0803C17.1119 18.2702 16.811 18.7064 16.6801 18.8375C16.4473 18.9223 16.0285 18.5479 15.8404 18.4133C15.3504 18.0629 14.9092 17.6698 14.3578 17.4098C13.8364 17.9525 13.2963 18.5581 12.7877 19.0755C12.7443 19.0547 12.708 19.0467 12.6769 19.0481C12.6893 19.0475 12.7027 19.0485 12.7169 19.0512C12.7382 19.0553 12.7617 19.0631 12.7877 19.0755C12.5874 19.3004 12.3094 19.58 12.1657 19.8306C12.1066 19.8216 11.9623 19.7989 11.916 19.7683C11.6142 19.5688 11.1595 19.0431 10.9431 18.7662L10.8551 18.6858C10.424 18.2806 10.1327 17.8263 9.58964 17.4027C8.87669 17.843 8.25083 18.3674 7.568 18.8439C7.52074 18.8769 7.31461 18.834 7.27566 18.7723C7.12632 18.5351 5.58712 16.6715 5.65971 16.538C5.8935 16.1108 6.83358 15.6656 7.2633 15.332C6.38712 14.2293 5.93947 13.6097 5.89004 12.1402C5.8 10.5137 6.6024 9.10318 7.90934 8.11762C9.14559 7.19539 10.5062 6.85535 12.0289 6.85456ZM13.6544 13.2838C13.0718 12.9516 12.3373 12.8931 11.6737 12.9148C10.8819 13.047 10.1946 13.2136 9.66975 13.8506C9.54727 14.0132 9.40209 14.3441 9.44986 14.5449C9.52219 14.8486 9.65896 15.1404 10.0258 14.9768C10.8942 14.5896 11.4863 14.5444 12.4297 14.5654C13.2974 14.6519 13.5503 14.8603 14.3167 15.0786C14.7945 14.2528 14.4276 13.7245 13.6544 13.2838ZM13.3806 8.71457C13.0225 9.25685 12.8098 9.73876 12.9592 10.4124C13.0738 10.9129 13.386 11.3486 13.8275 11.6237C14.2884 11.912 15.1085 12.0614 15.6098 11.8249C15.802 11.7365 16.0777 11.6394 16.1798 11.4645C16.1871 11.3499 16.064 11.2022 15.9908 11.1352C15.6009 10.7784 13.7338 8.80542 13.3806 8.71457ZM10.8142 8.95799C10.7501 8.84005 10.5922 8.69849 10.4579 8.80045C10.217 8.98347 9.84059 9.29021 9.64972 9.51817C9.25836 9.98556 8.03668 10.941 7.81282 11.4212C7.81452 11.6463 8.16593 11.6849 8.30885 11.804C9.52619 12.1275 10.4156 11.795 10.9738 10.6542C11.1167 10.1078 11.0913 9.46969 10.8142 8.95799Z" fill="white"/><path d="M10.4935 0.02482C10.9149 -0.0299361 11.5339 0.0250835 11.9699 0.0110297C15.5335 -0.103856 20.8806 0.891377 22.2556 4.63997C22.95 6.53324 22.1279 10.6359 20.2572 11.8067C20.1647 11.8647 20.0392 11.9625 19.9363 11.995C19.8763 11.9522 19.8626 11.9231 19.8581 11.8385C19.7434 9.67284 19.5662 7.45109 18.6751 5.4375C18.5741 5.2092 18.3115 4.51011 18.0333 4.51794C17.8265 4.61142 16.6156 5.80986 16.5026 6.00917L16.4968 6.01941C16.3998 5.95616 16.3058 5.90046 16.2062 5.84181C16.1912 5.80093 16.1747 5.76055 16.1568 5.72083C15.8851 5.12085 15.5229 4.52027 15.2442 3.91911C15.13 3.67294 14.7739 2.91899 14.5408 2.83093C14.4253 2.89518 12.9106 4.89297 12.6805 5.17946L12.1587 5.9187C12.1041 5.94792 11.9574 5.92427 11.8859 5.91786C11.7893 5.84453 11.204 5.02211 11.075 4.86333C10.5218 4.18288 9.99832 3.44853 9.43708 2.77473C9.02551 3.20033 8.39978 4.696 8.07895 5.25823C7.95568 5.47428 7.85533 5.78002 7.66345 5.9607C7.33924 6.06327 6.39657 4.6422 5.96526 4.53424C5.92042 4.52301 5.86459 4.52662 5.8242 4.5497C5.675 4.63495 5.42825 5.19507 5.3563 5.35601C4.669 6.894 4.37086 8.57649 4.23169 10.242C4.18839 10.7601 4.23316 11.5002 4.10833 11.9753C3.95114 11.9695 3.39182 11.5486 3.27542 11.4363C2.11194 10.2955 1.71977 8.57891 1.54356 7.04783C0.966717 2.03543 6.23447 0.29096 10.4935 0.02482Z" fill="white"/></svg>