<svg width="24" height="24" viewBox="0 0 24 24" fill="none" xmlns="http://www.w3.org/2000/svg"><g clip-path="url(#clip0_5988_181)"><path fill-rule="evenodd" clip-rule="evenodd" d="M4.3631 0.000445406C4.63799 0.0222533 4.93225 0.121203 5.19016 0.205989C6.42308 0.611273 7.6712 1.52195 8.53947 2.52405C12.1253 6.66268 13.2855 14.013 13.6102 19.4041C13.6735 20.3524 13.7073 21.3025 13.7115 22.253C13.7131 22.5357 13.7301 22.8118 13.719 23.0951C13.5434 23.2277 12.2203 23.9048 11.9931 24C11.0814 23.5453 10.1672 23.0454 9.25794 22.5795C8.29506 22.0861 7.37601 21.623 6.45269 21.0503C3.06469 18.7631 0.867075 15.6197 0.000313283 11.5003C0.561168 11.518 1.13298 11.4832 1.69737 11.5159C1.29332 9.62337 0.776293 7.74133 0.341061 5.85497C0.232076 5.38259 0.12311 4.88971 0 4.42256C2.2167 4.43777 4.40327 5.48971 6.00637 7.05166C6.0891 4.96348 5.9538 3.26284 5.07675 1.33138C4.88358 0.905958 4.58589 0.355254 4.28738 0.00326702C4.30642 0.00157787 4.34431 -0.00105482 4.3631 0.000445406ZM5.17753 12.4664C5.6852 14.7209 6.60181 16.7116 8.52496 18.0257C9.56888 18.739 10.0036 18.5421 11.1094 18.6274C10.9382 17.8702 10.7605 17.1145 10.5763 16.3605C10.4929 16.0129 10.3745 15.4475 10.2703 15.1194C9.9795 14.9293 9.42728 14.6638 9.10767 14.498L6.92502 13.3647C6.59945 13.1949 5.43673 12.5338 5.17753 12.4664Z" fill="white"/><path d="M23.9675 4.49191C23.3913 6.81388 22.8919 9.2018 22.2773 11.5093C22.742 11.4767 23.5103 11.5075 24 11.5136C23.8046 12.2172 23.7384 12.6678 23.4789 13.4109C22.418 16.4655 20.4309 19.0792 17.8169 20.8585C17.4106 21.1383 16.9896 21.3945 16.5558 21.6256C16.2629 21.7786 15.6302 22.0814 15.3865 22.2592C15.4159 21.8808 15.3843 21.5344 15.3712 21.1562C15.3542 20.5724 15.3279 19.9887 15.2921 19.4058C15.2699 19.0792 15.2111 18.5033 15.2377 18.1924C15.2728 18.1205 15.6193 17.9075 15.7099 17.8462C17.3363 16.667 18.4653 14.4592 18.8126 12.4507C18.4913 12.6443 14.8526 14.5215 14.8182 14.5197C14.7858 14.3978 14.7606 14.273 14.7431 14.1479C14.6192 13.2656 14.4123 12.3944 14.2679 11.5176C14.5063 11.1621 15.1456 10.477 15.4427 10.1696C17.6794 7.85505 20.9819 5.56914 23.9421 4.4243C23.9506 4.44682 23.959 4.46936 23.9675 4.49191Z" fill="white"/><path d="M19.6418 0.00956139L19.6511 0.0562265C19.5686 0.256986 19.4632 0.387327 19.3751 0.573016C18.9072 1.55969 18.4648 2.58051 18.1951 3.64901C18.0885 4.0645 18.0003 4.48482 17.9307 4.90864C17.7493 6.02131 17.9595 5.77359 17.0684 6.45271C16.7496 6.69658 16.4355 6.94677 16.1259 7.20305C15.2626 7.92491 14.5171 8.68604 13.7444 9.50928C13.7065 9.29504 13.6194 9.00643 13.5607 8.79107C13.3294 8.02112 13.0682 7.26117 12.7782 6.51305C12.8789 5.69678 13.1402 4.91077 13.5459 4.204C14.8194 1.94375 17.192 0.650353 19.5597 0.0102125C19.577 0.00718984 19.622 0.00927245 19.6418 0.00956139Z" fill="white"/></g><defs><clipPath id="clip0_5988_181"><rect width="24" height="24" fill="white"/></clipPath></defs></svg>