<svg width="24" height="24" viewBox="0 0 24 24" fill="none" xmlns="http://www.w3.org/2000/svg"><path fill-rule="evenodd" clip-rule="evenodd" d="M6.84995 1.5C7.05564 1.54144 7.388 1.67726 7.57748 1.76039C9.03676 2.40066 10.1964 3.49365 10.76 4.9766C11.5506 7.05675 11.2315 9.55868 10.3073 11.5508C10.5008 11.9544 11.9433 14.665 11.9599 14.8834C11.854 15.1063 9.76002 17.1319 9.42455 17.4553C9.24171 17.1898 8.71173 16.0913 8.55287 15.7698C8.03696 15.7346 7.46473 15.7881 6.94643 15.7448C6.89312 15.7373 6.84372 15.7091 6.83301 15.655C6.72483 15.1473 6.70229 14.4692 6.36753 14.0365C5.89413 13.4246 5.28395 14.0072 4.90409 14.2935C3.39367 15.4315 4.01266 16.8325 5.33016 17.7845C5.49962 17.907 5.70878 18.0892 5.91585 18.1719C6.50024 18.3096 7.1242 18.1945 7.7348 18.2533C7.98958 19.4506 7.91372 20.2298 7.10908 21.2064C6.78177 21.6042 6.19951 21.996 5.73752 22.2212C5.52966 22.3225 5.35341 22.3813 5.14462 22.5C5.15447 22.3942 5.16203 22.2881 5.16741 22.182C5.21103 21.1495 4.36693 20.2876 3.59442 19.696C3.30664 19.4756 2.99787 19.2824 2.70663 19.0579C2.41421 18.8346 2.14102 18.5881 1.88982 18.3209C1.24417 17.6352 0.826802 16.8687 0.864266 15.9141C0.889938 15.26 1.2087 14.526 1.70135 14.0814L0 14.0804L0.00763079 13.5986C0.0517844 11.7971 0.7338 9.92274 1.98401 8.57905C2.15618 8.39398 2.35392 8.21576 2.5399 8.04252C1.79824 7.73841 1.27582 7.77183 0.503005 8.02278C0.409292 8.05321 0.1016 8.18228 0.0237286 8.18136C-0.0146015 8.06338 0.0507444 7.83717 0.08143 7.71563C0.265646 6.96961 0.56171 6.2544 0.959912 5.59325C2.08913 3.75264 4.03516 2.72951 6.23028 3.29365C6.78762 3.43687 7.19045 3.66028 7.67501 3.94836C7.40744 3.2949 7.07307 2.2008 6.84995 1.5ZM6.87535 9.06995C6.56496 9.48987 6.38309 10.1504 6.46307 10.6651C6.59973 11.5442 7.40362 12.0202 8.19924 12.2719C8.318 12.3045 8.44805 12.3434 8.56646 12.3725C8.57464 11.0315 8.29818 9.6399 6.87535 9.06995Z" fill="white"/><path fill-rule="evenodd" clip-rule="evenodd" d="M23.137 2.3712C23.2066 2.35656 23.1783 2.35482 23.2451 2.37723C23.2424 2.48174 20.8693 6.80692 20.6354 7.27497C21.7287 6.47919 22.6927 6.00269 24 5.62773C22.7565 8.76489 22.3757 14.0082 22.2782 17.4167C22.1636 17.5925 21.2081 18.4943 20.9982 18.6998C20.2884 19.4049 19.5708 20.1024 18.8454 20.7923C18.5612 21.0646 18.2619 21.3716 17.9714 21.6327C17.6659 21.2356 17.3174 20.6577 17.0189 20.2321C16.8356 19.971 16.3947 19.3412 16.2623 19.0842C16.4097 18.9514 16.76 18.7048 16.9251 18.5837C17.3729 18.2596 17.8175 17.9313 18.2587 17.5987C18.5646 17.4013 19.2828 16.8707 19.5953 16.6012C19.6468 16.5567 19.6858 16.4313 19.6867 16.3643C19.7012 15.36 19.7267 14.2327 19.6931 13.2388C18.8628 13.7682 18.3916 14.8693 18.0034 15.7439C17.6606 15.7719 16.6518 15.7731 16.3109 15.7485C16.1236 16.0726 15.5972 17.1967 15.4155 17.3999L15.3814 17.3908C15.2011 17.2126 14.9409 16.8179 14.8009 16.6015C13.738 14.9582 12.7916 13.2431 12.8459 11.2394C12.883 9.8683 12.9961 8.69858 13.8438 7.5153C14.6311 6.41644 15.6877 5.45366 16.8144 4.69023C18.5042 3.62929 21.173 2.74776 23.137 2.3712ZM18.8351 9.12929C18.8335 9.07829 18.7244 9.0958 18.6951 9.10157C17.8236 9.28481 17.0722 9.64765 16.5613 10.3928C16.0839 11.089 15.957 12.443 16.3045 13.202C16.6586 13.039 16.933 12.9025 17.2503 12.6691C18.3693 11.846 18.8767 10.465 18.8351 9.12929Z" fill="white"/></svg>