<svg width="24" height="24" viewBox="0 0 24 24" fill="none" xmlns="http://www.w3.org/2000/svg"><g clip-path="url(#clip0_5988_131)"><path d="M12.4009 0C12.4252 0.00983856 12.4256 0.0165305 12.4464 0.0382443C12.5622 1.34986 12.2807 2.09411 11.3902 3.03074C11.0109 3.42972 10.2895 4.09202 10.3991 4.70817C10.4791 4.76967 10.6755 4.72138 10.7739 4.70076C11.4912 4.55052 12.1278 4.56501 12.8528 4.61884C13.6239 2.95475 15.1452 1.35401 17.0525 1.97967C17.9178 2.26354 18.3093 3.11366 18.9395 3.7515C19.7632 4.58519 20.3407 4.92221 21.4851 4.91836C21.289 5.08579 21.1447 5.26796 20.922 5.44415C20.1311 6.06995 19.3269 6.07313 18.3836 5.96409C18.0591 5.92657 17.6482 5.87891 17.3252 5.90472C17.1093 5.92196 16.8294 6.02657 16.6877 6.21087C16.6871 6.3141 16.7752 6.38307 16.8505 6.44598C17.4409 6.93909 17.8411 7.51068 18.2808 8.15546C18.683 8.1313 19.0856 8.03577 19.5208 8.01276C21.1848 7.9248 23.0855 8.96943 22.9789 10.9584C22.9576 11.3529 22.835 11.8453 22.7707 12.2531C22.7009 12.681 22.6728 13.1154 22.687 13.5493C22.7166 14.286 22.9809 14.9829 23.5 15.4862C23.0867 15.4214 22.8848 15.4282 22.4746 15.2728C21.5594 14.9458 21.0257 14.0923 20.5465 13.2626C20.2342 12.7218 20.0582 12.4795 19.4602 12.3131C19.3619 13.4133 19.355 13.7826 19.0384 14.8849C20.3856 16.0777 21.5254 17.8904 20.5497 19.765C20.1253 20.5805 19.1957 20.831 18.4846 21.3262C17.5003 22.0116 17.101 22.5037 16.8368 23.7129C16.6511 23.348 16.48 23.087 16.3668 22.6761C16.1106 21.7457 16.3455 20.8839 16.6514 20.0091C16.7621 19.6924 16.8778 19.3135 16.8656 18.9737C16.8574 18.7472 16.8033 18.6285 16.7233 18.423C16.5137 18.5298 16.0951 18.8613 15.8559 19.0118C15.3763 19.3138 15.0456 19.463 14.5382 19.6908C14.4719 20.4018 14.5203 20.7283 14.2941 21.4887C14.0814 22.2376 13.6621 23.0082 13.0477 23.4619C11.2644 24.779 10.3487 23.299 8.61738 23.02C7.9503 22.9124 7.18799 22.9884 6.64043 23.4141C6.72113 23.1814 6.78977 22.9608 6.88753 22.7378C7.39706 21.5753 8.31852 21.2351 9.3906 20.851C9.90101 20.668 10.2381 20.4788 10.4754 19.9457C9.42703 19.6563 9.1117 19.4794 8.19028 18.9737C7.94499 19.1304 7.67953 19.3236 7.42784 19.4967C5.94499 20.5171 3.65894 20.5614 2.82127 18.6414C2.73402 18.3915 2.67629 18.1133 2.6153 17.8558C2.32968 16.6495 1.78765 15.1141 0.5 14.779C1.85643 14.1581 2.82772 14.5409 4.00294 15.3707C4.47155 15.7015 4.85857 15.9096 5.42893 15.7844C5.3621 15.4927 5.14865 15.0116 5.05171 14.685C4.89811 14.1675 4.85176 13.782 4.74964 13.263C3.41553 12.8881 2.01769 12.1792 1.52663 10.6972C1.30643 10.0398 1.32089 9.12868 1.70903 8.5379C2.55315 7.25311 3.63802 6.03807 3.09724 4.34351C4.54732 5.02424 4.71069 6.5147 4.85447 7.98294C4.89737 8.42109 5.07212 8.73694 5.41194 8.99007C5.57642 8.71962 5.71846 8.42091 5.88249 8.14458C6.16694 7.66551 6.45767 7.29298 6.81788 6.88532C6.78062 6.70423 6.64803 6.40677 6.58602 6.22038C6.17328 4.98016 6.08403 3.6828 6.76829 2.53256C7.8255 0.7555 9.62172 1.76547 11.1709 1.02451C11.786 0.730359 11.9557 0.496271 12.4009 0ZM8.23477 9.11817C9.52825 11.2161 9.39029 12.079 7.40435 13.4304C7.36641 13.4559 7.32789 13.4804 7.28884 13.5038C8.15513 13.6404 9.12065 13.6695 9.66734 14.4602C10.2251 15.2671 9.96846 16.0688 9.95142 16.9731L9.97316 16.9587C10.093 16.877 10.2754 16.694 10.3822 16.5878C11.0009 15.9735 11.2729 15.6706 12.1497 15.6583C13.2446 15.7693 13.4106 16.3843 14.203 16.9736C14.1569 16.3615 14.0537 15.5991 14.2194 15.0051C14.5805 13.7112 15.7854 13.6628 16.8564 13.51C16.3853 13.1664 15.681 12.7352 15.3684 12.2366C14.6649 11.1141 15.3756 10.099 15.9046 9.11841C15.1073 9.40441 14.2135 9.78588 13.4028 9.36281C12.5978 8.94276 12.4638 8.13184 12.1341 7.34478C12.1188 7.30814 12.0774 7.27506 12.0404 7.26482C11.9947 7.38567 11.93 7.53673 11.8921 7.65618C11.2081 9.81293 10.1178 9.83976 8.23477 9.11817Z" fill="white"/></g><defs><clipPath id="clip0_5988_131"><rect width="24" height="24" fill="white"/></clipPath></defs></svg>