<svg width="24" height="24" viewBox="0 0 24 24" fill="none" xmlns="http://www.w3.org/2000/svg"><path d="M5.60658 0.0339673C5.89309 -0.00985182 7.08393 0.0154438 7.42029 0.016253L11.1137 0.016228L18.1596 0.0147592C19.3162 0.0147592 20.8572 -0.0302052 21.9881 0.0368306L21.9892 16.5423C21.9896 19.0027 22.0199 21.5408 21.9772 23.9953L18.4598 23.997L9.51962 23.995L7.09398 23.9977C5.68875 24 4.59433 24.0754 3.43085 23.1303C2.65067 22.5034 2.15341 21.5907 2.04977 20.5953C1.96582 19.7688 2.01335 18.2515 2.01387 17.3524L2.01394 11.3938L2.01331 6.14599C2.01335 5.39281 1.97382 3.92565 2.07195 3.25208C2.17379 2.57504 2.45732 1.93826 2.89239 1.40956C3.61256 0.533493 4.49778 0.14242 5.60658 0.0339673ZM19.0217 21.9231C19.3046 21.9229 19.5873 21.9308 19.8698 21.9463C19.6897 21.8083 19.5452 21.7002 19.3943 21.5317C18.5848 20.627 18.9509 19.5979 19.8645 18.9917C19.0446 18.9686 18.169 18.9863 17.3446 18.9878L13.2765 18.9859L8.35448 18.9841C7.45976 18.9839 6.49825 18.9671 5.60748 18.9893C5.09158 19.0307 4.75232 19.0996 4.37353 19.5198C4.13826 19.7809 4.02061 20.2586 4.05223 20.6041C4.08752 20.988 4.27642 21.3413 4.57609 21.584C4.83776 21.7976 5.03387 21.8799 5.37308 21.9048C5.92558 21.9451 6.52215 21.9282 7.07941 21.9272L10.0713 21.9254C13.0107 21.9257 16.0936 21.9743 19.0217 21.9231ZM15.1465 2.05855C15.2878 2.26821 17.8533 3.48898 18.1879 3.82526C18.5209 4.15977 19.7383 6.72778 19.9597 6.85478C19.9932 6.39739 19.9664 5.82279 19.972 5.35708C19.9852 4.26805 19.9496 3.1538 19.9765 2.0666L16.7228 2.05537C16.3355 2.05475 15.5053 2.02596 15.1465 2.05855ZM16.871 9.00326C15.9289 8.59121 14.7496 8.25086 13.7819 7.85805C13.4942 7.74124 12.7937 7.52383 12.5715 7.36224C12.3883 6.8728 11.1554 3.32684 10.9714 3.1782L9.94628 5.95005C9.78505 6.38687 9.6171 6.91192 9.4052 7.3211C9.36748 7.39384 9.23414 7.46899 9.15993 7.4976C8.50996 7.74782 7.81506 8.01932 7.15872 8.24654C6.51418 8.46965 5.74514 8.80445 5.11023 8.98483C5.48423 9.16945 5.98879 9.3446 6.38613 9.49124L8.23406 10.1717C9.68831 10.7065 9.38789 10.5308 9.92212 11.999L10.6878 14.0791C10.7388 14.2171 10.9262 14.7611 11 14.8437C11.103 14.6866 11.2911 14.1525 11.3638 13.9547L12.1391 11.8352C12.2449 11.5469 12.4932 10.8145 12.6509 10.5835L15.4523 9.54627C15.8308 9.40659 16.5417 9.16783 16.871 9.00326ZM19.9207 12.1521C19.5838 12.7266 18.4496 14.9872 18.0844 15.2782C17.701 15.5835 15.2652 16.779 15.1769 16.9353L15.2138 16.9758C16.7085 17.0233 18.4552 16.9861 19.9647 16.9806L19.9739 13.875C19.9743 13.6269 20.0097 12.2506 19.9207 12.1521Z" fill="white"/></svg>