<svg width="24" height="24" viewBox="0 0 24 24" fill="none" xmlns="http://www.w3.org/2000/svg"><g clip-path="url(#clip0_5988_141)"><path d="M15.3918 4.89958C15.0011 4.67125 14.7715 4.23758 14.6551 3.81483C14.2574 2.36968 15.0862 1.01254 16.5296 0.626934C17.4845 0.373348 18.5016 0.502831 19.3612 0.987451C21.636 2.2894 21.9319 5.1049 20.6817 7.23651C21.2179 6.93603 21.8166 6.19595 22.1504 5.69665C22.3836 5.3415 22.5985 4.97476 22.7941 4.59783C22.8601 4.46926 23.0514 4.00382 23.1446 3.95621C23.2221 3.97711 23.2823 4.05084 23.3316 4.11171C23.833 4.72324 24.0676 5.50846 23.9831 6.29269C23.867 7.323 23.1047 8.37722 22.307 9.00723C22.7753 9.04614 23.4987 9.02137 23.9997 9.02881C23.992 9.27708 23.9416 9.52227 23.8504 9.75363C23.4553 10.7337 22.2635 11.3397 21.3444 11.7297C21.149 11.8099 21.0115 11.8647 20.8094 11.9234L20.831 11.9747C21.6659 13.9819 21.6424 16.0106 20.7668 17.9865C20.7162 18.1009 20.6406 18.3066 20.5249 18.354C20.343 18.2962 19.0622 17.6661 18.886 17.5515C18.8493 18.1142 18.7937 18.7392 18.6451 19.2796C18.5655 19.5697 18.2239 20.756 17.9899 20.8941C17.8457 20.9169 16.5335 20.227 16.3181 20.1023C16.0911 20.4598 15.8412 20.8254 15.551 21.1333C14.781 21.9505 13.0335 23.1088 11.9908 23.5C10.852 23.0317 9.23516 21.9825 8.39253 21.0828C8.12029 20.7921 7.89777 20.4587 7.69131 20.1209C7.14356 20.406 6.55046 20.6878 5.99431 20.9629C5.4532 19.9671 5.17028 18.6631 5.14691 17.5422C4.88094 17.6751 3.65171 18.32 3.45036 18.3509C3.37295 18.3105 3.31233 18.1834 3.27717 18.1021C2.31963 15.8875 2.3827 14.1101 3.19584 11.9208C2.55877 11.7885 1.1787 11.0516 0.735736 10.5881C0.251724 10.0815 0.0232481 9.72354 0.0118907 9.02849C0.560312 9.0084 1.12769 9.0303 1.68288 9.01563C0.99153 8.36103 0.373251 7.72018 0.105212 6.77298C-0.09312 6.07214 -0.00995715 5.24041 0.345441 4.59957C0.418681 4.46751 0.722827 3.97253 0.85721 3.9358C0.962788 4.07104 1.21506 4.61415 1.31529 4.79951C1.82059 5.7339 2.42962 6.67458 3.34749 7.25091C2.41217 5.8735 2.28336 3.88724 3.16576 2.47035C3.86621 1.34564 4.73215 0.684531 6.05907 0.525117C6.33425 0.507882 6.58113 0.50718 6.86287 0.524702C8.93627 0.653643 10.1944 2.80655 8.97218 4.56512C8.86965 4.71264 8.74371 4.80796 8.60461 4.92301C8.54541 4.54063 8.51603 4.24425 8.3143 3.90957C7.97112 3.3402 7.40903 3.06705 6.74428 3.11497C6.44031 3.13687 6.20759 3.19506 5.94598 3.35893C5.57284 3.59035 5.30967 3.96172 5.21628 4.38869C4.83689 6.09349 7.08062 6.9733 8.38536 7.24595C8.7777 7.10767 9.08048 6.96022 9.50384 6.83101C10.9793 6.38152 12.5497 6.33724 14.0485 6.70291C14.3187 6.77059 14.581 6.85169 14.8381 6.93725C15.2161 7.06075 15.4976 7.30434 15.91 7.18322C16.9403 6.88056 18.5876 6.2492 18.8012 5.03626C18.8776 4.60708 18.7767 4.16544 18.5213 3.811C18.2719 3.45287 17.8888 3.20851 17.4571 3.13219C16.799 3.02172 16.1838 3.23065 15.7792 3.76178C15.498 4.13083 15.464 4.45943 15.3918 4.89958ZM10.3086 14.1404C10.316 14.3965 10.3331 14.6196 10.4646 14.8505C10.6926 15.2518 11.3258 15.5055 11.1362 16.0616C11.0393 16.3455 10.7853 16.5085 10.4884 16.4945C9.19223 16.4333 7.96976 15.6013 6.86062 15.0164C6.96777 15.4065 7.06481 15.6992 7.30352 16.03C8.65988 17.9094 10.9022 18.6011 13.1187 18.2574C13.2577 18.2259 13.4026 18.1932 13.5403 18.1577C14.9524 17.7934 16.8529 16.5461 17.1282 15.0197C16.0357 15.6127 14.9573 16.3102 13.7119 16.4939C13.1307 16.5797 12.6307 16.0944 12.8603 15.6968C13.3134 14.9118 13.5435 15.2054 13.7076 14.1478C12.7979 14.1288 11.7299 14.1152 10.8187 14.1387C10.6448 14.1439 10.4825 14.151 10.3086 14.1404ZM13.7153 12.421C14.1845 12.4202 14.8514 12.4556 15.2869 12.3671C15.9916 12.1917 16.3962 11.5177 16.2131 10.8182C16.1274 10.499 15.9154 10.2277 15.6253 10.0661C15.3214 9.89536 15.0173 9.90227 14.6814 9.93534C13.5046 10.2959 13.7149 11.4529 13.7153 12.421ZM9.28375 12.4237L10.2565 12.421C10.2687 11.2142 10.4858 9.76224 8.68687 9.93513C8.33336 10.0444 8.044 10.2479 7.86986 10.582C7.71922 10.8747 7.69147 11.2148 7.79266 11.5278C7.90088 11.8553 8.13825 12.1251 8.45044 12.2755C8.70912 12.3992 8.99985 12.4254 9.28375 12.4237Z" fill="white"/></g><defs><clipPath id="clip0_5988_141"><rect width="24" height="24" fill="white"/></clipPath></defs></svg>