<svg width="24" height="24" viewBox="0 0 24 24" fill="none" xmlns="http://www.w3.org/2000/svg"><path d="M1.54458 9.60553C1.8494 9.69538 2.12155 9.8298 2.38847 9.99739C3.93808 10.9701 4.1662 12.5302 4.18082 14.2147C4.19611 14.6229 4.1353 15.0433 4.21216 15.4457C4.25864 15.697 4.46219 15.912 4.66017 16.0648C5.40015 16.6359 6.15594 17.1897 6.90405 17.7504C7.14191 17.9288 7.39734 18.1303 7.64988 18.2832C7.82872 17.448 7.74169 17.2883 7.15614 16.7048L6.33645 15.8856C5.7938 15.3379 5.39938 14.9609 5.31923 14.1502C5.24507 13.4004 5.40664 12.7906 5.88172 12.2049C6.10028 12.397 6.36768 12.6915 6.57383 12.9074L7.67994 14.071C8.47928 14.9168 9.37111 15.7951 10.0911 16.6907C10.4819 17.2716 10.8621 17.8658 11.0194 18.564C11.2192 19.4509 11.116 20.6007 11.1347 21.5347C11.1462 22.1018 11.1575 23.0542 11.1139 23.5819C9.66385 24.3333 7.01638 24.0767 5.93694 22.773C5.90899 22.7393 5.86983 22.5796 5.87 22.534C5.87227 21.8572 5.95133 21.1475 5.67365 20.5074C5.47617 20.0542 5.03364 19.7047 4.66507 19.3818L3.18045 18.0703C2.86152 17.791 2.24226 17.2804 2.00687 16.9631C1.79509 16.6739 1.64809 16.3425 1.57581 15.9915C1.5379 15.8086 1.50887 15.5476 1.50759 15.3594C1.5033 14.2998 1.50502 13.1988 1.5078 12.1449C1.5086 11.8478 1.47396 9.71393 1.54458 9.60553Z" fill="white"/><path d="M22.3809 9.62747C22.4387 9.62278 22.41 9.61863 22.4672 9.65058C22.5268 9.88686 22.4869 11.2235 22.4871 11.5452L22.4877 14.165C22.4872 15.2629 22.6425 16.3264 21.804 17.1818C21.4566 17.5363 21.0739 17.8204 20.7224 18.16C19.9715 18.8854 19.0095 19.5124 18.4079 20.3632C18.0386 20.9186 18.139 22.042 18.1069 22.6944C17.9336 23.0162 17.3975 23.3835 17.0672 23.5316C15.6265 24.1774 14.3076 24.1082 12.8679 23.6042C12.827 23.0249 12.8555 22.3719 12.8571 21.7847C12.863 19.7254 12.6166 18.485 13.9144 16.7039C14.0476 16.5141 14.1922 16.3326 14.3476 16.1605C15.4332 14.9442 16.6186 13.7935 17.723 12.5919C18.191 12.0826 18.2767 12.2236 18.528 12.8599C18.6674 13.2112 18.7286 13.5886 18.7077 13.966C18.5975 16.0984 15.7072 16.5621 16.3854 18.291C17.0942 17.6916 17.9363 17.162 18.6627 16.5748C19.0084 16.2952 19.7571 15.8734 19.8041 15.3953C19.9316 14.1016 19.6853 12.8407 20.2401 11.5967C20.7016 10.5619 21.3506 10.0416 22.3809 9.62747Z" fill="white"/><path d="M11.5709 0.0172581C12.0246 -0.0256028 12.6301 0.0124397 13.0677 0.119482C14.1992 0.400269 15.1724 1.11943 15.7723 2.11817C16.3518 3.08105 16.5394 4.36817 16.2525 5.45205C15.8932 6.80938 15.1513 7.59612 13.9871 8.29366C14.1954 8.7045 14.4159 9.17183 14.6386 9.56752C15.8365 9.31684 17.2931 9.07106 18.3792 9.80338C18.6508 9.98667 18.8407 10.2296 19.0445 10.4811C18.5681 10.4882 17.7796 10.5987 17.371 10.8434C16.3384 11.4619 15.2472 12.6979 14.4042 13.5759L12.2487 15.8128L12.025 16.0741C11.7441 15.85 11.0728 15.1098 10.795 14.8179L9.16168 13.1252C8.46877 12.3991 7.71674 11.5787 6.89382 10.9993C6.3851 10.6411 5.57954 10.4437 4.95831 10.5057C5.14556 10.2556 5.351 9.97708 5.61396 9.80338C6.77765 9.03476 8.14413 9.35237 9.37764 9.56837C9.54835 9.18652 9.87809 8.65225 10.0055 8.27183C8.70891 7.55938 7.833 6.37156 7.66704 4.88705C7.52946 3.71798 7.86431 2.54234 8.59738 1.62079C9.36686 0.668607 10.3567 0.147374 11.5709 0.0172581Z" fill="white"/></svg>