<svg width="24" height="24" viewBox="0 0 24 24" fill="none" xmlns="http://www.w3.org/2000/svg"><g clip-path="url(#clip0_5988_146)"><path d="M12.039 17.6569C12.4075 17.6722 12.9279 17.3433 13.4102 17.4914C13.6938 17.5785 14.6086 17.9634 14.5038 18.3133C14.2861 18.5453 13.6499 18.723 13.3279 18.8145C12.9936 18.9182 12.3055 19.2071 12.0212 19.1824C11.6158 19.1471 9.69365 18.5477 9.49229 18.3238C9.48134 18.2657 9.47071 18.2312 9.51405 18.1743C9.82512 17.7662 10.1005 17.598 10.5811 17.4874C11.219 17.4226 11.4832 17.6337 12.039 17.6569Z" fill="white"/><path fill-rule="evenodd" clip-rule="evenodd" d="M20.6544 0.5C20.7508 0.566439 20.836 0.713361 20.9125 0.812307C21.4333 1.47467 21.8728 2.19674 22.2211 2.96306C22.9852 4.64132 23.3276 6.66253 22.9118 8.47964C22.8216 8.87387 22.632 9.32253 22.4884 9.70264C23.0017 9.58679 23.4849 9.2667 23.9425 9.01369C23.9673 9.03804 23.9856 9.06232 23.9873 9.09968C24.0638 10.6765 23.8071 12.45 22.8932 13.7755C22.6381 14.1455 21.9412 14.8347 21.4979 14.9136C21.4195 14.8701 21.3938 14.7398 21.3908 14.6548C21.3213 12.6672 20.9332 10.6593 20.1106 8.83942C20.03 8.66148 19.9061 8.38198 19.7824 8.23605C19.6871 8.70266 19.7152 9.29492 19.7161 9.78342L19.7186 11.6356C19.7188 12.1429 19.7127 12.6473 19.7188 13.162C19.7582 16.4502 19.2216 19.9844 17.5635 22.8726C17.4676 23.0397 17.3464 23.2851 17.2422 23.4262C17.0037 23.3085 17.2858 19.4814 17.0702 19.1868C17.016 19.1822 17.0343 19.1708 16.999 19.2195C15.5372 21.2389 14.4702 23.9151 11.4318 23.4458C9.76854 23.1891 9.08601 22.2996 8.22616 21.0304L5.34123 16.8028C5.09818 16.4453 4.65033 15.7391 4.33361 15.3968C4.21995 15.294 4.03679 15.2142 3.90096 15.1532C1.90943 14.2592 0.39963 12.4931 0.0720377 10.3146C0.0330372 10.0552 -0.0622644 9.19967 0.0609442 8.98725C0.119151 8.98627 0.375741 9.24533 0.451518 9.30622C0.996491 9.74393 1.64048 10.293 2.30183 10.5215C2.26329 10.392 2.21036 10.2525 2.15447 10.1305C0.930283 7.46078 1.02682 4.17487 2.52998 1.63242C2.64059 1.44535 2.76702 1.26177 2.88162 1.07319C2.97585 0.939904 3.19645 0.598389 3.32368 0.539975C3.45059 0.575914 3.49254 0.816003 3.5152 1.00011L3.53383 1.15584C3.62501 1.48641 3.65471 1.83406 3.72891 2.17667C3.98992 3.38157 4.3356 4.58483 4.96259 5.65702C5.06458 5.83141 5.18297 6.00556 5.38519 6.05594C5.50285 6.0163 5.63785 5.65272 5.69225 5.52793C5.86727 5.12626 6.0811 4.76498 6.31536 4.39988C6.8199 3.61355 7.44373 3.04153 8.23914 2.55373C10.2054 1.26687 12.5695 0.603642 14.9105 1.0861C15.083 1.12162 15.251 1.14478 15.3511 1.29597C15.3759 1.39132 15.367 1.4652 15.3264 1.55622C14.4723 3.47239 13.3592 5.35448 12.5888 7.29892C12.8858 7.10547 13.1752 6.7486 13.4443 6.50628C14.3022 5.73366 15.0952 4.89827 15.9242 4.09632C16.2457 3.78529 16.4693 3.82616 16.8621 3.97181C17.4189 4.1783 17.9295 4.48067 18.3543 4.89582C18.6113 5.13951 18.8718 5.50108 19.1897 5.64661C19.7314 4.63686 19.9755 3.75114 20.2115 2.64201C20.2912 2.26797 20.4818 0.748572 20.6134 0.510618L20.6544 0.5ZM16.3148 9.92125C15.3036 9.25236 13.6511 10.2903 12.8339 10.8952C12.595 11.0481 12.3041 11.371 12.0647 11.4834C11.8353 11.5109 11.428 11.0849 11.2815 10.9802C10.389 10.3422 9.27868 9.53951 8.12297 9.74386C7.54932 9.84531 7.41164 10.1721 7.1367 10.5888C7.89878 10.6993 8.30862 10.7469 8.97675 11.1457C9.94455 11.7233 10.7043 13.0853 10.9395 14.1649L10.9878 14.3242C11.0445 14.5135 11.1126 14.7692 11.0686 14.8728C10.9644 14.858 10.5431 14.3808 10.4191 14.2652C9.65275 13.6091 8.84836 13.0331 7.88582 12.7041C8.0218 13.275 8.39609 14.3674 8.59141 14.9592L6.89411 14.1801C6.84503 14.5027 6.83434 15.5933 6.88406 15.9065C7.10142 16.1506 7.56299 16.8809 7.77028 17.1849L9.46696 19.664C10.0809 20.5763 10.6473 21.6271 11.8786 21.6927C13.1367 21.7596 13.6734 20.8915 14.2884 19.9952L16.3294 17.0081C16.539 16.7023 17.0835 16.0041 17.1441 15.5817C17.1614 15.4609 17.188 14.3355 17.0434 14.2292C16.7844 14.2446 15.6565 14.9464 15.4685 14.9003C15.3902 14.7135 16.1368 12.9526 16.0548 12.7403C15.6629 12.6897 14.1562 13.7811 13.6559 14.2109L13.5699 14.2875L13.5094 14.3464C13.3436 14.5143 13.0222 14.8674 12.9059 14.8659C12.8383 14.7359 13.0214 14.2842 13.0782 14.1391C13.0797 14.0702 13.1291 13.9318 13.1506 13.8563C13.5358 12.5026 14.4971 11.0497 15.9713 10.7489C16.2075 10.7007 16.4938 10.6783 16.7177 10.6085C16.7909 10.5289 16.7723 10.5682 16.7864 10.4595C16.7331 10.2687 16.4765 10.0282 16.3148 9.92125Z" fill="white"/></g><defs><clipPath id="clip0_5988_146"><rect width="24" height="24" fill="white"/></clipPath></defs></svg>