<svg width="24" height="24" viewBox="0 0 24 24" fill="none" xmlns="http://www.w3.org/2000/svg"><path d="M15.1137 2.04646C15.395 2.01278 15.7918 2.02529 16.083 2.02595L18.9094 2.02619C19.1853 2.02641 19.4784 2.01721 19.7524 2.05291C19.8486 2.06545 19.922 2.13412 19.9924 2.20889C20.5541 2.80608 21.0957 3.4212 21.6465 4.03343C22.0575 4.49029 22.511 4.96276 22.8949 5.44599C22.9364 5.49817 22.958 5.55655 22.9606 5.62618C22.9814 6.19948 22.9708 6.78358 22.9713 7.35884C22.9719 7.88005 22.9761 8.41216 22.9594 8.93205C22.9565 9.02224 22.9081 9.11121 22.8687 9.18554C22.7058 9.49262 22.0366 10.1802 21.9966 10.4854C22.0796 10.6606 22.7932 11.3697 22.977 11.6243C22.9919 11.8565 22.9938 12.1444 22.9887 12.3768C22.9565 13.8536 23.0369 15.3803 22.9774 16.8525C22.8843 17.0133 22.3454 17.5897 22.182 17.7703L20.5832 19.5434C19.8561 20.3173 19.1431 21.1653 18.4192 21.9478C18.1168 22.2746 17.8112 22.6472 17.501 22.9589C17.257 23.0134 16.4295 22.9888 16.131 22.9886L13.3642 22.991L8.70303 22.9879C8.18182 22.9872 6.92776 23.0296 6.47974 22.9598C6.30704 22.8092 5.93439 22.3694 5.75626 22.1712L4.34006 20.5964L2.19952 18.2223C1.83519 17.819 1.35952 17.321 1.02032 16.9026C0.980187 16.1907 1.01157 15.0435 1.0134 14.3053C1.01534 13.5171 0.981814 12.3771 1.02601 11.617C1.1544 11.4204 1.85465 10.6819 2.04395 10.4762C1.75715 10.018 1.29137 9.50781 1.02244 9.0479C0.991417 8.55717 1.01532 7.80305 1.01293 7.28914C1.01055 6.77553 0.993221 5.99744 1.02692 5.49956C1.11718 5.36094 1.44958 5.00072 1.56259 4.87668C1.95023 4.45125 2.41932 3.91867 2.80963 3.52015C3.04513 3.27969 3.98613 2.16533 4.18388 2.03882C5.62514 1.93393 7.21339 2.07906 8.66622 2.04105C8.77088 2.03833 8.9141 2.09903 8.9856 2.17945C9.42847 2.67772 10.0416 3.26065 10.4312 3.78852C10.4662 4.58717 10.4432 5.5654 10.4397 6.37088C10.7079 6.35445 11.1612 6.37913 11.4532 6.3794C12.1439 6.37657 12.8346 6.37798 13.5253 6.38362C13.5535 5.53381 13.5059 4.62241 13.5507 3.79094C13.6995 3.57015 14.0715 3.17217 14.2579 2.96839C14.517 2.68517 14.8412 2.30283 15.1137 2.04646ZM9.63501 14.2926C9.29226 14.6126 8.80893 15.1797 8.48063 15.5444L6.5337 17.7098C6.71882 17.9491 7.01242 18.2583 7.22028 18.489L8.41425 19.8143C8.60202 20.023 9.52901 21.0763 9.68377 21.1939C10.076 21.2355 10.764 21.2136 11.1792 21.2136L14.0304 21.2131C14.1148 21.2094 14.2244 21.208 14.3062 21.1989L16.3306 18.9551C16.6183 18.6359 17.1311 18.0342 17.4285 17.7595C16.5421 16.731 15.6062 15.7436 14.7087 14.7261C14.5864 14.5874 14.458 14.4411 14.3301 14.3101C13.9649 14.2734 13.5723 14.2761 13.2048 14.2811C12.1366 14.296 11.0589 14.2622 9.99163 14.2878C9.8746 14.2915 9.7515 14.2981 9.63501 14.2926ZM3.39036 8.07675C3.4832 8.19273 3.67105 8.46374 3.80758 8.47966C3.95252 8.3806 4.89195 7.309 5.06374 7.1127C5.23232 6.92498 5.559 6.54435 5.73312 6.39482C6.28577 6.35633 7.49369 6.35937 8.06332 6.3804C8.07162 5.82669 8.06006 5.23589 8.07564 4.68963C7.11041 4.67911 6.14512 4.67706 5.17986 4.68349C5.01792 4.77082 3.55318 6.41139 3.39198 6.63971C3.3832 7.00856 3.36997 7.71177 3.39036 8.07675ZM15.9156 6.37806C16.1617 6.35948 18.039 6.3625 18.1792 6.41128C18.5381 6.5363 19.8266 8.16689 20.2202 8.51938L20.3888 8.3224C20.4528 8.24277 20.5226 8.16052 20.5759 8.07248C20.5918 7.8157 20.5982 7.5414 20.599 7.28422C20.5998 7.01332 20.6338 6.68197 20.4521 6.47342C19.9767 5.92806 19.4845 5.39546 18.9995 4.86014C18.9457 4.80072 18.8999 4.75093 18.8368 4.70365C18.1792 4.64161 17.4165 4.70128 16.7526 4.68441C16.5016 4.67802 16.1565 4.71072 15.9167 4.66678C15.9096 5.23717 15.9093 5.80765 15.9156 6.37806ZM5.68194 9.94331C5.35428 10.325 5.00778 10.6896 4.67392 11.0645C4.52788 11.2285 4.29181 11.4734 4.16418 11.6507C4.13117 12.0436 4.14239 12.9121 4.15521 13.3334C4.39924 13.6154 5.52509 14.9715 5.73773 15.0505L6.71502 13.9639C6.83884 13.8268 7.17495 13.4696 7.25841 13.3238C7.26216 12.9967 7.29641 11.9265 7.23268 11.6702C7.19636 11.5241 5.81369 10.0332 5.68194 9.94331ZM18.3188 15.0495C18.5844 14.7191 19.7456 13.5716 19.8122 13.2595C19.8902 12.8941 19.8314 12.0998 19.8265 11.6931C19.7239 11.5085 18.3603 9.98977 18.247 9.96415C17.9283 10.3006 17.6144 10.6427 17.3056 10.9903C17.1402 11.1738 16.8577 11.4736 16.7212 11.6727C16.7109 12.2056 16.7055 12.8196 16.7151 13.3529C16.9435 13.615 18.1263 14.9926 18.3188 15.0495Z" fill="white"/><path d="M11.2178 15.9974C11.5832 15.9697 12.0157 15.9992 12.382 15.9783C12.8976 15.9488 13.222 16.4401 13.582 16.8424C13.3929 17.12 12.6334 17.9236 12.3811 18.2024C12.289 18.3069 12.1123 18.5278 12.0065 18.585C11.873 18.5282 10.5995 17.0807 10.4083 16.8698C10.584 16.6612 11.0129 16.1289 11.2178 15.9974Z" fill="white"/></svg>