<svg width="24" height="24" viewBox="0 0 24 24" fill="none" xmlns="http://www.w3.org/2000/svg"><path d="M11.0964 0.0732139C11.1527 0.141037 11.1356 0.66496 11.1359 0.779784L11.1366 2.09068L11.1319 6.12556C10.157 6.3295 9.52114 6.50368 8.66745 7.06338C7.33284 7.93813 6.40569 9.30568 6.09213 10.862C5.77625 12.4188 6.10089 14.0363 6.99375 15.3543C8.00401 16.8528 9.37796 17.6008 11.1176 17.9426C11.076 16.7827 10.7534 15.8889 10.0172 14.9718C9.8003 14.6929 9.52701 14.4608 9.29991 14.1913C8.16803 12.8482 8.31512 10.7363 9.58772 9.52749C10.2599 8.90064 11.1565 8.56594 12.0784 8.59769C13.0026 8.6173 13.8807 9.00187 14.5182 9.66614C15.6288 10.8373 15.7736 12.6156 14.8669 13.9485C14.4521 14.5487 13.8945 14.9098 13.5037 15.6415C13.071 16.4518 12.903 17.0134 12.8784 17.9328C13.8094 17.7748 14.5876 17.4768 15.3674 16.9345C16.7142 16.0119 17.6363 14.596 17.931 12.9986C18.1909 11.4675 17.8327 9.89638 16.934 8.62535C15.9261 7.20768 14.5643 6.42768 12.8606 6.13599L12.8606 1.60454C12.8615 1.09603 12.8485 0.500173 12.8802 0C13.067 0.316268 13.5563 0.844093 13.8111 1.15547C14.4503 1.93683 15.1184 2.65011 15.9104 3.28194C16.4386 3.70323 17.0038 4.00343 17.5471 4.38925C18.9027 5.35495 19.9784 6.65747 20.6664 8.1661C21.687 10.4278 21.7738 12.9963 20.9081 15.3208C20.1366 17.3544 18.6859 19.0642 16.7979 20.1649C16.415 20.3882 16.0173 20.5713 15.6302 20.7853C15.063 21.1017 14.5277 21.4715 14.0316 21.8894C13.4567 22.3724 12.9462 22.8739 12.4686 23.4531C12.3728 23.5693 12.098 23.9476 11.9821 24C11.8998 23.9362 11.3872 23.2976 11.2599 23.1546C10.7647 22.5926 10.216 22.0794 9.62115 21.6224C8.37389 20.6676 7.06508 20.2436 5.8259 19.2063C1.33452 15.4466 1.40558 8.42804 5.9572 4.75017C6.74658 4.11233 7.59879 3.68718 8.3799 3.01793C9.41446 2.13152 10.2051 1.09606 11.0964 0.0732139Z" fill="white"/></svg>