<svg width="24" height="24" viewBox="0 0 24 24" fill="none" xmlns="http://www.w3.org/2000/svg"><path d="M11.9616 8.56278C12.1195 8.59936 13.6748 11.0506 13.6629 11.0797C13.3379 11.8255 12.476 12.9706 12.0416 13.675L12.0047 13.6788C11.9176 13.6372 10.4711 11.3999 10.2964 11.128C10.4125 10.913 10.5946 10.6702 10.7235 10.4596C11.0969 9.84977 11.6147 9.17593 11.9616 8.56278Z" fill="white"/><path fill-rule="evenodd" clip-rule="evenodd" d="M11.9644 0C12.0428 0.00525763 12.1095 0.0453775 12.1684 0.0965121C13.7806 1.49767 15.4941 2.83179 17.0869 4.25229C17.0066 4.34792 16.8927 4.4538 16.8021 4.54088C16.2639 5.05809 15.7825 5.57415 15.5828 6.32091C15.3424 7.21993 15.8741 7.99791 16.7398 8.20562C17.1645 8.31174 17.6134 8.23934 17.9849 8.00495C18.7722 7.51095 18.808 6.50808 18.9908 5.67736C19.2192 4.63995 19.3725 3.57049 19.6127 2.53548C19.9667 2.69376 20.4211 3.06806 20.6875 3.34956C22.3041 5.05726 22.9947 7.12538 22.9963 9.4406C22.9733 9.42373 22.95 9.4073 22.9263 9.3914C22.5521 9.13967 21.6185 8.67447 21.199 8.81191C19.9845 9.20979 21.342 11.5317 21.5897 12.1463C22.1518 13.5412 22.6909 14.8523 23 16.287C22.8458 16.338 22.4738 16.4055 22.2961 16.4454C21.9054 16.5318 21.5188 16.6362 21.1374 16.7582C18.3115 17.6672 15.5264 19.6819 14.6833 22.6749C14.6434 22.8166 14.564 23.1265 14.4632 23.2162C13.7565 23.8447 12.9357 23.9828 12.033 24C11.859 23.9996 11.685 23.9936 11.5114 23.9822C10.8969 23.9455 10.3025 23.7462 9.78732 23.404C9.39633 23.1393 9.43728 23.0276 9.30804 22.5882C8.38353 19.445 5.31746 17.4309 2.3467 16.596C1.97006 16.4901 1.39154 16.3314 1.01464 16.307C1.2441 15.0238 1.99724 13.2326 2.48649 12.0264C2.73059 11.4027 3.11475 10.7947 3.25175 10.1361C3.66238 8.16175 1.94558 8.77018 1 9.46446C1.09917 8.23893 1.0884 7.56257 1.51794 6.33484C2.00349 4.947 3.09385 3.16959 4.41186 2.53203C4.62111 3.53269 4.80125 4.5433 5.00536 5.54568C5.12901 6.10499 5.1934 6.67952 5.39124 7.21831C5.64956 7.92184 6.34979 8.32317 7.0735 8.24163C7.5165 8.1948 7.9227 7.97021 8.20175 7.61775C9.34668 6.14249 6.99764 4.50474 6.9666 4.23784C7.05469 4.11981 7.44369 3.801 7.57567 3.68923L10.7536 1.00689C11.1288 0.689194 11.5758 0.290137 11.9644 0ZM9.70938 4.32535C10.2795 4.75352 10.7943 5.12956 10.9025 5.90126C11.02 6.73945 10.6654 7.7075 10.1768 8.37038C9.25945 9.615 7.99136 10.1262 6.66423 10.7277C7.11576 10.9462 7.54482 11.2325 7.94948 11.5303C9.61199 12.7537 10.5393 14.2962 11.2136 16.2274C11.3089 16.5004 11.9651 18.7321 12.0093 18.7736C12.1106 18.564 12.2209 18.1299 12.2891 17.8933C12.4141 17.4482 12.5483 17.0059 12.6913 16.5665C13.3755 14.4868 14.276 12.8182 16.0789 11.5152C16.4484 11.2481 16.9323 10.9127 17.3475 10.7383C17.0285 10.5459 16.5226 10.3676 16.1607 10.1868C14.8189 9.51662 13.5936 8.56564 13.2042 7.0279C13.05 6.41873 13.0215 5.81196 13.3486 5.25635C13.6031 4.82392 13.9163 4.6186 14.301 4.32525C13.9874 4.05305 12.1998 2.44414 11.9804 2.36266L9.70938 4.32535ZM5.27969 12.9305C5.57028 14.4835 5.4934 15.6346 6.96969 16.6069C7.43701 16.9146 8.98371 17.8692 9.48031 17.9439C9.45481 15.4945 7.78092 14.3679 5.88763 13.2657C5.73992 13.1797 5.42438 12.9707 5.27969 12.9305ZM18.671 12.948C17.0783 13.8886 15.1808 14.8674 14.6661 16.8312C14.6257 16.9855 14.4585 17.8546 14.6097 17.9374C15.5687 17.5422 16.897 16.8081 17.6618 16.0928C17.9284 15.8434 18.1092 15.5185 18.2626 15.1983C18.4182 14.8735 18.7322 13.3129 18.7149 12.9884C18.6884 12.9536 18.7011 12.9562 18.671 12.948Z" fill="white"/></svg>