<svg width="24" height="24" viewBox="0 0 24 24" fill="none" xmlns="http://www.w3.org/2000/svg"><path d="M1.73387 6.85089C1.92178 6.92473 3.21369 8.24903 3.44152 8.47404C3.37874 8.9082 3.27835 9.31535 3.2319 9.76731C3.14765 10.5878 3.17798 11.3228 3.26647 12.1357C4.22172 10.7417 5.29791 10.0317 6.85379 9.42134C6.8525 9.44954 6.8514 9.47777 6.85055 9.50602C6.84026 9.85223 6.8627 12.1934 6.93024 12.3627C7.50857 13.8118 10.2418 14.2151 11.6755 14.2391C13.3079 14.2664 16.1884 14.0286 17.0484 12.4311C17.2247 12.0872 17.1193 9.95506 17.1322 9.41615C18.1611 9.80137 19.2215 10.4308 19.9982 11.207C20.2773 11.486 20.5189 11.8053 20.7587 12.118C20.7751 11.6958 20.8223 11.2846 20.8266 10.8564C20.835 10.0281 20.7109 9.29886 20.5537 8.49116C20.7141 8.28026 22.1215 6.85852 22.275 6.85441C22.5255 7.0154 22.9966 8.132 23.1333 8.46449C24.156 10.9579 24.3578 13.9698 23.2817 16.4766C21.9398 19.6025 18.7794 21.4588 15.7047 22.5885C15.3156 22.7314 14.9184 22.8461 14.5326 23C14.7376 22.5623 14.9877 21.9405 15.1577 21.4865C15.4721 20.6468 15.6078 20.6375 16.2428 20.046C16.7721 19.5529 17.3497 18.9417 17.8055 18.3717C17.2953 18.5821 16.8687 18.7609 16.339 18.9351C13.2887 19.9382 9.05227 19.7817 6.1654 18.3364C6.59293 18.9392 7.26411 19.5618 7.78083 20.0934C8.11394 20.4362 8.47846 20.578 8.66786 21.0615C8.83889 21.4981 9.03227 21.9247 9.19373 22.3646C9.20488 22.5315 9.18995 22.6375 9.0872 22.7762C9.0449 22.7833 9.04737 22.7845 9.00605 22.774L8.99498 22.824C8.62228 22.7423 7.66248 22.3497 7.30227 22.2C4.52954 21.0391 1.81711 19.2108 0.647977 16.3277C-0.45509 13.6074 -0.0776606 10.2432 1.23474 7.64555C1.32014 7.47654 1.58061 6.91181 1.73387 6.85089Z" fill="white"/><path d="M11.6115 0.0122127C11.8252 -0.00504367 12.2028 -0.00459726 12.4087 0.0172974C13.3004 0.119812 14.1156 0.567395 14.6775 1.26294C15.246 1.9695 15.5092 2.87128 15.4095 3.77041C15.2803 4.92083 14.754 5.5826 13.8864 6.27403C14.3594 6.87174 14.9661 7.7765 15.4207 8.41105C15.3419 8.77348 14.1232 12.102 13.9606 12.3551C13.7153 12.5221 12.7697 12.5544 12.4292 12.5725C11.7872 12.584 10.5449 12.5666 9.95398 12.3591C9.52749 11.1105 8.93938 9.66725 8.56102 8.44145C8.81997 7.96754 9.39628 7.29473 9.70363 6.81861C9.82758 6.62664 9.96377 6.48325 10.0795 6.2649C9.26095 5.59704 8.73231 4.98544 8.59036 3.89482C8.33589 1.93924 9.63143 0.246216 11.6115 0.0122127Z" fill="white"/></svg>