<svg width="24" height="24" viewBox="0 0 24 24" fill="none" xmlns="http://www.w3.org/2000/svg"><g clip-path="url(#clip0_5844_344)"><path fill-rule="evenodd" clip-rule="evenodd" d="M14.6173 0C14.7905 0.141803 15.2285 0.49777 15.3477 0.654035L15.4082 0.701007C15.7185 0.94693 16.1363 1.35511 16.4146 1.62161C17.3043 2.47148 18.1548 3.36178 18.9634 4.2897C20.7927 6.38218 22.8912 9.31244 23.3881 12.1041C23.495 12.7388 23.5255 13.3841 23.4788 14.0261C23.2223 17.8572 20.7913 21.0794 17.41 22.7523C15.3398 23.7764 13.2704 24.1226 10.9746 23.9628C7.91118 23.7355 5.05706 22.3176 3.01985 20.0109C1.31763 18.0454 0.32102 15.4075 0.526725 12.8034C0.865599 8.51369 5.51537 3.35622 8.64093 0.647217C8.86967 0.419163 9.14848 0.218037 9.35773 0.00173168C9.30649 0.218029 9.11875 0.546293 9.00996 0.752092C6.53459 5.28731 2.95048 9.50887 4.41776 15.0858C6.12935 21.5912 15.9727 22.2275 18.9718 16.5926C21.669 11.5246 18.199 6.04316 15.5697 1.78461C15.4736 1.6289 15.2762 1.30752 15.2162 1.14973L15.2031 1.13295C15.2031 1.13295 14.6988 0.196664 14.6173 0Z" fill="white"/><path fill-rule="evenodd" clip-rule="evenodd" d="M11.933 1.80063C12.4405 1.97668 14.9094 5.84814 15.2699 6.47725C16.0886 7.90578 16.8547 9.57908 17.1725 11.2077C17.8356 14.6048 15.5162 17.6835 12.0223 17.7547C10.6626 17.7391 9.54608 17.3752 8.49569 16.4756C7.45119 15.5787 6.80036 14.3055 6.68377 12.9311C6.63197 12.1962 6.69431 11.4576 6.86855 10.7418C7.54308 7.86065 10.0277 4.02118 11.933 1.80063ZM11.9435 5.40274C10.7403 7.20696 7.72098 10.9631 10.4812 12.8296C10.9879 13.1722 11.4569 13.2747 12.0639 13.2836C12.6317 13.2421 12.9787 13.1354 13.4595 12.8203C14.1806 12.3478 14.6903 11.4772 14.5997 10.5905C14.4379 9.00638 13.4175 7.53199 12.5638 6.23265C12.4825 6.10997 12.0732 5.49915 12.0041 5.44355C11.9852 5.4281 11.9649 5.41443 11.9435 5.40274Z" fill="white"/></g><defs><clipPath id="clip0_5844_344"><rect width="24" height="24" fill="white"/></clipPath></defs></svg>