<svg width="24" height="24" viewBox="0 0 24 24" fill="none" xmlns="http://www.w3.org/2000/svg"><g clip-path="url(#clip0_5844_48)"><path d="M24 0C23.8261 0.358817 23.6192 0.928773 23.4644 1.31466L22.4708 3.78205L21.0795 7.22454C20.8218 7.86251 20.5256 8.55892 20.2936 9.20054C20.4113 9.6247 20.6503 10.2521 20.8004 10.6824L21.7615 13.4336L22.5422 15.6777C22.6782 16.0753 22.8484 16.6373 23.0101 17.0086C22.4042 16.6957 21.7161 16.387 21.0951 16.0937L18.0803 14.6645L16.6347 13.9722C16.3486 13.8348 15.9654 13.6337 15.6687 13.5479C15.8 13.0741 16.2979 11.9333 16.504 11.4247C17.1021 9.9655 17.6917 8.50281 18.2728 7.0367C17.7771 6.94155 17.2793 6.89396 16.7964 7.08001C16.4588 7.21059 16.1684 7.4399 15.9633 7.73794C15.6456 8.20524 15.2377 9.37922 14.992 9.9608C14.3412 11.5013 13.7542 13.1382 13.0844 14.6647C13.2442 15.111 13.7903 16.1844 14.0137 16.6531L15.661 20.1179C15.9647 20.7559 16.3248 21.4604 16.5933 22.106L16.623 22.1592C16.7687 22.4263 16.8721 22.7156 17.0235 22.9701C16.8258 22.9048 16.5353 22.8184 16.3493 22.742C14.7382 22.2226 13.1127 21.599 11.5048 21.0626C10.8702 20.851 9.82337 20.4267 9.19566 20.2981C8.85744 20.3768 7.74054 20.8563 7.34642 21.0154L3.54558 22.5482L1.28163 23.4574C0.92733 23.5983 0.30351 23.8151 0 24C1.00816 21.3023 2.19197 18.6344 3.23494 15.9476C3.38953 15.5493 3.56828 15.1576 3.69944 14.7508C3.45938 13.9353 3.06214 12.8906 2.77543 12.0694L1.00958 6.98353C3.41001 8.05386 5.93817 9.30568 8.32569 10.4455C8.16465 10.9507 7.83688 11.7047 7.63174 12.2115L6.37226 15.3208C6.27541 15.5603 5.81606 16.6492 5.78154 16.8549C5.82584 16.9192 5.84603 16.9356 5.92748 16.9584C6.72209 17.1817 7.65198 16.8513 8.08955 16.1432C8.32687 15.7591 8.50317 15.2612 8.67602 14.8338L10.3569 10.6754C10.5286 10.2506 10.7747 9.68189 10.9075 9.26003C10.7959 8.97162 10.546 8.48933 10.4015 8.18517L9.37118 6.01889C8.59755 4.39229 7.79053 2.58388 6.97638 0.994936C8.79772 1.57065 10.6331 2.2803 12.4491 2.88663C13.1799 3.13062 14.0321 3.47012 14.7639 3.67353C15.0115 3.62743 16.7701 2.88534 17.1018 2.75584C19.3974 1.85947 21.6926 0.861245 24 0Z" fill="white"/></g><defs><clipPath id="clip0_5844_48"><rect width="24" height="24" fill="white"/></clipPath></defs></svg>