<svg width="24" height="24" viewBox="0 0 24 24" fill="none" xmlns="http://www.w3.org/2000/svg"><g clip-path="url(#clip0_5844_88)"><path fill-rule="evenodd" clip-rule="evenodd" d="M2.91365 0.437356C5.08572 -0.356815 7.56914 0.00203455 9.64128 0.940034C12.9886 2.45526 15.2885 5.34068 16.5935 8.71716C16.6513 8.86676 16.9115 9.69892 16.96 9.73263C17.1829 9.37745 16.8823 7.36388 16.8005 6.92623C16.5214 5.43402 15.9557 3.93616 15.2779 2.58111C15.1771 2.3922 15.0589 2.20571 14.9468 2.02263C15.1438 2.09098 15.2757 2.14721 15.4652 2.2345C18.3347 3.74307 20.5564 7.07122 21.5465 10.0819C22.6008 13.2876 21.9644 16.6127 18.3981 17.626C17.6754 17.8314 16.8399 17.9876 16.0805 17.9911C18.4453 19.3543 21.1397 19.1464 22.6102 16.7044C22.7182 16.5251 22.8579 16.2026 22.9887 16.059C23.148 16.0783 23.2534 16.4776 23.3253 16.6285C23.8346 17.698 24.1148 18.9643 23.9552 20.1466C23.8171 21.2108 23.2566 22.1749 22.3998 22.822C21.193 23.7352 19.7101 24.0541 18.218 23.9927C14.7157 23.8484 11.5754 21.8592 9.49995 19.1012C8.70383 18.0329 8.04944 16.8662 7.55316 15.63C7.40222 15.262 7.26067 14.8928 7.15977 14.5077C7.13743 14.4225 7.1094 14.344 7.06503 14.2676L7.03088 14.2632C6.97747 14.3599 6.98212 14.6758 6.98162 14.7953C6.97631 16.003 7.18296 17.2225 7.51816 18.3802C7.76634 19.2283 8.08096 20.0556 8.45894 20.8545C8.63488 21.2297 8.86149 21.6352 9.02316 22.0006C8.41799 21.6928 7.93122 21.4568 7.38024 21.0357C5.13069 19.2946 3.40447 16.7387 2.49759 14.0531C1.9326 12.38 1.72809 10.3302 2.54222 8.71546C3.40562 7.00292 5.23786 6.29826 7.04308 6.07841C7.33692 6.0426 7.64454 6.04187 7.93654 6.00616C5.91209 5.02262 3.81357 4.62434 2.06982 6.39566C1.54642 6.92736 1.32222 7.42694 0.963445 8.05586C0.793999 7.60961 0.582561 7.19814 0.417392 6.74678C-0.0433896 5.4876 -0.201101 3.99608 0.352275 2.74071C0.839166 1.63609 1.78653 0.849487 2.91365 0.437356ZM14.3588 9.16855C13.4896 8.41792 12.2633 7.97049 11.1138 8.05854C11.0685 8.06203 11.0232 8.06623 10.9779 8.07096C10.0492 8.17245 9.47167 8.34986 8.67355 8.86141C7.89179 9.36249 7.94589 9.59926 8.24286 10.4449C8.99335 12.5817 11.2564 14.9233 13.3883 15.7013C13.8999 15.8763 14.0916 15.9125 14.6212 15.9802C15.5262 14.94 16.0811 13.8395 15.9789 12.4149C15.9003 11.1585 15.3159 9.98732 14.3588 9.16855Z" fill="white"/></g><defs><clipPath id="clip0_5844_88"><rect width="24" height="24" fill="white"/></clipPath></defs></svg>