<svg width="24" height="24" viewBox="0 0 24 24" fill="none" xmlns="http://www.w3.org/2000/svg"><path d="M16.0578 15.2523C16.0716 15.2619 16.103 15.2839 16.113 15.2972C17.0897 16.5886 17.5411 18.2811 17.5756 19.8558C16.807 21.3151 14.7787 23.2735 13.277 24C12.9341 23.865 12.4059 23.4969 12.0974 23.2772C11.2016 22.64 10.5571 21.9535 9.84365 21.1415C9.98543 21.0319 10.3547 20.8296 10.5311 20.7248C10.8842 20.5158 11.2287 20.2928 11.5636 20.0563C13.2776 18.8398 14.9477 17.0288 16.0578 15.2523Z" fill="white"/><path fill-rule="evenodd" clip-rule="evenodd" d="M11.5696 0C11.5494 0.207903 11.5619 0.602361 11.5619 0.822307L11.5577 7.83093C12.732 7.66839 13.8258 7.63414 15.0052 7.79655C15.0606 5.232 14.9675 2.64326 15.0197 0.0768169C15.0197 0.0768169 15.0536 0.0213253 15.0569 0.0158859C15.4656 0.126868 17.3803 0.704087 17.622 0.891598C17.8562 1.07329 21.4899 6.94199 21.9812 7.69298C21.8535 7.87276 21.5351 8.15661 21.3749 8.32288C20.8821 8.83438 20.2545 9.37164 19.8 9.90185C19.8372 9.93149 19.8735 9.96228 19.9088 9.99424C21.2522 11.2122 21.9646 13.1696 21.9984 14.9421C22.0349 16.8524 21.4374 18.7224 20.3223 20.286C19.995 20.745 19.6914 21.0713 19.3132 21.4779C19.3791 20.8906 19.3028 20.2378 19.2835 19.655C19.1762 16.403 17.7525 14.5753 15.8932 12.0496C15.5468 12.6361 15.2723 13.2959 14.8759 13.9389C13.2552 16.5675 11.4021 18.4828 8.61171 19.8621C7.52263 20.3581 6.54211 20.713 5.31819 20.6637C3.22772 20.5797 1.92342 19.1628 2.00349 17.1089C2.0307 17.1384 2.05878 17.1671 2.08772 17.1949C2.42545 17.5181 3.12488 17.9055 3.60129 17.8721C5.08614 17.7681 5.29513 15.4031 5.39755 14.2991C5.46572 13.5645 5.37634 12.7359 5.57005 12.0551C5.79713 11.257 6.34933 10.6125 6.9054 10.0283C6.12485 9.31393 5.36492 8.4589 4.57449 7.75495C4.59109 7.71586 4.60978 7.67765 4.63044 7.64051C4.96855 7.03242 8.83125 0.962585 8.93498 0.883133C9.17497 0.699362 11.1301 0.129396 11.5696 0ZM9.75264 4.46698C9.13742 5.42757 8.52778 6.39172 7.92385 7.35927C8.13921 7.55947 8.3503 7.7641 8.55704 7.97297C8.74225 8.15494 8.98055 8.40216 9.17836 8.56096C9.38255 8.47702 9.58774 8.39546 9.79375 8.31608C9.83088 7.50284 9.78923 6.61415 9.80678 5.79419C9.81066 5.61188 9.81885 4.62988 9.78432 4.49969L9.75264 4.46698ZM16.7683 8.16914C17.0135 8.25941 17.2976 8.37197 17.5469 8.43763C17.7332 8.24441 17.9148 8.05426 18.1103 7.8696L18.6372 7.34798C18.4211 7.01523 16.8926 4.53588 16.7752 4.48987L16.7683 8.16914Z" fill="white"/></svg>