<svg width="24" height="24" viewBox="0 0 24 24" fill="none" xmlns="http://www.w3.org/2000/svg"><path fill-rule="evenodd" clip-rule="evenodd" d="M14.6472 0.00976135C14.8989 -0.00788479 15.1593 0.00268745 15.4121 0.00829868C15.2114 0.279079 14.9939 0.909303 14.8801 1.25219C13.7444 4.67351 15.2236 6.93317 18.7369 5.14832C18.9796 7.3173 19.6249 8.19723 20.6693 9.98337C20.9376 10.4491 21.186 10.9265 21.4136 11.414C22.0799 12.8073 22.6749 14.7362 23 16.2541C22.874 16.4155 22.5708 16.6652 22.4085 16.7938C21.2515 17.7101 19.3769 18.5428 17.9441 18.851C17.674 19.7804 17.5793 20.9286 17.3403 21.8827C17.2486 22.2491 17.1436 22.7851 17.0955 23.157L15.196 21.2329C14.9033 20.9363 14.4356 20.4348 14.1313 20.1858C13.8902 20.2264 13.5968 20.2995 13.3541 20.3529C13.1819 20.5498 12.7494 21.3154 12.5993 21.569L11.166 24C10.8234 23.5035 9.17579 20.4671 8.9321 20.3617L8.91736 20.3556C8.75709 20.2867 8.3786 20.224 8.19259 20.1881C8.01135 20.3147 7.19567 21.1445 6.9819 21.3735C6.46604 21.9261 5.72445 22.5928 5.2556 23.1487C5.23088 23.0596 5.21267 22.9743 5.19705 22.8833C4.94726 21.4269 4.73075 19.9626 4.47528 18.5075C4.30776 18.3191 3.67278 17.9229 3.42148 17.7235C2.57332 17.0504 1.68642 16.2745 1 15.4311C1.72854 14.3375 3.68903 12.8662 4.78834 12.1694C9.1465 9.47614 13.8574 9.69138 18.0761 12.5411C18.4914 12.8248 18.8954 13.1252 19.2872 13.4413C19.5293 13.6387 19.7624 13.8555 20.0131 14.0391C19.0822 11.7157 17.9207 9.65549 15.8232 8.2661C11.1994 5.20335 5.58785 7.61121 2.2278 11.3999C1.79274 11.8904 1.35733 12.3681 1.00072 12.9134C1.00025 12.7792 1.00147 12.6441 1.00052 12.5105C0.975651 8.96928 3.00188 5.6513 5.39569 3.2177C5.62562 2.98397 5.87577 2.77157 6.10324 2.53401C6.00769 3.418 6.13425 4.59455 6.94294 5.1128C7.15738 4.57687 7.83693 3.64189 8.21888 3.20255C9.9237 1.24157 12.0996 0.194985 14.6472 0.00976135ZM10.2975 12.1264C10.115 12.1342 9.74928 12.3146 9.57316 12.4084C8.79469 12.8308 8.21296 13.5486 7.9554 14.4047C7.67943 15.3202 7.77151 16.1795 8.21527 17.0191C8.63699 17.8178 9.35676 18.4123 10.2138 18.6694C11.0554 18.9203 11.9607 18.8262 12.7346 18.4075C13.5215 17.9727 14.1336 17.2423 14.3871 16.3668C14.6412 15.5013 14.5433 14.5687 14.1152 13.7768C13.6814 12.9792 12.9556 12.3865 12.0944 12.1266L12.0751 12.1726C12.4867 12.3517 12.8265 12.6858 13.0373 13.084C13.3069 13.5959 13.365 14.1954 13.1986 14.7506C13.0271 15.3078 12.6446 15.7733 12.1349 16.0451C11.6502 16.3022 11.0163 16.3397 10.4997 16.1728C9.96742 15.9952 9.52525 15.6129 9.26825 15.1082C8.68346 13.95 9.21236 12.71 10.322 12.1411L10.2975 12.1264Z" fill="white"/></svg>