<svg width="24" height="24" viewBox="0 0 24 24" fill="none" xmlns="http://www.w3.org/2000/svg"><g clip-path="url(#clip0_5844_163)"><path d="M11.9843 0C12.2824 0.134751 22.8986 11.2205 24 12.385C23.9531 12.6137 23.7281 13.1613 23.6342 13.4044L22.9318 15.2214L21.4405 19.0977C21.2523 19.5853 20.7999 20.8602 20.5174 21.3352C20.4864 21.3873 19.7037 21.8501 19.5914 21.9197L17.5391 23.1928C17.1817 23.413 16.586 23.7581 16.2741 24C16.4694 23.2466 16.9295 22.0129 17.1928 21.2435L18.8324 16.4695C18.0902 16.7944 17.1518 17.0718 16.3944 17.3959C16.0874 17.5273 15.7651 17.6159 15.4614 17.773C15.3005 18.0597 15.0839 18.7154 14.9499 19.0392C14.5299 20.0546 14.1591 21.2025 13.7139 22.2017C12.8586 20.5714 12.8035 20.6643 12.9726 18.8198C13.0624 17.7851 13.176 16.7526 13.3132 15.7235C13.5213 14.2242 13.7734 12.7401 14.864 11.6249C15.5313 10.9425 16.143 10.7183 17.0547 10.6291C16.6189 10.2686 15.6718 9.65911 15.1685 9.31791C14.1416 8.62183 13.0837 7.84409 12.0498 7.17579C11.9103 7.14351 10.5339 8.14356 10.2646 8.32961L6.92929 10.625C8.37761 10.782 9.3128 11.4574 9.97034 12.823C10.1788 13.26 10.3361 13.7213 10.4387 14.1969C10.8624 16.101 10.9698 18.266 11.1432 20.2151C11.1664 20.4755 10.4175 22.0536 10.2668 22.1298C10.2061 22.0694 8.72371 18.1713 8.56003 17.7629C8.20699 17.6041 7.6819 17.4224 7.31182 17.2811C6.60216 17.0056 5.89002 16.737 5.17549 16.4753C5.29597 16.7477 5.42628 17.1739 5.52628 17.4685L6.11564 19.1963C6.6444 20.738 7.2631 22.4372 7.73495 23.9826C6.34967 23.0538 4.83218 22.2577 3.46035 21.3059C3.37143 21.2442 2.80175 19.7054 2.7158 19.4828L1.47888 16.2697C1.0218 15.078 0.399376 13.5999 0 12.415C0.20546 12.1335 1.10609 11.2392 1.40329 10.9321L4.27767 7.95763L9.25967 2.79953C10.1046 1.92433 11.1194 0.814207 11.9843 0ZM17.4007 15.0429C18.0858 14.8976 18.5263 14.2035 18.3829 13.4951C18.2396 12.7866 17.5671 12.3337 16.8832 12.4852C16.2036 12.6357 15.7694 13.3266 15.9119 14.0307C16.0543 14.7348 16.7198 15.1873 17.4007 15.0429Z" fill="white"/></g><defs><clipPath id="clip0_5844_163"><rect width="24" height="24" fill="white"/></clipPath></defs></svg>