<svg width="24" height="24" viewBox="0 0 24 24" fill="none" xmlns="http://www.w3.org/2000/svg"><path d="M16.9786 12.8368C18.6361 13.6487 20.3393 14.5578 21.9863 15.4058C22.0069 16.2154 21.9873 17.0353 21.9954 17.8459C21.998 18.1136 22.0179 18.5861 21.9481 18.8309C21.8373 18.9815 20.0181 19.8772 19.7359 20.0222L14.6739 22.6285C13.8342 23.0614 12.8413 23.6118 11.9982 24C11.6561 23.8486 11.209 23.6002 10.8665 23.4239L2.036 18.8802C2.00273 18.5046 1.97106 15.6815 2.04585 15.4465C2.06835 15.3758 2.13389 15.3463 2.19258 15.3107C2.62823 15.046 3.11223 14.8325 3.56606 14.5989C4.70058 14.0149 5.8496 13.4517 6.97628 12.853L7.01321 12.8837C7.04392 13.0608 7.03004 13.9626 7.02996 14.1813L7.02823 17.1083C7.70748 17.4966 8.71222 17.9527 9.44418 18.3144C10.2252 18.7003 11.2426 19.2459 12.0136 19.5667C12.7724 19.2389 13.7896 18.6855 14.5523 18.3138C15.2308 17.9832 16.3551 17.4707 16.9754 17.0995C16.9822 16.928 16.9817 16.7353 16.9793 16.5633C16.9617 15.3255 17.009 14.0726 16.9786 12.8368Z" fill="white"/><path fill-rule="evenodd" clip-rule="evenodd" d="M12.2797 0.0107293C12.8957 0.00523432 13.9531 -0.0189608 14.5273 0.0306892C14.9704 0.892969 15.3759 1.78248 15.808 2.65129C15.933 2.90273 16.0591 3.16097 16.1688 3.41969C16.086 3.68789 15.5085 4.82915 15.36 5.13519C15.6961 5.351 16.6164 5.79319 16.9992 5.99023L20.3238 7.70103C20.3487 8.82864 20.3304 10.0143 20.3297 11.1461C19.5241 11.1613 18.7133 11.1455 17.9072 11.1516C17.6274 11.1537 17.271 11.1672 17.0012 11.1143C16.9558 11.0513 16.9826 8.88606 16.9847 8.59296C16.5728 8.58421 15.699 8.61653 15.3431 8.57028L15.3435 14.9407C15.3434 15.0857 15.368 15.7768 15.2704 15.8917C15.21 15.9628 14.8762 16.1243 14.7663 16.1802C14.3749 16.3792 13.9822 16.5755 13.5884 16.7692C13.374 16.8755 13.0141 17.0407 12.8293 17.1789L12.819 17.1868C12.8379 16.9089 12.8267 16.5167 12.8264 16.2316L12.8244 14.5528C12.8226 13.993 12.824 13.4332 12.8283 12.8735C12.412 12.8642 11.5468 12.8975 11.1866 12.8507C11.179 14.2845 11.2039 15.7352 11.1785 17.1671C10.9479 17.0247 10.5654 16.8449 10.3139 16.7163L8.68635 15.884C8.65552 15.6238 8.66536 15.2016 8.66596 14.9304L8.67174 8.59317C8.25931 8.58421 7.38636 8.61659 7.03016 8.57028L7.02904 11.1458C6.65265 11.1534 3.82421 11.1845 3.68621 11.0976C3.65375 10.8878 3.66718 7.89626 3.71026 7.7443C3.72923 7.67771 3.77973 7.65327 3.83457 7.61879C4.2512 7.35697 4.72912 7.15179 5.16736 6.92657C6.32457 6.33181 7.50756 5.76505 8.64434 5.13101C8.39503 4.68866 8.06098 3.94496 7.8305 3.46818C7.94618 3.17152 9.40092 0.140699 9.5212 0.0213885C10.3666 -0.0204869 11.4162 0.0184353 12.2797 0.0107293ZM10.3653 3.45867C10.6157 4.56788 10.9489 5.75027 11.1789 6.84798C11.6251 6.87072 12.3526 6.87654 12.8022 6.85854C12.8695 6.61315 12.9327 6.36661 12.9917 6.11898C13.2011 5.2564 13.4098 4.31868 13.6372 3.46724C13.0479 3.5015 12.311 3.44973 11.7055 3.47225C11.5047 3.47974 10.5158 3.48882 10.3653 3.45867Z" fill="white"/></svg>