<svg width="24" height="24" viewBox="0 0 24 24" fill="none" xmlns="http://www.w3.org/2000/svg"><path d="M14.5535 12.8446C14.6393 12.8405 14.7254 12.8401 14.8113 12.8432C16.2361 12.8846 17.8137 13.107 19.2036 13.3774C20.4601 13.6218 21.6433 13.9215 22.4291 15.003C24.0082 17.1762 21.9215 19.521 20.3801 20.9951C18.6021 22.6954 16.416 24.0489 14.3843 21.8732C13.2756 20.6011 12.9009 16.2366 12.8299 14.5073L16.6999 17.2635C17.2854 17.6804 18.062 18.2689 18.6506 18.6375C17.7262 17.2894 16.6663 15.8665 15.7099 14.5309L14.9112 13.4135C14.8387 13.3116 14.5508 12.9416 14.5535 12.8446Z" fill="white"/><path d="M9.26318 12.8454C9.33896 12.8392 9.36129 12.8306 9.42668 12.8688C9.41519 13.0051 5.76821 18.0138 5.35344 18.6272C5.51933 18.5444 5.80381 18.3269 5.96155 18.2122L6.94597 17.4982C8.33841 16.4896 9.73889 15.492 11.1472 14.5056C11.1503 15.0015 11.0589 16.0099 11.0047 16.4967C10.8368 18.0039 10.5628 20.3843 9.75523 21.6824C9.71668 21.7377 9.67538 21.7912 9.63155 21.8425C7.98181 23.7939 5.83015 22.9851 4.18736 21.5213C2.35195 19.8858 -0.378794 17.1379 1.81477 14.6755C2.26645 14.1685 2.73754 13.945 3.38182 13.7397C5.29167 13.129 7.28202 12.9988 9.26318 12.8454Z" fill="white"/><path d="M16.5008 1.00177C17.9922 0.95189 19.2872 1.96263 20.3259 2.93375C21.4548 3.98921 22.9486 5.62294 22.9988 7.23796C23.0251 8.08519 22.6281 8.82811 22.0559 9.43036C20.8033 10.7487 16.3284 11.1018 14.4933 11.1494C14.9097 10.6366 15.4117 9.84529 15.8305 9.28457C16.7388 7.98066 17.7894 6.6262 18.6647 5.31806L14.7177 8.14045L13.6049 8.93026C13.3877 9.08428 13.008 9.33093 12.8433 9.51981C12.8304 9.06798 12.8817 8.26182 12.9526 7.80286C13.3203 5.42134 13.2695 1.43284 16.3634 1.00869C16.4092 1.00561 16.455 1.00329 16.5008 1.00177Z" fill="white"/><path d="M7.00611 1.009C8.06766 0.966548 8.74573 1.23586 9.50559 2.01032C9.7737 2.28361 9.97476 2.64025 10.1087 2.99813C10.6964 4.56778 10.8782 6.27562 11.0524 7.93327C11.1008 8.40144 11.1528 9.03703 11.1411 9.49154C10.9599 9.32679 10.5844 9.07455 10.3722 8.92397L8.99414 7.94431L6.67065 6.28111C6.2431 5.97519 5.78285 5.6311 5.34756 5.34591C5.59582 5.7294 5.93452 6.17742 6.20459 6.55617L7.83694 8.84556C8.27956 9.44378 8.6996 10.0636 9.13681 10.6661C9.25835 10.8336 9.36345 10.9949 9.50611 11.1465C7.76821 11.1109 3.6029 10.734 2.23884 9.70079C1.65116 9.25567 1.12845 8.49536 1.0283 7.75519C0.867427 6.56619 1.43635 5.52016 2.1329 4.60263C3.2246 3.1646 5.15986 1.26156 7.00611 1.009Z" fill="white"/></svg>