<svg width="24" height="24" viewBox="0 0 24 24" fill="none" xmlns="http://www.w3.org/2000/svg"><g clip-path="url(#clip0_5844_108)"><path d="M4.2548 3.42343C5.08114 3.75335 5.88457 4.14813 6.70193 4.49876C8.47328 5.25865 10.2268 6.12032 12.0062 6.85457C12.2616 6.76258 12.6097 6.59546 12.8651 6.48149L14.338 5.82369C16.0983 5.03763 17.9107 4.20111 19.6797 3.45278C19.7036 3.47873 19.6927 3.46844 19.6948 3.52019C19.4926 3.91047 19.0924 4.8178 18.8893 5.12218C18.6782 5.43855 17.859 6.19306 17.5414 6.52111C17.2776 6.79372 16.5911 7.51185 16.3183 7.72989C16.7741 7.76464 18.6954 7.68068 18.9221 7.81449L18.9363 7.82308C19.2119 7.98504 20.2679 8.9003 20.5693 9.15273L24 12.0172C23.8151 12.1842 23.2096 12.5801 22.9762 12.7325C22.4715 13.0621 21.9323 13.4523 21.423 13.7654C21.2623 13.6798 20.7372 13.2692 20.5683 13.1417L19.0116 11.966C18.6956 11.7275 18.2975 11.41 17.965 11.2124C17.407 11.501 16.8397 11.7721 16.2802 12.0632C16.1238 11.8548 15.9058 11.499 15.7558 11.2725C15.3666 10.6806 14.9738 10.091 14.5774 9.50401C14.3179 9.95767 13.9762 10.692 13.7465 11.1694C13.8168 11.3668 14.0268 11.763 14.1279 11.9651L14.9214 13.5489C15.0788 13.8627 15.4091 14.4277 15.4247 14.7599C15.4469 15.2296 15.4372 15.7355 15.4371 16.208L15.4295 18.9377C14.9592 18.6464 14.2654 18.357 13.7496 18.0715C13.6192 18.3829 13.3996 19.2366 13.2949 19.6055L12.4124 22.7125C12.3521 22.9215 12.0942 23.848 12.0157 23.9988L11.9869 24C11.9309 23.9212 11.7145 23.0675 11.6705 22.9145L10.286 18.0693C9.93384 18.2721 8.83449 18.749 8.59668 18.9544L8.59188 17.9857L8.58958 15.8936C8.5892 15.4779 8.52877 14.9506 8.63614 14.5517C8.81606 13.8834 10.2343 11.547 10.2406 11.1756C10.2429 11.034 9.56196 9.68842 9.44524 9.56261C9.20077 9.6616 8.08411 11.7534 7.72526 12.0104C7.56178 12.0041 6.28322 11.3291 6.04359 11.208C5.73963 11.3829 5.29586 11.7553 4.99928 11.9698C4.20827 12.5419 3.41087 13.2045 2.61636 13.7628C2.43339 13.6827 1.90441 13.3129 1.71842 13.1883C1.14361 12.8041 0.570767 12.4169 0 12.0267C0.302846 11.8235 0.581541 11.5398 0.862445 11.3033C1.2897 10.9434 4.91898 7.84407 5.17665 7.7692C5.48404 7.67996 7.2316 7.75268 7.69373 7.73849L6.09694 6.14467C5.8546 5.9018 5.24677 5.3239 5.09178 5.06578C4.80209 4.58327 4.56942 3.91504 4.2548 3.42343Z" fill="white"/><path d="M11.7007 0.0226926C12.8728 -0.148083 13.9623 0.663367 14.1397 1.83916C14.3171 3.01495 13.5158 4.11399 12.346 4.29948C11.1657 4.48661 10.0594 3.67337 9.88038 2.4871C9.70139 1.30087 10.5182 0.194987 11.7007 0.0226926Z" fill="white"/></g><defs><clipPath id="clip0_5844_108"><rect width="24" height="24" fill="white"/></clipPath></defs></svg>