<svg width="24" height="24" viewBox="0 0 24 24" fill="none" xmlns="http://www.w3.org/2000/svg"><path d="M1.52289 6.00029C2.39182 5.99429 3.26083 5.99574 4.12975 6.00468L4.13157 13.0211C4.13135 14.1632 4.11465 15.3522 4.13636 16.4909C5.23547 17.1446 6.35698 17.7632 7.48297 18.4113C7.95868 18.6851 9.27975 19.4945 9.76711 19.6534C9.98543 19.7246 11.2799 19.6617 11.616 19.668C13.1934 19.6974 14.7963 19.6226 16.3726 19.6933C15.6602 20.3539 14.8813 21.1565 14.1798 21.8442C13.4947 22.5174 12.6763 23.3685 11.9745 24C11.1819 23.5899 10.1465 22.9568 9.35264 22.5026L4.14244 19.5214C3.40356 19.0986 2.24835 18.3903 1.52119 18.0382C1.48125 17.6086 1.50999 16.7281 1.51021 16.2551L1.51128 8.31982C1.51109 7.63541 1.48014 6.65523 1.52289 6.00029Z" fill="white"/><path d="M11.9872 0C12.1547 0.0505296 13.2587 0.698911 13.4608 0.814681L20.6588 4.93596C21.0188 5.1411 22.198 5.77998 22.4815 6.00353C22.5335 8.81143 22.4561 11.6737 22.4882 14.4861C22.4982 15.3621 22.4692 16.2591 22.4885 17.1316C21.8756 17.1867 21.133 17.1661 20.5033 17.1663L14.1551 17.1662C13.3447 17.166 12.5905 17.1781 11.7851 17.1065C9.76065 16.9266 7.94078 15.8676 7.2161 13.931C6.771 12.7059 6.47862 10.8537 7.07137 9.62678C8.45666 6.75929 12.1372 6.2865 14.8184 7.45841C15.9701 7.9898 17.2381 8.9002 17.2514 10.2631C17.2707 12.2349 15.392 12.8332 13.7322 12.8617C13.7492 12.036 13.7354 11.1582 13.7364 10.3276C13.0681 10.3405 12.3456 10.2983 11.6635 10.3153C11.352 10.323 10.5317 10.3437 10.2713 10.3153C10.2665 10.5856 10.2636 10.8559 10.2627 11.1262C10.2585 12.1706 10.1927 13.0048 11.027 13.824C11.3673 14.1534 11.7946 14.3832 12.2608 14.4876C12.8108 14.6059 14.3083 14.5616 14.952 14.5616L19.8407 14.5604C19.8672 12.3017 19.8353 10.0374 19.8457 7.7781C19.8392 7.71047 19.8501 7.53577 19.7904 7.49584C19.0886 7.02656 18.2382 6.57039 17.5127 6.15574L15.4698 4.9852C15.2743 4.87299 14.3895 4.35074 14.2639 4.33664C13.5325 4.25445 12.3991 4.29719 11.6491 4.2966C10.2908 4.29984 8.93247 4.29517 7.5742 4.28259C7.84878 4.09033 8.39354 3.50322 8.67609 3.22673L10.7837 1.15966C11.1457 0.80478 11.6099 0.323031 11.9872 0Z" fill="white"/></svg>