<svg width="24" height="24" viewBox="0 0 24 24" fill="none" xmlns="http://www.w3.org/2000/svg"><path d="M11.1942 0.0196062C11.2612 0.104028 11.2344 1.42616 11.2344 1.66583V4.67295L11.2357 8.20523C11.2359 8.54841 11.258 10.3187 11.1936 10.3942C10.1059 11.6693 8.38646 13.4128 7.31816 14.6257C7.63389 15.0133 8.18938 15.5495 8.5289 15.9403C8.7115 16.1504 9.48195 16.9883 9.66444 17.1188C10.4417 16.3039 11.2191 15.4344 11.9931 14.6073C12.1727 14.7577 12.488 15.1147 12.6582 15.2991L13.7603 16.4935C13.9167 16.6629 14.2102 16.9938 14.3845 17.1188C14.8317 16.6675 15.3022 16.1041 15.7534 15.6401C15.9346 15.4537 16.5391 14.8113 16.6581 14.6359C16.573 14.449 15.8736 13.7268 15.7014 13.5409L13.8456 11.54C13.5287 11.1993 13.0902 10.7543 12.8055 10.4061C12.7675 10.0227 12.7834 9.41811 12.7841 9.02028L12.7849 6.76691C12.785 4.5385 12.7563 2.22132 12.7955 0C13.1996 0.278299 14.8855 1.603 15.1519 1.88754C15.2352 1.97638 15.8494 4.27464 15.9451 4.61898L17.5339 10.3376L19.369 10.3423C19.7379 10.3419 20.3198 10.3243 20.668 10.374C20.8182 10.5067 21.4783 11.499 21.6364 11.7322C21.8181 11.9743 22.9662 13.5923 23 13.7604C22.9588 14.018 21.6012 16.9965 21.458 17.1391C21.3184 17.1827 19.3942 16.4628 19.1018 16.35C18.3636 17.1487 17.4433 18.0947 16.7674 18.9283C16.7249 19.9753 16.819 21.2924 16.7447 22.2974C16.5786 22.4558 16.1441 22.7507 15.9355 22.9003C15.4263 23.2636 14.919 23.6302 14.4138 24C13.8679 23.6498 13.3199 23.2101 12.7824 22.8375C12.539 22.6688 12.266 22.4477 12.0095 22.311C11.7983 22.4236 11.586 22.6089 11.3888 22.737C10.85 23.0869 10.1579 23.685 9.6147 23.9971C8.87749 23.4386 8.04974 22.8671 7.29559 22.3255C7.26914 22.0826 7.27568 21.7553 7.27607 21.5079L7.28096 20.0215C7.282 19.8075 7.31098 18.986 7.20849 18.8613C6.65905 18.1928 6.05073 17.5677 5.46889 16.9309C5.30174 16.748 5.10962 16.5291 4.93019 16.3658C4.16559 16.6008 3.33902 16.9311 2.56862 17.197C2.17531 16.3753 1.81373 15.5254 1.41719 14.704C1.27877 14.4173 1.11342 14.0782 1 13.7815C1.06457 13.6274 1.70275 12.7114 1.8551 12.5037C2.34309 11.8384 2.85696 10.9983 3.35446 10.3646C3.60405 10.3254 4.21837 10.3408 4.49565 10.3411C5.16186 10.3393 5.82805 10.343 6.49419 10.3524C7.03759 8.47772 7.53742 6.57533 8.07061 4.6961C8.3075 3.86117 8.52951 3.01284 8.77169 2.17911C8.79445 2.10075 8.87899 1.87265 8.9229 1.82712C9.1208 1.6219 9.42917 1.39786 9.65217 1.22277L11.1942 0.0196062Z" fill="white"/></svg>