<svg width="24" height="24" viewBox="0 0 24 24" fill="none" xmlns="http://www.w3.org/2000/svg"><path d="M11.6573 0.00923181C12.9811 -0.0857781 14.0326 0.553186 14.4134 1.89732C14.7493 2.05772 15.0334 2.18175 15.3447 2.39338C16.1635 2.94901 16.7332 3.81787 16.9274 4.80728C17.1104 5.7408 16.951 6.79919 16.4368 7.59883C16.8635 7.80448 17.2979 8.03458 17.6829 8.3151C18.9433 9.23355 19.9687 10.6265 20.6377 12.049C21.3971 13.6637 21.8358 15.5006 21.9705 17.2842C22.0098 17.8054 22.0375 18.532 21.8644 19.0167C21.3259 20.5248 19.477 21.7056 18.1302 22.3747C17.3426 22.7634 16.5281 23.0917 15.6934 23.3568C12.9822 24.2328 10.713 24.2274 8.01104 23.2583C7.14473 22.9725 6.30285 22.6135 5.49399 22.185C4.24849 21.5219 2.57624 20.3926 2.1078 18.9608C1.97819 18.5646 1.98902 17.84 2.02009 17.411C2.16023 15.4768 2.60179 13.5198 3.48072 11.7972C5.18617 8.45477 7.54788 6.94419 11.2049 6.8574C11.6621 6.84656 13.262 6.9029 13.6135 6.78422C13.9331 6.67925 14.1972 6.44449 14.3447 6.13433C14.4898 5.82735 14.5091 5.47327 14.3983 5.15148C14.2802 4.81328 14.0574 4.59959 13.7473 4.45127C13.366 4.75686 12.9401 5.04094 12.4542 5.11715C11.7537 5.22705 11.1041 5.10306 10.525 4.67866C9.99345 4.2875 9.63294 3.6967 9.52142 3.03409C9.40368 2.33843 9.55954 1.62314 9.95471 1.0459C10.3846 0.429224 10.9426 0.12779 11.6573 0.00923181ZM7.8889 17.827C8.46537 17.9374 8.88502 17.9638 9.46714 17.9671C9.51765 16.4071 9.24082 14.0586 8.17397 12.8966C7.5963 12.2675 7.05917 12.062 6.24188 12.0355C5.92064 12.0478 5.65667 12.0791 5.40407 12.2856C4.06289 13.3817 4.36048 15.6641 5.58176 16.7349C6.22599 17.2998 7.08584 17.7239 7.8889 17.827ZM14.5151 17.954C15.2975 17.9535 15.6127 17.9323 16.3764 17.7707C17.4721 17.4752 18.4685 16.9579 19.059 15.9125C19.4622 15.192 19.573 14.337 19.3673 13.5329C19.2277 12.9912 18.9347 12.4893 18.4537 12.198C18.1364 12.0059 17.7717 12.019 17.4173 12.0582C14.8537 12.3974 14.5196 15.83 14.5151 17.954ZM9.49751 21.3815C10.3762 20.7798 10.9883 20.595 12.0311 20.5454C13.1144 20.6243 13.5294 20.7839 14.4693 21.3497C14.1787 19.874 13.4831 18.9109 11.9479 18.8891C10.3581 18.9834 9.86101 19.916 9.49751 21.3815Z" fill="white"/></svg>