<svg width="24" height="24" viewBox="0 0 24 24" fill="none" xmlns="http://www.w3.org/2000/svg"><g clip-path="url(#clip0_5844_123)"><path d="M7.13692 13.2153C7.81072 13.1276 8.64454 13.295 9.23334 13.6356C10.7182 14.4944 10.9076 15.5762 11.322 17.1059C11.5422 17.9342 11.7702 18.7603 12.006 19.5839C12.1125 19.3272 12.2194 18.8844 12.2957 18.6027L12.7981 16.7455C12.9166 16.3077 13.0426 15.7794 13.2201 15.3743C13.3784 15.0161 13.5855 14.6838 13.8352 14.3881C14.4358 13.6831 15.3756 13.2527 16.2713 13.2042C16.6151 13.1846 16.96 13.2163 17.2953 13.2985C17.9382 13.4544 18.736 13.836 19.3341 14.1292C20.8809 14.8877 22.2346 15.9057 23.5 17.1004C23.2657 17.2964 22.4018 17.7869 22.0871 17.9762L19.0236 19.8123C17.3562 20.7753 15.6962 21.8291 14.0303 22.7999C13.3658 23.1872 12.6799 23.6322 12.0111 24C11.7355 23.8705 11.1104 23.4717 10.8143 23.2945L0.5 17.1177C0.98818 16.6812 1.31877 16.3424 1.85889 15.9158C3.18017 14.8721 5.51308 13.4881 7.13692 13.2153Z" fill="white"/><path d="M9.59661 0C9.68207 0.0933444 9.88435 0.422233 9.95516 0.546043C10.5446 1.57656 10.9547 2.68504 11.1241 3.87656C11.4456 6.13827 10.7246 8.20748 9.24755 9.85851C9.03335 10.098 8.80438 10.3239 8.57706 10.5491C8.38646 10.7379 8.08555 10.9583 7.9363 11.171L7.92909 11.1814C7.87788 10.4438 7.9192 9.35749 7.91108 8.58061C4.80363 8.95328 2.4254 11.4456 1.06281 14.2432C0.836776 14.7518 0.71968 14.8833 0.56935 15.4595C0.428102 14.2592 0.926887 11.4147 1.23944 10.2319C2.06469 7.10888 3.50564 4.18064 6.26719 2.51852C6.50826 3.26556 6.84868 4.69345 7.61266 5.01263C7.8253 5.1018 8.06344 5.09684 8.27254 4.99891C9.25483 4.53492 9.44794 2.15043 9.51425 1.13974C9.53015 0.89712 9.52244 0.187684 9.59661 0Z" fill="white"/><path d="M14.467 0.0282815C14.4858 0.211292 14.4801 0.473493 14.4879 0.649008C14.5401 1.83103 14.6301 3.19352 15.1188 4.27344C15.2533 4.57302 15.5229 4.94501 15.8389 5.03474C17.0143 5.36839 17.5101 3.32091 17.7542 2.52522C18.5646 2.96458 19.4488 3.77732 20.0457 4.49885C21.9878 6.84643 22.9308 10.0513 23.3233 13.0795C23.4086 13.738 23.5166 14.799 23.4741 15.4476C23.3167 14.9885 23.157 14.657 22.9498 14.222C21.8354 11.9338 20.0998 9.94529 17.7766 9.00368C17.3715 8.8395 16.9513 8.70046 16.5196 8.6357C16.3774 8.61436 16.2576 8.59463 16.1209 8.54782C16.0918 9.38311 16.1171 10.2988 16.1058 11.1492C15.8831 10.9297 15.6061 10.7019 15.3707 10.4832C12.2271 7.56282 12.1059 3.51405 14.4214 0.000628478C14.4339 0.00820021 14.4491 0.0173985 14.467 0.0282815Z" fill="white"/></g><defs><clipPath id="clip0_5844_123"><rect width="24" height="24" fill="white"/></clipPath></defs></svg>