<svg width="24" height="24" viewBox="0 0 24 24" fill="none" xmlns="http://www.w3.org/2000/svg"><path fill-rule="evenodd" clip-rule="evenodd" d="M3.28286 8.42077C4.34571 5.78923 4.33714 3.08154 3.42857 1L8.57143 6.07692C6.52286 7.26154 5.14286 9.47 5.14286 12C5.14286 14.53 6.52286 16.7385 8.57143 17.9231L6.85714 19.6154L0 12.8462C1.36286 11.7969 2.53714 10.2738 3.28286 8.41231V8.42077ZM13.7143 10.3077L12 1L10.2857 10.3077L6 12L10.2857 13.6923L12 23L13.7143 13.6923L18 12L13.7143 10.3077ZM20.5714 1C19.6629 3.08154 19.6543 5.78923 20.7171 8.42077C21.4629 10.2738 22.6371 11.7969 24 12.8462L17.1429 19.6154L15.4286 17.9231C17.4771 16.7385 18.8571 14.53 18.8571 12C18.8571 9.47 17.4771 7.26154 15.4286 6.07692L20.5714 1Z" fill="white"/></svg>