<svg width="24" height="24" viewBox="0 0 24 24" fill="none" xmlns="http://www.w3.org/2000/svg"><path d="M11.5607 15.4243C12.3162 15.3454 13.5156 15.4315 14.1057 15.9631C14.6873 16.4869 14.7018 17.6837 14.173 18.251C13.7321 18.7242 13.0409 18.8326 12.4339 18.8604C11.317 18.9003 9.56933 18.8894 9.45634 17.3783C9.34171 15.8448 10.2932 15.5293 11.5607 15.4243Z" fill="white"/><path fill-rule="evenodd" clip-rule="evenodd" d="M17.6549 1.52416C18.1432 1.85275 18.6835 2.18957 19.1346 2.56429C19.7941 3.12341 20.2952 3.80132 20.6384 4.5988C20.9156 5.24309 21.0326 5.91308 21.1811 6.59372L21.6933 8.96818C21.9771 10.2943 22.248 11.6232 22.5059 12.9547C22.6414 13.6585 23.1261 16.0958 22.9691 16.5188C22.3767 18.1135 18.4913 20.7959 17.3333 21.5566C16.1443 22.3533 13.8975 23.6919 12.5065 23.9534C12.1533 24.0198 11.8055 24.0143 11.4536 23.9429C8.91763 23.4286 2.68853 19.179 1.23478 16.9634C1.14323 16.8239 1.0441 16.6612 1.01807 16.4942C0.888444 15.6624 1.49212 12.907 1.68439 11.9478C1.99352 10.4138 2.3145 8.88239 2.64733 7.35355C2.80075 6.64445 3.04609 5.34781 3.29899 4.7295C3.60354 3.96898 4.06856 3.2849 4.66148 2.72508C5.09662 2.31644 5.69901 1.9404 6.20123 1.60189L8.56041 0.0227751C8.58424 0.0424829 8.6081 0.0622019 8.63195 0.0819069C8.93162 1.46965 9.19683 2.86783 9.47162 4.26125C11.1245 4.32076 12.8496 4.24906 14.5126 4.28549C14.8092 2.92427 15.0493 1.31897 15.3827 0L17.6549 1.52416ZM16.1681 16.6398C15.8823 14.44 13.9389 13.6968 11.9736 13.7362C9.96502 13.7788 8.15849 14.3856 7.815 16.6357C6.84876 16.4489 5.7647 16.001 4.86218 15.6126C4.6088 15.5035 4.1699 15.3201 3.93073 15.1903C4.04271 15.5392 4.14948 15.8578 4.33399 16.1819C5.39319 18.0427 7.4828 19.4311 9.32543 20.4003C10.0021 20.7562 11.298 21.346 12.0184 21.3986C12.5593 21.3437 13.2834 21.0397 13.7917 20.81C15.7376 19.9305 17.7419 18.6677 19.112 16.9914C19.5822 16.4162 19.8398 15.8961 20.0727 15.1979C18.991 15.6724 17.3344 16.4335 16.1681 16.6398ZM9.44529 9.08268C9.39113 8.13523 8.79742 7.6961 7.89625 7.79505C7.19092 8.0039 6.92267 8.51557 6.93301 9.22811C6.9444 10.0137 6.92824 10.8038 6.93776 11.5894C6.95301 12.4082 7.68677 13.0198 8.48773 12.816C9.68601 12.439 9.43279 11.3085 9.45097 10.3202C9.4584 9.91584 9.46831 9.48497 9.44529 9.08268ZM16.4283 7.92596C16.1488 7.77085 15.8338 7.76426 15.5246 7.79547C15.1989 7.87988 14.9008 8.07358 14.7294 8.37446C14.6381 8.53472 14.5875 8.72107 14.5653 8.90414C14.5164 9.30686 14.5148 11.5785 14.6034 11.9068C14.692 12.2355 14.9001 12.5355 15.1982 12.7013C15.4445 12.8382 15.7757 12.8884 16.0517 12.8303C16.4053 12.7325 16.6999 12.5443 16.8864 12.2149C16.9736 12.0608 17.0226 11.8947 17.0452 11.7191C17.1005 11.2901 17.0953 9.03176 16.9955 8.67043C16.9093 8.35839 16.7111 8.08289 16.4283 7.92596Z" fill="white"/></svg>