<svg width="24" height="24" viewBox="0 0 24 24" fill="none" xmlns="http://www.w3.org/2000/svg"><g clip-path="url(#clip0_5844_128)"><path d="M11.8439 11.9374C12.7961 11.8576 13.6332 12.5634 13.7146 13.5146C13.796 14.4658 13.0909 15.3032 12.1389 15.386C11.1848 15.469 10.3443 14.7627 10.2627 13.8093C10.1812 12.856 10.8895 12.0174 11.8439 11.9374Z" fill="white"/><path fill-rule="evenodd" clip-rule="evenodd" d="M11.9684 0C12.0669 0.0506091 12.2127 0.478381 12.2627 0.601064L15.096 7.67499C15.1928 7.91531 15.3243 8.26861 15.4427 8.48411C16.691 7.68731 17.4763 6.42601 17.9966 5.06769C19.0384 7.71861 19.7494 11.105 18.0447 13.6485C19.7347 13.6082 21.1909 13.0048 22.4662 11.9011C23.0184 11.4232 23.6074 10.8145 24 10.1985C23.9772 11.4543 23.9222 12.2593 23.6123 13.5075C22.6927 17.2113 20.1205 20.3307 17.0353 22.4881C16.5166 22.8524 15.9813 23.1925 15.4311 23.5074C15.1345 23.6767 14.8233 23.8256 14.5337 24C14.5849 23.3679 14.428 22.57 14.2633 21.9681C13.9641 20.8747 13.0057 19.3943 11.9844 18.8469C11.7271 18.9677 11.3356 19.3287 11.1395 19.5282C9.97583 20.7123 9.41988 22.3493 9.43403 23.9922C8.92025 23.6769 8.3602 23.4117 7.83153 23.0831C3.46384 20.3679 -0.0686367 15.7687 0.00101254 10.4426C0.00175899 10.3861 0.0180012 10.341 0.0621279 10.3095C0.239628 10.6035 0.493577 10.8997 0.7322 11.1521C2.25409 12.7623 3.73082 13.541 5.93371 13.6501C5.71588 13.3338 5.53403 12.9942 5.39172 12.6376C4.45574 10.334 5.04249 7.28552 5.98791 5.06194C6.45187 6.38239 7.33826 7.74516 8.54534 8.48829C8.65982 8.27162 8.82726 7.81941 8.92156 7.5835L9.58284 5.92909C10.3647 3.97481 11.1495 1.93388 11.9684 0ZM15.3833 13.377C15.2256 11.5051 13.5798 10.1147 11.706 10.2704C9.82954 10.4263 8.43547 12.0733 8.59338 13.9478C8.75128 15.8224 10.4013 17.2135 12.2775 17.0538C14.1509 16.8944 15.5409 15.2489 15.3833 13.377Z" fill="white"/></g><defs><clipPath id="clip0_5844_128"><rect width="24" height="24" fill="white"/></clipPath></defs></svg>