<svg width="24" height="24" viewBox="0 0 24 24" fill="none" xmlns="http://www.w3.org/2000/svg"><g clip-path="url(#clip0_5844_133)"><path d="M15.4337 19.307C15.4339 19.5274 15.4721 20.4776 15.3607 20.6036C14.32 21.7786 13.057 22.8339 12.0112 24C11.7016 23.7317 11.2007 23.1981 10.8955 22.8934L8.5905 20.595C8.56023 20.2743 8.57588 19.7577 8.57639 19.4263L8.57764 17.4224C8.57804 15.656 8.54206 13.7488 8.58789 11.9967C8.71779 12.035 10.9524 13.5244 11.1627 13.7128C11.1947 15.0912 11.1693 16.5664 11.1666 17.9508C11.3909 18.2119 11.7476 18.6071 12.0182 18.798C12.2271 18.6143 12.6739 18.1512 12.8239 17.9373C12.8365 17.5756 12.7938 13.7518 12.9033 13.6646C13.4745 13.2131 14.7693 12.4003 15.4283 11.9655L15.4337 19.307Z" fill="white"/><path d="M16.297 3.43461C17.3935 3.39832 18.5072 3.43977 19.6053 3.42364C19.9266 3.41893 20.2772 3.41683 20.5957 3.44277C20.6678 3.6893 20.8066 4.03238 20.8975 4.27932L21.4339 5.74804L23.1097 10.3593C23.3966 11.1483 23.7501 12.0373 24 12.8279C23.8966 12.9724 23.6059 13.2497 23.4693 13.3859L22.5202 14.3323L19.1431 17.7077C18.7899 18.0597 17.3422 19.4692 17.1599 19.7743C17.1311 19.429 17.1083 14.8676 17.2016 14.7637C17.8697 14.0203 19.2384 12.7045 19.9991 11.9368C19.6612 11.1151 19.3275 10.0653 19.007 9.21521C18.7799 8.61313 18.344 7.49362 18.1815 6.90189C17.6178 6.87478 16.8319 6.87227 16.255 6.8815C16.2923 6.45228 16.2148 3.54649 16.297 3.43461Z" fill="white"/><path d="M2.58397 3.43419C3.68407 3.37963 4.84615 3.45207 5.95195 3.42405C6.53166 3.40936 7.1701 3.41466 7.75002 3.43618C7.72502 3.73689 7.74254 4.27675 7.74302 4.59619C7.74837 5.35952 7.74532 6.12292 7.73392 6.88621C6.9439 6.87542 5.97204 6.92429 5.2151 6.89279C5.09627 7.23814 4.99544 7.63753 4.90256 7.99217C4.56806 9.2693 4.18114 10.5446 3.86476 11.8252C4.34293 12.2443 4.97841 12.9332 5.44942 13.3926C5.81559 13.7498 6.56187 14.4641 6.87117 14.8364C6.90302 15.1709 6.88727 15.7831 6.88738 16.1279L6.88685 18.4263L6.87964 19.7517C6.70291 19.5238 6.30741 19.1543 6.08778 18.9371L4.72835 17.5843L0 12.8665C0.0532278 12.5345 0.290601 11.7405 0.386152 11.3901L2.12943 4.99764C2.19427 4.75917 2.49823 3.5755 2.58397 3.43419Z" fill="white"/><path d="M11.6533 0.00947069C12.6896 -0.0594974 13.7923 0.239422 14.3418 1.19614C14.5921 1.62638 14.6603 2.13877 14.5313 2.61949C14.3273 3.36588 13.7676 3.74878 13.1391 4.10526C13.3209 4.96748 13.4887 6.1517 13.6267 7.03779C14.3212 7.35134 14.7332 7.46236 15.3448 8.01192C16.5197 9.06765 17.0663 10.4937 17.1717 12.0343C16.9096 11.7746 16.5372 11.5274 16.2166 11.3473C14.9627 10.6424 13.7693 10.381 12.3581 10.3138C10.3264 10.2544 8.52476 10.707 6.90317 11.9756C6.69274 11.717 7.28751 10.0031 7.43163 9.70343C8.10109 8.31162 8.94682 7.57493 10.3805 7.05734C10.4527 6.7675 10.5148 6.32299 10.5656 6.02048L10.8837 4.09877C10.1768 3.71936 9.5613 3.28003 9.4451 2.42201C9.37221 1.90953 9.50962 1.38929 9.82613 0.97963C10.2942 0.371014 10.9104 0.10545 11.6533 0.00947069Z" fill="white"/></g><defs><clipPath id="clip0_5844_133"><rect width="24" height="24" fill="white"/></clipPath></defs></svg>