<svg width="24" height="24" viewBox="0 0 24 24" fill="none" xmlns="http://www.w3.org/2000/svg"><path d="M13.8385 3.41866C14.109 3.52955 14.7501 3.92226 15.0307 4.08534L19.1949 6.50759C19.4571 6.66018 20.0327 6.97308 20.2403 7.14859C20.2848 8.88092 20.2656 10.9135 20.2415 12.6525C20.8158 13.0459 21.5852 13.426 22.1863 13.8049C22.4579 13.9762 22.7254 14.1032 22.9879 14.3041C23.0188 15.9936 22.979 17.6935 22.9946 19.384C22.9988 19.8338 23.0035 20.3136 22.9769 20.761C22.7028 20.9795 21.6047 21.5883 21.2453 21.7996L17.5063 24C17.248 23.8976 16.3799 23.3611 16.0905 23.1907L13.4823 21.6554C13.0291 21.3889 12.4588 21.0309 12.0012 20.8033C11.9729 20.5499 11.9869 20.0173 11.9869 19.746L11.988 15.5594C11.9879 15.3557 11.9689 14.5926 12.0208 14.3386C12.0467 14.212 12.1258 14.1879 12.2381 14.119C13.9523 13.0678 15.7781 12.1145 17.4711 11.0365C17.4912 10.7225 17.4782 10.2674 17.4813 9.94472C17.4844 9.61444 17.4966 9.06912 17.4584 8.75606C16.9398 8.4103 16.154 7.98671 15.6009 7.66291C15.0969 7.36784 14.3317 6.89543 13.8242 6.64678C13.7957 6.126 13.8252 5.43531 13.8169 4.90102C13.8113 4.53815 13.7994 3.74324 13.8385 3.41866Z" fill="white"/><path d="M6.45386 0C6.65713 0.0180424 9.65579 1.8233 10.061 2.06176L11.2332 2.7513C11.4665 2.88813 11.8027 3.06981 12.0052 3.2342C12.0371 4.88121 11.9952 6.54001 12.0122 8.18803C12.0173 8.67871 12.0187 9.18447 11.9974 9.67376C11.8206 9.82038 11.002 10.2818 10.7546 10.427L8.05858 12.009C7.63184 12.2594 6.89976 12.6622 6.5296 12.9441C6.48734 13.458 6.518 14.5514 6.51709 15.1063L8.90362 16.4976C9.29232 16.7234 9.80694 17.0038 10.1722 17.2529C10.2145 18.125 10.192 19.5352 10.1672 20.4132C10.1524 20.4359 10.146 20.4336 10.1185 20.4494C8.66873 19.6176 7.22395 18.7771 5.78421 17.9279C5.34129 17.6699 4.16869 16.9539 3.76568 16.7798C3.7205 16.3641 3.76076 15.6673 3.74993 15.2304C3.71861 13.9688 3.79826 12.5882 3.74054 11.3344C3.60315 11.2166 3.0295 10.8927 2.84099 10.7822L1.0174 9.71994C0.988747 9.3535 1.00398 8.81738 1.00455 8.43747L1.00623 6.21253L1.00411 4.31001C1.00382 3.97983 0.98902 3.47061 1.02869 3.15627C1.30811 3.03433 2.18412 2.49313 2.47868 2.31987L4.9289 0.878061C5.41614 0.591271 5.956 0.257198 6.45386 0Z" fill="white"/></svg>