<svg width="24" height="24" viewBox="0 0 24 24" fill="none" xmlns="http://www.w3.org/2000/svg"><g clip-path="url(#clip0_5844_143)"><path d="M16.606 4.28819C18.2565 4.15335 19.8998 4.62102 21.232 5.60454C22.693 6.68067 23.6629 8.29644 23.9255 10.0919C24.1474 11.59 23.8704 13.1195 23.1373 14.4447C22.5008 15.5761 21.8159 16.1192 20.9132 16.9932L15.479 22.257C15.0516 22.6714 14.0465 23.579 13.7328 24C13.846 23.3433 14.0742 22.5833 14.2264 21.9236C14.5929 20.3355 15.0745 18.7025 15.4235 17.1165C13.9198 17.9134 12.4048 18.7607 10.9079 19.5769C9.81914 20.1957 8.67769 20.7777 7.58303 21.3905C7.08266 21.6707 6.5063 21.9421 6.03042 22.2508C7.17092 20.0262 8.49315 17.7146 9.69342 15.5049L10.6133 13.8253C10.7707 13.5383 11.0134 13.1257 11.133 12.8343C10.8536 12.9286 10.3684 13.0377 10.0726 13.1124L8.0831 13.6114L5.40606 14.2759C5.2004 14.3252 4.54307 14.4958 4.37977 14.493L4.37581 14.4653C4.91935 13.9481 5.50999 13.2773 6.05438 12.7191L10.6261 8.00774C12.5411 6.04388 13.6184 4.54701 16.606 4.28819Z" fill="white"/><path fill-rule="evenodd" clip-rule="evenodd" d="M6.57445 0.941889C7.62561 0.16064 9.07701 -0.14054 10.366 0.0605714C11.4478 0.235553 12.4436 0.7568 13.2039 1.546C13.4411 1.79628 13.6196 2.04712 13.8214 2.32439C13.6372 2.43789 13.1438 2.64558 12.9189 2.75817C12.2739 3.08192 11.6692 3.48044 11.1173 3.94545C10.4368 4.52371 9.55684 5.48824 8.90467 6.15989L5.30511 9.87799L3.71708 11.5275C3.04054 12.2291 2.88755 12.4631 2.01403 12.9079C1.7755 13.0404 1.5244 13.1747 1.29539 13.3213L1.50667 12.9481C1.59583 12.7466 1.84069 12.3184 1.95214 12.1124L2.8928 10.3881C3.60537 9.08259 4.36266 7.61725 5.10602 6.34136C4.09332 6.63048 3.03056 6.84271 2.01226 7.12121C1.34759 7.30298 0.661231 7.42269 0 7.62104C0.466134 7.20274 1.00452 6.58312 1.46187 6.11207L4.81035 2.65191C5.31582 2.13354 6.02467 1.35051 6.57445 0.941889Z" fill="white"/></g><defs><clipPath id="clip0_5844_143"><rect width="24" height="24" fill="white"/></clipPath></defs></svg>