<svg width="24" height="24" viewBox="0 0 24 24" fill="none" xmlns="http://www.w3.org/2000/svg"><path d="M6.86267 3.32096V7.10884L6.86502 7.11113C5.74163 7.06084 4.65811 6.51677 3.98736 5.53608C2.86867 3.89932 3.3213 1.68877 5.00052 0.598355C6.67974 -0.49206 8.94762 -0.0508653 10.0663 1.5859C10.7629 2.60774 10.8473 3.85131 10.404 4.90744L6.86267 3.32096Z" fill="white"/><path d="M18.8496 8.68979L18.8517 8.69075L18.8494 8.68847L18.8496 8.68979Z" fill="white"/><path fill-rule="evenodd" clip-rule="evenodd" d="M15.6457 7.25515L18.8496 8.68979L21 24L7.24261 16.1248L7.20508 12.7392L3 15.471V11.6831L16.2274 3.09009L19.7429 4.59426L15.6457 7.25515ZM11.4293 9.99658L18.188 19.8829L16.2508 10.3824L13.0448 8.94678L11.4293 9.99658Z" fill="white"/></svg>