<svg width="24" height="24" viewBox="0 0 24 24" fill="none" xmlns="http://www.w3.org/2000/svg"><g clip-path="url(#clip0_5844_158)"><path fill-rule="evenodd" clip-rule="evenodd" d="M7.70734 0C9.3762 1.56581 10.0496 2.98468 8.89671 5.12363C8.2804 6.26704 7.43887 7.98243 7.86903 9.28471C8.34475 10.725 9.69263 11.9449 10.8509 12.8738C11.1666 13.127 11.6433 13.4941 11.9982 13.683C12.7612 13.272 14.0335 12.1304 14.6352 11.5263C16.7195 9.5932 16.5879 7.76598 15.2469 5.39101C13.975 3.13826 14.4696 1.81681 16.2407 0.0332527C16.2522 0.0416308 16.2742 0.0714436 16.2844 0.0841774C16.3321 0.635682 16.3813 1.2587 16.52 1.79366C16.7326 2.6136 17.2046 3.48883 17.6691 4.20552C19.0334 6.31063 19.1467 7.86956 18.8685 10.281C20.4217 9.61256 21.2307 9.0569 22.2766 7.70364C22.7422 9.33486 22.6067 10.8441 21.433 12.1457C21.2264 12.3749 20.8727 12.6226 20.7086 12.8224L20.7224 12.8393C20.9495 12.8866 21.6263 12.8679 21.9023 12.8673C22.6015 12.8636 23.3008 12.8648 24 12.871C23.8407 13.3856 23.7525 13.7771 23.5422 14.2958C21.9212 18.2937 18.0931 21.7127 14.2071 23.4437C12.6797 24.1483 11.5068 24.197 9.94579 23.5128C5.88245 21.7317 2.20224 18.4428 0.453661 14.322C0.262262 13.7724 0.144303 13.448 0 12.8709C1.10947 12.8525 2.26809 12.8953 3.3677 12.8585C1.64026 11.5716 1.04954 9.78456 1.71819 7.71734C1.89312 7.9164 2.04597 8.13189 2.23396 8.33879C3.10309 9.29541 3.93659 9.80974 5.11596 10.2809C4.98686 8.97401 4.89658 7.86105 5.22901 6.56856C5.43584 5.76437 5.83103 4.9962 6.27641 4.29859C7.19096 2.86615 7.70557 1.75966 7.70734 0ZM11.9684 17.2176C11.4225 18.0359 10.8713 18.8883 10.3158 19.6964C10.5235 19.9303 11.8633 21.3099 12.0483 21.3526C12.3037 21.0406 13.5536 19.8993 13.616 19.684C13.5666 19.5003 12.1025 17.2939 11.9746 17.2209C11.9726 17.2198 11.9704 17.2187 11.9684 17.2176ZM5.15969 16.3044C5.22991 17.6709 5.85915 18.7669 7.11975 19.3781C7.61235 19.6169 8.02368 19.6661 8.5586 19.7231C8.48287 18.6692 8.18507 17.8565 7.36474 17.1423C6.91289 16.7444 6.3579 16.4825 5.76388 16.387C5.60961 16.363 5.28048 16.3412 5.15969 16.3044ZM18.783 16.3349C18.2464 16.3621 17.8621 16.4222 17.377 16.6509C16.2153 17.1986 15.4956 18.3417 15.4382 19.6164C15.4376 19.6301 15.4453 19.6614 15.4491 19.6758L15.4969 19.7074C16.5553 19.6084 17.3482 19.2971 18.0534 18.4493C18.4545 17.9599 18.7117 17.3684 18.7964 16.7409C18.8044 16.6852 18.8352 16.4581 18.8303 16.4085C18.8287 16.3915 18.8261 16.3746 18.8224 16.3579L18.783 16.3349ZM6.8711 12.8771C6.933 13.9111 7.39252 14.7095 8.3466 15.1773C8.70849 15.3548 9.02386 15.3881 9.41749 15.4281C9.36888 15.0163 9.3279 14.7001 9.15434 14.3385C8.76549 13.5283 7.97142 12.9522 7.06808 12.9117C7.00792 12.909 6.93018 12.895 6.8711 12.8771ZM17.0542 12.9064C16.6428 12.9341 16.3679 12.9688 15.999 13.1519C15.1612 13.5675 14.6372 14.393 14.584 15.3224C14.5831 15.3374 14.5937 15.3742 14.5987 15.3897C14.6393 15.4061 14.6274 15.408 14.6665 15.4053C16.0257 15.3189 17.0094 14.3433 17.1176 12.9843C17.1194 12.9627 17.1087 12.9369 17.1017 12.9173L17.0542 12.9064Z" fill="white"/><path d="M11.9929 3.48379C12.1429 3.58377 12.9743 5.86427 13.1276 6.20184C13.3588 6.356 13.5827 6.50506 13.7882 6.69435C14.2785 7.14432 14.5669 7.77337 14.5883 8.43907C14.6489 9.94239 13.5366 11.1044 12.0451 11.1566C11.5921 11.1576 11.1796 11.0668 10.7805 10.8484C10.1779 10.5216 9.73 9.96775 9.53597 9.30939C9.27059 8.39522 9.53404 7.32494 10.2443 6.67835C10.4958 6.44945 10.7933 6.33614 10.9472 6.02752C11.3048 5.31032 11.6233 4.15614 11.9929 3.48379Z" fill="white"/></g><defs><clipPath id="clip0_5844_158"><rect width="24" height="24" fill="white"/></clipPath></defs></svg>