<svg width="24" height="24" viewBox="0 0 24 24" fill="none" xmlns="http://www.w3.org/2000/svg"><g clip-path="url(#clip0_5846_105)"><path d="M11.7399 0.00822955C11.8093 0.00351932 11.8789 0.000793331 11.9485 4.89063e-05C12.4467 -0.0028913 12.8584 0.1264 13.2233 0.480155C13.8318 1.07002 13.7185 1.9105 13.7167 2.70692C14.9092 2.92091 16.2465 3.47944 17.2486 4.15454C19.3576 5.56501 20.8081 7.76776 21.271 10.2633C21.5947 10.2896 21.9754 10.2825 22.3046 10.2827C23.8803 10.284 24.5631 12.1962 23.4568 13.2621C22.87 13.8274 22.0478 13.7488 21.2688 13.7231C21.2544 13.874 21.1597 14.253 21.1174 14.4136C20.7818 15.6824 20.1845 16.8669 19.3639 17.8909C18.2001 19.3443 16.6356 20.4239 14.8642 20.9958C14.5569 21.0957 14.0396 21.2465 13.7256 21.2807C13.6744 21.9812 13.848 22.667 13.4127 23.2801C13.1331 23.6738 12.7569 23.9005 12.288 23.9878C12.2029 23.9955 12.1175 23.9996 12.0321 24C11.5366 24.0012 11.1327 23.8653 10.7714 23.5156C10.1643 22.928 10.284 22.0877 10.2857 21.2869C9.24633 21.1364 7.83612 20.5371 6.95422 19.9769C5.19697 18.8642 3.85632 17.2019 3.14067 15.2482C2.94166 14.6989 2.8505 14.2997 2.72391 13.7309C1.90172 13.7029 1.11964 13.868 0.486296 13.2192C-0.18438 12.5323 -0.149636 11.4082 0.518246 10.7373C1.09657 10.1564 1.96723 10.2773 2.71818 10.2844C2.85106 9.28512 3.49472 7.75228 4.04521 6.91646C5.61515 4.53283 7.57207 3.31269 10.2832 2.70915C10.3074 2.01008 10.1667 1.29024 10.5916 0.695398C10.8974 0.267324 11.2354 0.101882 11.7399 0.00822955ZM11.9937 10.3137C11.7349 9.91416 10.3715 7.99277 10.3115 7.69626C10.2568 7.42575 10.2831 7.1212 10.2847 6.8459C10.2875 6.3616 10.2979 5.87469 10.2856 5.39058C8.38886 5.94209 7.0446 6.93611 6.03426 8.6815C5.66956 9.31153 5.62018 9.65739 5.3777 10.2727C5.8581 10.2902 6.33901 10.2814 6.8196 10.2797C7.0883 10.2788 7.3827 10.2569 7.64792 10.3053C7.9546 10.3613 9.94541 11.7215 10.2885 11.9879C9.98296 12.248 7.95803 13.6278 7.69412 13.6897C7.33107 13.7748 5.85591 13.7319 5.38991 13.7194C5.9875 15.6675 6.99321 17.0282 8.81812 18.0375C9.16848 18.2312 9.88921 18.5274 10.2846 18.6013C10.2893 18.1268 10.2895 17.6522 10.2851 17.1776C10.2844 17.0426 10.2752 16.3497 10.3074 16.2849C10.5178 15.8605 11.7052 14.035 11.971 13.7723L11.9887 13.7551C12.1075 13.7751 13.6847 16.1243 13.7021 16.3537C13.7553 17.0558 13.6724 17.8967 13.7286 18.6067C14.0989 18.4817 14.3941 18.3998 14.7556 18.2366C16.2196 17.5786 17.4106 16.4336 18.1262 14.9962C18.3504 14.5418 18.4545 14.2086 18.604 13.7372C18.3403 13.7577 16.4504 13.7585 16.3601 13.7201C16.0116 13.5718 13.9817 12.257 13.7499 11.9996C13.7766 11.8772 15.7102 10.6545 15.9318 10.4807C16.2272 10.249 16.7032 10.2682 17.0574 10.2775C17.5747 10.2775 18.0923 10.2823 18.6097 10.2853C18.4788 9.89357 18.3928 9.58324 18.2211 9.20174C17.5714 7.76146 16.4446 6.58977 15.0313 5.8846C14.5091 5.62341 14.2321 5.57063 13.7341 5.38487L13.7307 5.41026C13.6464 6.07863 13.7601 6.88899 13.7141 7.56505C13.6949 7.84624 13.2376 8.45372 13.0635 8.71409L11.9937 10.3137Z" fill="white"/></g><defs><clipPath id="clip0_5846_105"><rect width="24" height="24" fill="white"/></clipPath></defs></svg>