<svg width="24" height="24" viewBox="0 0 24 24" fill="none" xmlns="http://www.w3.org/2000/svg"><path d="M4.05017 17.7622C7.27265 17.7098 10.5818 17.7501 13.8151 17.7502L17.6827 17.7506C18.4161 17.7508 19.2751 17.7319 20 17.7703C19.7452 17.9255 18.7164 18.7729 18.4221 19.0161C17.5028 19.7758 16.4383 20.5589 15.5527 21.3382C15.7248 21.5444 16.1178 22.1731 16.2845 22.4247C16.6116 22.9048 16.986 23.5303 17.3318 23.9756C16.3398 24.013 15.2815 23.9962 14.285 23.9964L7.64375 23.9947C7.31098 23.9923 6.95238 23.9692 6.62418 23.9924C6.80733 23.7584 7.13159 23.2391 7.30901 22.9679C7.65972 22.4318 8.06733 21.8608 8.39766 21.3192C7.18786 20.383 6.01263 19.3722 4.80582 18.4294C4.56652 18.2424 4.3121 18.0019 4.06066 17.8366L4.04844 17.8287L4.05017 17.7622Z" fill="white"/><path d="M7.86907 4.42899C8.34562 4.39135 9.06812 4.41148 9.56622 4.41145L14.7763 4.41221C15.0977 4.41232 15.8311 4.39352 16.1051 4.45769C16.3151 4.7145 16.9666 6.36268 17.162 6.81133C17.805 8.28837 18.4578 9.77789 19.0803 11.2636C19.6937 12.7275 19.9495 14.4023 19.9702 15.9845L16.5108 15.9868C15.9519 15.9873 14.3622 16.0447 13.9195 15.9034C13.5343 15.781 13.2138 15.5097 13.029 15.1498C12.8902 14.8778 12.8596 14.6599 12.8516 14.3621C12.8137 13.3637 13.7754 12.883 14.3132 12.1841C15.1217 11.1334 15.2335 9.81856 14.629 8.6476C14.4997 8.42047 14.3401 8.21205 14.1547 8.028C12.9527 6.82486 10.9781 6.826 9.78636 8.03753C9.34563 8.49181 9.06377 9.07691 8.98292 9.70509C8.60975 12.4333 11.1297 12.7788 11.1238 14.3788C11.1222 14.813 10.9356 15.227 10.6307 15.5322C10.4472 15.7159 10.2057 15.8793 9.95124 15.9372C9.44217 16.053 8.53076 15.9884 7.98389 15.9882L4 15.9869C4.0026 15.882 4.00423 15.7772 4.00497 15.6722C4.02025 14.6274 4.1666 13.5885 4.44048 12.5801C4.57143 12.1204 4.72424 11.6672 4.89837 11.2221C5.13234 10.6345 7.75149 4.54464 7.86907 4.42899Z" fill="white"/><path d="M13.0136 0.00887521C13.525 -0.000363916 14.1588 -0.011702 14.6612 0.0283662C14.8189 0.537149 15.0098 1.05727 15.1712 1.56869C15.2488 1.81482 15.4478 2.46532 15.5558 2.66907C15.2504 2.67564 14.9449 2.679 14.6394 2.67925L8.41064 2.67784C8.56486 2.29895 9.18858 0.165385 9.3422 0.0173213C10.5522 -0.0260692 11.7996 0.0308032 13.0136 0.00887521Z" fill="white"/></svg>