<svg width="24" height="24" viewBox="0 0 24 24" fill="none" xmlns="http://www.w3.org/2000/svg"><g clip-path="url(#clip0_5844_178)"><path d="M12.0048 2.12604C12.5003 1.97686 13.2271 1.67288 13.723 1.48241L16.3042 0.5C16.1074 0.932111 15.9034 1.46859 15.7167 1.91574C15.3405 2.80802 14.9693 3.70219 14.6031 4.59823C14.7172 4.98211 15.1186 5.89104 15.2899 6.28505C15.6373 7.08369 15.9591 7.9501 16.3114 8.73782C14.9015 8.14236 13.3073 7.67685 11.9255 7.04969C11.6068 7.31059 11.0618 7.86442 10.7521 8.16181L8.50155 10.3232C10.6285 10.28 12.8707 10.3115 15.0049 10.312L16.4831 10.315C16.7269 10.316 17.4099 10.3326 17.5986 10.2782C18.2567 10.0885 19.0205 9.7641 19.6647 9.51686C21.1037 8.96073 22.5457 8.4116 23.9905 7.86952C23.6673 8.41465 23.2418 9.29859 22.9511 9.87498L21.8564 11.9995L23.2079 14.5881C23.4657 15.0838 23.7268 15.6205 24 16.1044C23.1483 15.766 22.2551 15.4505 21.3982 15.1118C20.9714 14.9432 20.0627 14.5765 19.6497 14.4723C19.237 14.6479 18.4105 15.5395 18.0477 15.8743C16.8536 16.9771 15.6742 18.0944 14.5098 19.2259C14.7001 19.54 16.2719 23.3184 16.2472 23.4464C15.4836 23.1294 14.5993 22.8372 13.8214 22.5206C13.4225 22.3583 12.368 21.942 11.9878 21.8495C11.1714 22.1215 10.2675 22.5097 9.45076 22.8114C8.99518 22.9797 8.08668 23.2989 7.70275 23.5C8.1157 22.5653 8.47482 21.593 8.88922 20.6562C9.07091 20.2456 9.28062 19.7705 9.42371 19.349C9.35454 19.1435 9.21035 18.8267 9.12413 18.6199L8.54072 17.2209C8.32045 16.6923 7.95338 15.7111 7.70734 15.2461C8.15108 15.3805 8.61277 15.5799 9.04946 15.7399C10.0522 16.1074 11.0718 16.5448 12.0796 16.8894C12.2565 16.6421 12.9278 16.0683 13.2003 15.8084L14.5943 14.4718C14.8356 14.2402 15.2715 13.7976 15.5389 13.6306C15.0312 13.6012 14.2268 13.6254 13.6984 13.6257L10.0848 13.6274L7.84763 13.624C6.46303 13.6215 6.52812 13.6095 5.2417 14.1102L3.40851 14.816L1.32071 15.6123C0.935768 15.7576 0.34892 15.9579 0 16.1405C0.423854 15.4184 0.83564 14.4721 1.25912 13.7283C1.39648 13.4871 2.07017 12.202 2.13083 11.9914C2.11346 11.8318 0.239084 8.23945 0.0169876 7.87599C1.47253 8.3345 2.89063 9.05055 4.35502 9.47629C4.49475 9.51692 5.37903 8.62039 5.5039 8.50053L6.98501 7.07873C7.75976 6.33499 8.74794 5.44507 9.4732 4.68749C9.28635 4.33922 9.10367 3.81949 8.9403 3.44879C8.52169 2.49897 8.15369 1.48213 7.72945 0.538004C7.93702 0.551704 8.80524 0.914929 9.06582 1.00945C10.0343 1.36073 11.0324 1.79704 12.0048 2.12604Z" fill="white"/></g><defs><clipPath id="clip0_5844_178"><rect width="24" height="24" fill="white"/></clipPath></defs></svg>