<svg width="24" height="24" viewBox="0 0 24 24" fill="none" xmlns="http://www.w3.org/2000/svg"><g clip-path="url(#clip0_5844_195)"><path d="M16.0526 20.3988C16.3089 20.4215 17.2595 20.6297 17.5378 20.6892C17.8982 20.7662 19.0835 20.9809 19.3665 21.1053L19.3737 21.1393C18.82 21.7831 17.2572 22.7037 16.4531 23.0567C13.6018 24.3082 10.6932 24.2799 7.82199 23.1763C6.91344 22.7734 6.05806 22.3211 5.27882 21.6977C5.03706 21.5042 4.8059 21.2959 4.55134 21.1198C4.99296 20.9857 7.64451 20.3954 7.9722 20.4327C8.31653 20.4719 8.76569 20.7495 9.10531 20.8781C10.3217 21.3385 11.6814 21.4803 12.9718 21.3366C13.686 21.2561 14.3865 21.0819 15.0555 20.8185C15.3628 20.6943 15.7509 20.4874 16.0526 20.3988Z" fill="white"/><path d="M7.12684 11.033C7.29305 11.0656 8.49571 11.8016 8.75405 11.9399C8.25339 13.8286 9.2847 15.6091 11.1492 16.149C11.165 16.4232 11.1873 17.7943 11.1123 18.0003C11.0076 18.0985 9.01966 18.4749 8.74947 18.5303L4.18968 19.4676C3.33719 19.6168 2.16756 19.939 1.33954 20.0298C1.07461 19.5365 0.748167 19.0305 0.5 18.5375C0.805864 18.1422 1.24427 17.6727 1.58228 17.2918L5.54266 12.8083C6.02392 12.2591 6.62708 11.5383 7.12684 11.033Z" fill="white"/><path d="M16.8723 11.0501C17.0172 11.1365 17.9486 12.2222 18.1085 12.4031L22.5385 17.4178C22.8438 17.7627 23.2158 18.1629 23.5 18.5197C23.4114 18.7413 22.7982 19.8495 22.6317 19.981C22.4529 20.0277 20.3731 19.5693 20.04 19.4965L13.764 18.2112C13.4917 18.1562 13.128 18.0723 12.8613 18.0517C12.8471 17.4963 12.8406 16.6727 12.8688 16.1256C14.708 15.6788 15.7426 13.7647 15.2635 11.9481C15.6852 11.6666 16.358 11.2884 16.8132 11.0441L16.8723 11.0501Z" fill="white"/><path d="M8.60331 2.33714C8.56366 2.47618 8.51675 2.61855 8.4689 2.7582C8.15211 3.68244 7.8862 4.64927 7.52239 5.55342C7.45312 5.72546 6.88799 6.04727 6.72349 6.19196C6.56068 6.3352 6.36427 6.49502 6.19893 6.65164C5.68897 7.13185 5.23924 7.67276 4.85978 8.26233C4.21741 9.26267 3.79416 10.3887 3.61803 11.5656C3.54948 12.0114 3.6014 12.5035 3.2964 12.8455C2.77337 13.4321 2.25689 14.0264 1.72854 14.6082C1.57036 14.7823 1.37094 15.0474 1.20762 15.1992L1.16708 15.1776L1.1491 15.0992C1.10918 14.9531 1.08937 14.806 1.06531 14.657C0.690806 12.3378 1.05882 9.89347 2.119 7.81361C3.44446 5.17646 5.77061 3.18504 8.574 2.28757L8.60331 2.33714Z" fill="white"/><path d="M15.3846 2.29216C15.7235 2.32732 16.4828 2.67604 16.8161 2.83793C18.7517 3.77176 20.3753 5.24984 21.4898 7.09253C22.6356 8.97868 23.1769 11.1574 23.0765 13.3602C23.0527 13.8812 23.0066 14.4458 22.8843 14.9527C22.8745 15.0317 22.8758 15.1068 22.8281 15.1656C22.6131 15.0982 20.9971 13.0937 20.7009 12.8275C20.4221 12.5769 20.4197 11.6154 20.3348 11.2032C19.8354 8.7803 18.5258 7.01849 16.5118 5.64358C16.3984 5.43823 16.2333 4.86443 16.1488 4.62029C15.8837 3.85415 15.6535 3.05675 15.3846 2.29216Z" fill="white"/><path d="M11.1604 0.0183989C11.6056 -0.00890605 12.4194 -0.00582704 12.8554 0.0276863C12.9591 0.247207 13.1571 0.893927 13.2429 1.15314L15.3004 7.35268C15.538 8.06801 15.8066 8.8304 16.0232 9.54922C15.7697 9.7433 14.7217 10.3237 14.4159 10.4971C13.9325 9.97239 13.4385 9.74006 12.7713 9.55204C12.4358 9.48601 12.0932 9.46471 11.7522 9.4887C10.9415 9.54413 10.1382 9.87665 9.59796 10.4987C9.06183 10.2132 8.50415 9.83828 7.96783 9.57562C8.15079 8.92829 8.45198 8.10134 8.66725 7.45328L10.0434 3.3095L10.7612 1.13874C10.8416 0.895675 11.0538 0.2098 11.1604 0.0183989Z" fill="white"/></g><defs><clipPath id="clip0_5844_195"><rect width="24" height="24" fill="white"/></clipPath></defs></svg>