<svg width="24" height="24" viewBox="0 0 24 24" fill="none" xmlns="http://www.w3.org/2000/svg"><g clip-path="url(#clip0_5844_188)"><path d="M19.6221 6.49304C19.63 6.49553 19.6617 6.50692 19.6651 6.51123C20.4459 7.49134 20.9889 8.91336 21.2439 10.097C21.3855 10.2307 21.951 10.5911 22.1487 10.7223C22.7681 11.1304 23.3852 11.542 24 11.9569C23.8456 12.1004 23.431 12.3647 23.2396 12.4911L21.9626 13.3339C21.8288 13.4224 21.3387 13.7341 21.2932 13.8369C21.111 14.2723 21.0215 14.7602 20.8566 15.2129C19.8972 17.8456 17.7747 19.924 15.1372 20.8744C14.9457 20.9434 13.8863 21.2113 13.8305 21.2851C13.1848 22.1374 12.5499 23.0911 11.9778 24C11.8115 23.7747 11.6168 23.4626 11.4589 23.225L10.1342 21.2603C9.76915 21.129 9.28704 21.0326 8.86936 20.8879C8.27292 20.6808 7.69895 20.4142 7.15628 20.0921C6.89807 19.9361 6.66032 19.7601 6.39678 19.6011C6.67921 19.5743 7.21143 19.4494 7.50893 19.3894L9.51107 18.9865C10.3519 18.8174 10.8314 18.6765 11.6924 18.7837C12.1836 18.8448 12.9867 18.7485 13.4608 18.6412C14.2178 18.4722 14.9396 18.1735 15.5942 17.7584C17.3974 16.6183 18.5836 14.7531 18.7927 12.6215C18.8875 11.8182 18.6686 11.15 18.8384 10.3515C19.1109 9.07042 19.3369 7.77133 19.6221 6.49304Z" fill="white"/><path d="M7.69035 9.44316C7.80766 9.50917 9.75567 13.481 9.98498 13.9521C10.5162 14.246 11.127 14.535 11.6739 14.8075L14.5811 16.2636L11.7248 16.8517C9.79364 17.1909 7.87015 17.5723 5.95577 17.9956C6.03653 17.4256 6.20371 16.6872 6.31902 16.1119L7.40267 10.7105C7.46917 10.3789 7.58129 9.74925 7.69035 9.44316Z" fill="white"/><path d="M11.9511 0C12.1607 0.0853362 13.5485 2.3455 13.836 2.69319C14.1207 2.80473 14.7408 2.94393 15.1013 3.06877C16.1321 3.42578 16.6742 3.79225 17.5584 4.34998C17.2972 4.36699 16.6458 4.52217 16.3619 4.58099L14.439 4.96796C14.0738 5.04093 13.6748 5.12769 13.31 5.18506C12.9789 5.23716 12.5133 5.17718 12.164 5.16479C11.5531 5.14143 10.9419 5.20182 10.3475 5.34437C9.59727 5.51905 8.8839 5.82453 8.24024 6.24677C6.51096 7.37213 5.29749 9.31148 5.14461 11.3729C5.12186 11.6834 5.11953 11.995 5.13759 12.3058C5.1671 12.7507 5.21842 13.0381 5.12774 13.4798C4.93221 14.432 4.7549 15.3896 4.55279 16.3406L4.3216 17.5066C3.71658 16.7596 3.12566 15.4944 2.87628 14.5576C2.81828 14.3396 2.75619 13.9457 2.61187 13.7957C2.30637 13.4781 0.0605986 12.2029 0 11.9395C0.155323 11.7871 0.520004 11.5557 0.714014 11.4269L1.91431 10.6333C2.14616 10.4801 2.45319 10.2897 2.66259 10.1173C2.74784 9.91489 2.80991 9.62915 2.86978 9.41086C3.72852 6.28019 6.27093 3.71917 9.4245 2.88845C9.5946 2.84363 10.0331 2.75331 10.1446 2.63455L10.1561 2.62211C10.3246 2.44162 10.5854 2.00986 10.7378 1.78902C11.1454 1.19834 11.5364 0.586005 11.9511 0Z" fill="white"/><path d="M18.0086 5.96464C17.851 6.61002 17.7166 7.40696 17.5833 8.07132L16.7584 12.1778L16.4895 13.5266C16.4563 13.6927 16.3743 14.1385 16.317 14.2751C16.3199 14.3496 16.2642 14.5142 16.2411 14.5937C16.169 14.4077 16.094 14.2354 16.0134 14.0528L15.9779 13.9909C15.8001 13.6766 15.6178 13.289 15.4578 12.969L14.537 11.1264C14.4193 10.8906 14.1168 10.2464 13.9806 10.0629L13.9709 10.0496C13.7141 9.70367 9.61563 7.94847 9.46128 7.70809C9.53259 7.63473 9.66877 7.61529 9.77055 7.59613C12.5155 7.0792 15.2599 6.4537 18.0086 5.96464Z" fill="white"/></g><defs><clipPath id="clip0_5844_188"><rect width="24" height="24" fill="white"/></clipPath></defs></svg>